<svg xmlns="http://www.w3.org/2000/svg" viewBox="0 0 30 30"><defs><style>.cls-1{fill:#152c58;opacity:0;}.cls-2{fill:#172858;}</style></defs><g id="レイヤー_2" data-name="レイヤー 2"><g id="レイヤー_1-2" data-name="レイヤー 1"><rect class="cls-1" width="30" height="30" transform="translate(0 30) rotate(-90)"/><path class="cls-2" d="M13.59,15,8.41,20.17a1,1,0,1,0,1.42,1.42L15,16.41l5.17,5.18a1,1,0,1,0,1.42-1.42L16.41,15l5.18-5.17a1,1,0,0,0,0-1.42,1,1,0,0,0-.71-.29,1,1,0,0,0-.71.29L15,13.59,9.83,8.41a1,1,0,0,0-.71-.29,1,1,0,0,0-.71.29,1,1,0,0,0,0,1.42Z"/></g></g></svg>