<svg xmlns="http://www.w3.org/2000/svg" viewBox="0 0 30 30"><defs><style>.cls-1{fill:#152c58;opacity:0;}.cls-2{fill:#172858;}</style></defs><g id="レイヤー_2" data-name="レイヤー 2"><g id="レイヤー_1-2" data-name="レイヤー 1"><rect class="cls-1" width="30" height="30" transform="translate(30 30) rotate(180)"/><path class="cls-2" d="M10.19,21.33V8.67l1.4,1.4a.69.69,0,0,0,1,0h0a.69.69,0,0,0,0-1L10,6.44a.66.66,0,0,0-.92,0L6.36,9.08a.7.7,0,0,0,0,1h0a.71.71,0,0,0,1,0L8.78,8.66V21.34L7.35,19.92a.71.71,0,0,0-1,0h0a.7.7,0,0,0,0,1L9,23.56a.65.65,0,0,0,.92,0l2.63-2.64a.69.69,0,0,0,0-1h0a.69.69,0,0,0-1,0Z"/><rect class="cls-2" x="14.7" y="10.14" width="9.15" height="1.41" rx="0.7"/><rect class="cls-2" x="14.7" y="18.45" width="9.15" height="1.41" rx="0.7"/><rect class="cls-2" x="14.7" y="14.3" width="9.15" height="1.41" rx="0.7"/><rect class="cls-2" x="14.7" y="5.99" width="9.15" height="1.41" rx="0.7"/><rect class="cls-2" x="14.7" y="22.6" width="9.15" height="1.41" rx="0.7"/></g></g></svg>