<svg xmlns="http://www.w3.org/2000/svg" width="16" height="16" viewBox="0 0 16 16">
  <g id="グループ_4654" data-name="グループ 4654" transform="translate(1047 3571)">
    <rect id="長方形_12917" data-name="長方形 12917" width="16" height="16" transform="translate(-1047 -3571)" fill="#fff" opacity="0"/>
    <g id="グループ_4653" data-name="グループ 4653" transform="translate(-1044 -3568.291)">
      <path id="パス_3079" data-name="パス 3079" d="M.135,1.028,3.47,4.363V9.382a.4.4,0,0,0,.264.4.471.471,0,0,0,.169.034.4.4,0,0,0,.3-.129L5.939,7.955a.417.417,0,0,0,.129-.3V4.363L9.4,1.028A.39.39,0,0,0,9.5.555.4.4,0,0,0,9.1.291H.44a.4.4,0,0,0-.4.264A.39.39,0,0,0,.135,1.028Z" transform="translate(0)" fill="#172858" stroke="rgba(0,0,0,0)" stroke-miterlimit="10" stroke-width="1"/>
    </g>
  </g>
</svg>
