<svg xmlns="http://www.w3.org/2000/svg" width="16" height="16" viewBox="0 0 16 16">
  <g id="グループ_4655" data-name="グループ 4655" transform="translate(1082 3571)">
    <rect id="長方形_12916" data-name="長方形 12916" width="16" height="16" transform="translate(-1082 -3571)" fill="#fff" opacity="0"/>
    <g id="グループ_2123" data-name="グループ 2123" transform="translate(-1509.989 -3590.237)">
      <g id="musica-searcher" transform="translate(429.989 21.237)">
        <path id="パス_260" data-name="パス 260" d="M11.413,10.028,8.868,7.487c-.013-.013-.03-.023-.043-.035A4.815,4.815,0,1,0,7.452,8.826c.012.014.022.03.035.043l2.54,2.545a.978.978,0,1,0,1.382-1.382ZM4.812,7.95a3.142,3.142,0,1,1,2.22-.919,3.142,3.142,0,0,1-2.22.919Z" transform="translate(0.011 0.009)" fill="#030f4b" fill-rule="evenodd"/>
      </g>
    </g>
  </g>
</svg>
