<?xml version="1.0" encoding="utf-8"?>
<!-- Generator: Adobe Illustrator 24.1.0, SVG Export Plug-In . SVG Version: 6.00 Build 0)  -->
<svg version="1.1" id="レイヤー_1" xmlns="http://www.w3.org/2000/svg" xmlns:xlink="http://www.w3.org/1999/xlink" x="0px"
	 y="0px" viewBox="0 0 30 30" style="enable-background:new 0 0 30 30;" xml:space="preserve">
<style type="text/css">
	.st0{fill:#172858;fill-opacity:0;}
	.st1{fill:#FFFFFF;}
	.st2{fill:#47172d;}
	.st3{fill:#172858;}
</style>
<g id="レイヤー_2_1_">
	<g id="レイヤー_1-2">
		<rect class="st0" width="30" height="30"/>
		<rect x="7.1" y="8.6" class="st1" width="15.7" height="4.2"/>
		<rect x="7.1" y="12.8" class="st2" width="15.7" height="9.7"/>
		<path class="st3" d="M21.6,7.6h-1.4V7c0-0.4-0.4-0.8-0.8-0.8l0,0c-0.4,0-0.8,0.3-0.8,0.8c0,0,0,0,0,0v0.6h-7.3V7
			c0-0.4-0.3-0.8-0.8-0.8c0,0,0,0,0,0c-0.4,0-0.8,0.4-0.8,0.8v0.6H8.4c-1.2,0-2.2,1-2.2,2.2v11.8c0,1.2,1,2.2,2.2,2.2h13.2
			c1.2,0,2.2-1,2.2-2.2V9.8C23.8,8.6,22.8,7.6,21.6,7.6z M7.8,13.5h14.5v8.1c0,0.4-0.3,0.6-0.6,0.6H8.4c-0.4,0-0.6-0.3-0.6-0.6V13.5
			z M10.6,11c0.4,0,0.8-0.4,0.8-0.8v-1h7.3v1c0,0.4,0.3,0.8,0.8,0.8c0.4,0,0.8-0.4,0.8-0.8v-1h1.4c0.4,0,0.6,0.3,0.6,0.6v2H7.8V9.8
			c0-0.4,0.3-0.6,0.6-0.6l0,0h1.4v1C9.8,10.6,10.1,11,10.6,11z"/>
		<path class="st1" d="M14.1,20.2c-0.2,0-0.4-0.1-0.5-0.2l-1.9-2c-0.2-0.4-0.1-0.8,0.3-1c0.2-0.1,0.5-0.1,0.8,0l1.4,1.4l3.3-3.4
			c0.3-0.3,0.8-0.3,1.1,0c0.3,0.3,0.3,0.8,0,1.1L14.6,20C14.5,20.1,14.3,20.2,14.1,20.2z"/>
	</g>
</g>
</svg>
