<?xml version="1.0" standalone="no"?>
<!DOCTYPE svg PUBLIC "-//W3C//DTD SVG 20010904//EN"
 "http://www.w3.org/TR/2001/REC-SVG-20010904/DTD/svg10.dtd">
<svg version="1.0" xmlns="http://www.w3.org/2000/svg"
 width="700.000000pt" height="700.000000pt" viewBox="0 0 700.000000 700.000000"
 preserveAspectRatio="xMidYMid meet">
<metadata>
Created by potrace 1.11, written by Peter Selinger 2001-2013
</metadata>
<g transform="translate(0.000000,700.000000) scale(0.100000,-0.100000)"
fill="#000000" stroke="none">
<path d="M0 3500 l0 -3500 3500 0 3500 0 0 3500 0 3500 -3500 0 -3500 0 0
-3500z m2640 963 c0 -1087 4 -1781 11 -1872 43 -608 241 -963 589 -1057 92
-25 296 -22 403 5 210 54 355 180 458 396 87 183 131 390 150 702 l11 187 46
52 47 53 344 0 344 1 -6 -227 c-7 -307 -40 -534 -111 -770 -181 -599 -576
-975 -1151 -1098 -104 -23 -428 -32 -551 -16 -369 49 -704 229 -923 496 -211
257 -331 557 -403 1000 l-22 140 -3 1868 -4 1867 386 0 385 0 0 -1727z m1408
813 c67 -34 124 -91 158 -158 39 -75 45 -199 14 -280 -30 -80 -102 -157 -182
-194 -54 -25 -75 -29 -148 -29 -76 0 -92 3 -152 33 -121 59 -179 152 -186 297
-5 121 19 187 97 266 78 78 137 100 256 96 74 -3 99 -8 143 -31z m894 0 c65
-31 115 -82 155 -158 25 -48 28 -63 28 -153 0 -93 -2 -105 -33 -167 -36 -73
-86 -123 -161 -160 -39 -19 -62 -23 -146 -23 -89 0 -106 3 -150 27 -62 32
-139 113 -168 176 -31 67 -31 217 0 284 40 86 133 170 223 199 14 5 63 7 110
5 68 -2 96 -8 142 -30z"/>
</g>
</svg>
