<svg xmlns="http://www.w3.org/2000/svg" viewBox="0 0 30 30"><defs><style>.cls-1{fill:#152c58;opacity:0;}.cls-2{fill:#f29938;}</style></defs><g id="レイヤー_2" data-name="レイヤー 2"><g id="レイヤー_1-2" data-name="レイヤー 1"><rect class="cls-1" width="30" height="30"/><path class="cls-2" d="M15,18a1,1,0,0,0,1-1V11.35a1,1,0,1,0-1.94,0V17A1,1,0,0,0,15,18Z"/><path class="cls-2" d="M15,18.83a1.28,1.28,0,1,0,1.28,1.28A1.28,1.28,0,0,0,15,18.83Z"/><path class="cls-2" d="M26.9,20.68l-9-15.6a3.34,3.34,0,0,0-5.78,0l-9,15.6a3.34,3.34,0,0,0,2.89,5H24a3.34,3.34,0,0,0,2.89-5ZM25.17,23a1.33,1.33,0,0,1-1.16.67H6a1.34,1.34,0,0,1-1.16-2l9-15.6a1.34,1.34,0,0,1,2.32,0l9,15.6A1.34,1.34,0,0,1,25.17,23Z"/></g></g></svg>