<svg xmlns="http://www.w3.org/2000/svg" viewBox="0 0 30 30"><defs><style>.cls-1,.cls-2{fill:#152c58;}.cls-1{opacity:0;}</style></defs><g id="レイヤー_2" data-name="レイヤー 2"><g id="レイヤー_1-2" data-name="レイヤー 1"><rect class="cls-1" width="30" height="30"/><path class="cls-2" d="M15,3.7A11.3,11.3,0,1,0,26.31,15,11.31,11.31,0,0,0,15,3.7ZM24.36,15A9.35,9.35,0,1,1,15,5.65,9.36,9.36,0,0,1,24.36,15Z"/><path class="cls-2" d="M15,16.92a1,1,0,0,0,1-1V10.31a1,1,0,0,0-2,0V16A1,1,0,0,0,15,16.92Z"/><path class="cls-2" d="M15,17.79a1.29,1.29,0,1,0,1.28,1.29A1.28,1.28,0,0,0,15,17.79Z"/></g></g></svg>