<svg xmlns="http://www.w3.org/2000/svg" viewBox="0 0 30 30"><defs><style>.cls-1{opacity:0;}.cls-2{fill:#a2adc1;}</style></defs><title>ico_ttl_member_gray</title><g id="レイヤー_2" data-name="レイヤー 2"><g id="レイヤー_1-2" data-name="レイヤー 1"><g id="長方形_12402-2" data-name="長方形 12402-2" class="cls-1"><rect width="30" height="30"/></g><path id="パス_3283" data-name="パス 3283" class="cls-2" d="M18.9,15.6a6.89,6.89,0,1,0-7.81,0A12.08,12.08,0,0,0,2.92,27a.94.94,0,0,0,.94.94H26.14a.94.94,0,0,0,.94-.94A12.08,12.08,0,0,0,18.9,15.6ZM10,9.9a5,5,0,1,1,5,5,5,5,0,0,1-5-5Zm7.92,7.33L15,20.12l-2.89-2.89a10.15,10.15,0,0,1,5.78,0ZM10.23,18l3.83,3.83v4.25H4.84A10.22,10.22,0,0,1,10.23,18Zm5.71,8.08V21.83L19.77,18a10.22,10.22,0,0,1,5.39,8.08Z"/></g></g></svg>