<svg xmlns="http://www.w3.org/2000/svg" viewBox="0 0 30 30"><defs><style>.cls-1{opacity:0;}.cls-2{fill:#00a199;}.cls-3{fill:#a2adc1;}.cls-4{fill:#e8edf4;}.cls-5{fill:#311905;}</style></defs><title>ico_ttl_market</title><g id="レイヤー_2" data-name="レイヤー 2"><g id="レイヤー_1-2" data-name="レイヤー 1"><g id="長方形_12575" data-name="長方形 12575" class="cls-1"><rect width="30" height="30"/></g><path id="長方形_12597" data-name="長方形 12597" class="cls-2" d="M23.27,5.23h0a2.48,2.48,0,0,1,2.48,2.48V22.6a2.48,2.48,0,0,1-2.48,2.48h0a2.48,2.48,0,0,1-2.49-2.48V7.71A2.48,2.48,0,0,1,23.27,5.23Z"/><path id="長方形_12598" data-name="長方形 12598" class="cls-3" d="M15,10.19h0a2.48,2.48,0,0,1,2.48,2.48V22.6A2.48,2.48,0,0,1,15,25.08h0a2.48,2.48,0,0,1-2.48-2.48V12.67A2.48,2.48,0,0,1,15,10.19Z"/><path id="長方形_12599" data-name="長方形 12599" class="cls-4" d="M6.72,15.16h0A2.48,2.48,0,0,1,9.2,17.64v5a2.48,2.48,0,0,1-2.48,2.48h0A2.48,2.48,0,0,1,4.24,22.6v-5A2.48,2.48,0,0,1,6.72,15.16Z"/><g id="グループ_4115" data-name="グループ 4115"><g id="bar-up"><path id="Rectangle" class="cls-5" d="M22.41,5.94a.82.82,0,0,0-.82.82V23.24a.82.82,0,0,0,.82.82h1.65a.82.82,0,0,0,.82-.82V6.76a.82.82,0,0,0-.82-.82Zm0-1.65h1.65a2.48,2.48,0,0,1,2.47,2.47h0V23.24a2.47,2.47,0,0,1-2.47,2.47H22.41a2.48,2.48,0,0,1-2.47-2.47V6.76A2.48,2.48,0,0,1,22.41,4.29Z"/><path id="Rectangle-Copy" class="cls-5" d="M14.18,10.88a.83.83,0,0,0-.83.83V23.24a.83.83,0,0,0,.83.82h1.64a.83.83,0,0,0,.83-.82V11.71a.83.83,0,0,0-.83-.83Zm0-1.64h1.64a2.46,2.46,0,0,1,2.47,2.47h0V23.24a2.47,2.47,0,0,1-2.47,2.47H14.18a2.47,2.47,0,0,1-2.47-2.47h0V11.71a2.45,2.45,0,0,1,2.46-2.47Z"/><path id="Rectangle-Copy-2" class="cls-5" d="M5.94,15.82a.83.83,0,0,0-.82.83v6.59a.82.82,0,0,0,.82.82H7.59a.82.82,0,0,0,.82-.82V16.65a.83.83,0,0,0-.82-.83Zm0-1.64H7.59a2.47,2.47,0,0,1,2.47,2.47v6.59a2.48,2.48,0,0,1-2.47,2.47H5.94a2.48,2.48,0,0,1-2.47-2.47h0V16.65A2.47,2.47,0,0,1,5.94,14.18Z"/></g></g></g></g></svg>