<svg xmlns="http://www.w3.org/2000/svg" viewBox="0 0 30 30"><defs><style>.cls-1{opacity:0;}.cls-2{fill:#a2adc1;}</style></defs><title>ico_ttl_master_gray</title><g id="レイヤー_2" data-name="レイヤー 2"><g id="レイヤー_1-2" data-name="レイヤー 1"><g id="長方形_12379" data-name="長方形 12379" class="cls-1"><rect width="30" height="30"/></g><g id="グループ_3751" data-name="グループ 3751"><path id="パス_3163" data-name="パス 3163" class="cls-2" d="M15,3.5C8.67,3.5,3.5,5.37,3.5,8.29V21.71c0,2.91,5.17,4.79,11.5,4.79s11.5-1.88,11.5-4.79V8.29C26.5,5.38,21.33,3.5,15,3.5Zm0,1.92c5.32,0,9.58,1.55,9.58,2.87S20.32,11.17,15,11.17,5.42,9.62,5.42,8.29,9.68,5.42,15,5.42Zm9.58,16.29c0,1.32-4.26,2.87-9.58,2.87S5.42,23,5.42,21.71V17.76h0l.15.09,0,0,.19.11.05,0,.15.08.06,0,.14.07.07,0,.19.09h0l.22.09.06,0,.17.07.07,0,.17.06.07,0,.24.08h0l.24.08.08,0,.17.06.09,0,.18.05.08,0,.26.07h0l.24.06.08,0,.19.05.1,0,.2,0,.07,0,.28.06h.06l.23,0,.1,0,.2,0,.1,0,.23,0h.07l.3,0h.07l.24,0,.1,0,.21,0h.1l.25,0h.06l.32,0h.09l.23,0h.12l.22,0h3.8l.23,0h.11l.24,0h.08l.32,0h.06l.25,0h.1l.22,0,.1,0,.23,0h.07l.3,0h.07l.23,0,.1,0,.2,0,.1,0,.23,0h.06l.28-.06.08,0,.2,0,.09,0,.19-.05.09,0,.23-.06h0l.26-.07.07,0,.19-.05.08,0,.18-.06.08,0,.24-.08h0l.24-.08.07,0,.16-.06.08,0,.16-.07.06,0,.22-.09h0l.18-.09.07,0,.14-.07.07,0L24.1,18l.06,0,.18-.11,0,0,.14-.09h0V21.7ZM15,17.87c-5.32,0-9.58-1.55-9.58-2.87V11.05l0,0,.15.09,0,0,.19.1.05,0,.15.07.06,0,.14.07.07,0,.18.08,0,0,.22.09.06,0,.16.06.08,0,.16.06.08,0,.23.08h0l.25.09.07,0,.18.05.09,0,.18.05.08,0,.26.07h0l.24.06.08,0,.19,0,.1,0,.2,0H9.5l.28.06h.06l.23.05h.1l.2,0,.1,0,.23,0h.07l.3.05h.08l.23,0h.1l.22,0,.1,0,.25,0h.06l.32,0h.09l.24,0h.77l.33,0h2.27l.33,0h.77l.24,0h.09l.31,0h.06l.25,0,.1,0,.22,0h.1l.23,0h.07l.3,0h.1l.23,0,.1,0,.2,0,.1,0,.23-.05h.05l.29,0,.07,0,.2,0,.1,0,.19,0,.08,0,.24-.06h0l.26-.07.08,0,.18-.05.09,0,.18-.06.07,0,.25-.08h0l.23-.09.08,0,.16-.06.08,0,.16-.06.06,0,.22-.09,0,0,.18-.08.07,0,.14-.07.07,0,.14-.07.05,0,.19-.1,0,0,.15-.08,0,0V15c0,1.32-4.26,2.87-9.58,2.87Z"/></g></g></g></svg>