<svg xmlns="http://www.w3.org/2000/svg" viewBox="0 0 30 30"><defs><style>.cls-1{opacity:0;}.cls-2{fill:#a2adc1;}</style></defs><title>ico_ttl_home_gray</title><g id="レイヤー_2" data-name="レイヤー 2"><g id="レイヤー_1-2" data-name="レイヤー 1"><g id="長方形_12412" data-name="長方形 12412" class="cls-1"><rect width="30" height="30"/></g><path id="パス_3236" data-name="パス 3236" class="cls-2" d="M24.73,11.53,15.55,5a1,1,0,0,0-1.1,0L5.27,11.53a.93.93,0,0,0-.4.77V24.19a.94.94,0,0,0,.94.94H12.3a.94.94,0,0,0,.94-.94h0V18.65h3.52v5.54a.94.94,0,0,0,.94.94h6.49a.92.92,0,0,0,.94-.94V12.3A.93.93,0,0,0,24.73,11.53Zm-7,5.23H12.3a1,1,0,0,0-1,.94v5.54H6.76V12.79L15,7l8.24,5.82V23.24H18.65V17.7A1,1,0,0,0,17.7,16.76Z"/></g></g></svg>