<svg xmlns="http://www.w3.org/2000/svg" viewBox="0 0 30 30"><defs><style>.cls-1{opacity:0;}.cls-2{fill:#a2adc1;}</style></defs><title>ico_ttl_alert_gray</title><g id="レイヤー_2" data-name="レイヤー 2"><g id="レイヤー_1-2" data-name="レイヤー 1"><g id="長方形_12575-3" data-name="長方形 12575-3" class="cls-1"><rect width="30" height="30"/></g><g id="notification"><path id="パス_3343" data-name="パス 3343" class="cls-2" d="M26.3,22.37l-2.42-2.55V15a8.87,8.87,0,0,0-5.32-8.12V6.13a3.55,3.55,0,0,0-7.1,0v.75A8.87,8.87,0,0,0,6.14,15v4.89L3.73,22.36a.9.9,0,0,0,0,1.26.91.91,0,0,0,.63.25h7.09a3.55,3.55,0,1,0,7.1,0h7.09a.88.88,0,0,0,.65-1.5ZM13.23,6.13a1.78,1.78,0,0,1,3.55,0ZM15,25.65a1.78,1.78,0,0,1-1.78-1.77h3.55A1.78,1.78,0,0,1,15,25.65Zm2.66-3.55H6.47l1.19-1.23a.81.81,0,0,0,.25-.62V15a7.1,7.1,0,1,1,14.2,0v5.17a.81.81,0,0,0,.24.61L23.6,22.1Z"/></g></g></g></svg>