<svg xmlns="http://www.w3.org/2000/svg" width="30" height="30" viewBox="0 0 30 30">
  <g id="ico_ttl_shop_gray" transform="translate(2690.6 -1497)">
    <g id="長方形_12402" data-name="長方形 12402" transform="translate(-2690.6 1497)" opacity="0.004">
      <rect id="長方形_12617" data-name="長方形 12617" width="30" height="30"/>
    </g>
    <g id="ico_ttl_shop_gray-2" data-name="ico_ttl_shop_gray" transform="translate(-2688 1500)">
      <g id="グループ_4389" data-name="グループ 4389" transform="translate(0 0)">
        <path id="パス_3373" data-name="パス 3373" d="M24.326,5.818,22.585.6A.87.87,0,0,0,21.76,0H2.611a.87.87,0,0,0-.826.6L.044,5.818A.887.887,0,0,0,0,6.069v.894a4.334,4.334,0,0,0,1.741,3.462V21.76a2.611,2.611,0,0,0,2.611,2.611H20.019A2.611,2.611,0,0,0,22.63,21.76V10.425a4.334,4.334,0,0,0,1.741-3.462V6.069A.885.885,0,0,0,24.326,5.818ZM18.278,1.741h2.854l1.161,3.482H18.278Zm-5.222,0h3.482V5.222H13.056Zm-5.222,0h3.482V5.222H7.833Zm-4.595,0H6.093V5.222H2.078ZM13.926,22.63H10.445V15.667h3.482V22.63Zm6.963-.87a.87.87,0,0,1-.87.87H15.667V14.8a.87.87,0,0,0-.87-.87H9.574a.87.87,0,0,0-.87.87V22.63H4.352a.87.87,0,0,1-.87-.87V11.228a4.3,4.3,0,0,0,3.482-.8,4.411,4.411,0,0,0,5.222,0,4.411,4.411,0,0,0,5.222,0,4.3,4.3,0,0,0,3.482.8V21.76Zm-.87-12.185a2.572,2.572,0,0,1-1.956-.9.87.87,0,0,0-1.311,0,2.626,2.626,0,0,1-3.912,0,.9.9,0,0,0-1.272-.039l-.039.039a2.626,2.626,0,0,1-3.912,0,.9.9,0,0,0-1.272-.039l-.039.039a2.572,2.572,0,0,1-1.956.9A2.611,2.611,0,0,1,1.741,6.963H22.63A2.611,2.611,0,0,1,20.019,9.574Z" transform="translate(0 0)" fill="#a2adc1"/>
      </g>
    </g>
  </g>
</svg>
