<svg xmlns="http://www.w3.org/2000/svg" viewBox="0 0 30 30"><defs><style>.cls-1{opacity:0;}.cls-2{fill:#a2adc1;}</style></defs><title>ico_ttl_contact_gray</title><g id="レイヤー_2" data-name="レイヤー 2"><g id="レイヤー_1-2" data-name="レイヤー 1"><g id="長方形_12575-2" data-name="長方形 12575-2" class="cls-1"><rect width="30" height="30"/></g><g id="email"><g id="グループ_4323" data-name="グループ 4323"><path id="パス_3342" data-name="パス 3342" class="cls-2" d="M25.18,5H4.89A2.16,2.16,0,0,0,2.73,7.16V21.59a2.16,2.16,0,0,0,2.16,2.16H25.18a2.17,2.17,0,0,0,2.17-2.16V7.16A2.17,2.17,0,0,0,25.18,5Zm-.29,1.44-9.8,9.8L5.2,6.44ZM4.17,21.29V7.46l7,6.88Zm1,1,7-6.95,2.43,2.41a.72.72,0,0,0,1,0L18,15.4l6.92,6.91Zm20.72-1L19,14.38l6.92-6.92Z"/></g></g></g></g></svg>