<svg xmlns="http://www.w3.org/2000/svg" width="30" height="30" viewBox="0 0 30 30">
  <g id="ico_ttl_slide" transform="translate(2791 -1579)">
    <g id="長方形_12402" data-name="長方形 12402" transform="translate(-2791 1579)" opacity="0.004">
      <rect id="長方形_12617" data-name="長方形 12617" width="30" height="30"/>
    </g>
    <g id="グループ_4398" data-name="グループ 4398" transform="translate(7 12.238)">
      <rect id="長方形_12631" data-name="長方形 12631" width="20" height="19" transform="translate(-2791 1574)" fill="#e8edf4"/>
      <rect id="長方形_12630" data-name="長方形 12630" width="20" height="20" rx="1" transform="translate(-2794 1570)" fill="#e8edf4"/>
      <rect id="長方形_12629" data-name="長方形 12629" width="15" height="13" transform="translate(-2792 1573)" fill="#e33f62"/>
      <g id="miscellaneous" transform="translate(-2796 1568.762)">
        <path id="パス_3418" data-name="パス 3418" d="M23.3,4.305H21.933V2.939A1.942,1.942,0,0,0,19.993,1H2.94A1.942,1.942,0,0,0,1,2.939V19.994a1.942,1.942,0,0,0,1.94,1.939H4.305V23.3a1.942,1.942,0,0,0,1.94,1.939H23.3a1.942,1.942,0,0,0,1.94-1.939V6.245A1.942,1.942,0,0,0,23.3,4.305ZM2.1,19.994V2.939A.838.838,0,0,1,2.94,2.1H19.993a.838.838,0,0,1,.838.838V19.994a.838.838,0,0,1-.838.838H2.94a.838.838,0,0,1-.838-.838ZM24.136,23.3a.838.838,0,0,1-.838.838H6.245a.838.838,0,0,1-.838-.838V21.933H19.993a1.942,1.942,0,0,0,1.94-1.939V5.407H23.3a.838.838,0,0,1,.838.838Z" transform="translate(0 0)" fill="#46172c" stroke="#46172c" stroke-width="0.3"/>
        <path id="パス_3419" data-name="パス 3419" d="M18.975,3H3.551A.551.551,0,0,0,3,3.551V16.772a.551.551,0,0,0,.551.551H18.975a.551.551,0,0,0,.551-.551V3.551A.551.551,0,0,0,18.975,3Zm-.551,1.1v7.712L16.111,8.729a.552.552,0,0,0-.831-.059l-4.017,4.017L8.347,9.772a.549.549,0,0,0-.72-.051L4.1,12.365V4.1ZM4.1,16.221V13.742l3.8-2.853,2.578,2.578-.712.712a.551.551,0,1,0,.779.779L15.611,9.9l2.814,3.752v2.57Z" transform="translate(0.203 0.203)" fill="#46172c" stroke="#46172c" stroke-width="0.3"/>
        <path id="パス_3420" data-name="パス 3420" d="M10.2,9.407A2.2,2.2,0,1,0,8,7.2,2.206,2.206,0,0,0,10.2,9.407Zm0-3.305A1.1,1.1,0,1,1,9.1,7.2,1.1,1.1,0,0,1,10.2,6.1Z" transform="translate(0.712 0.407)" fill="#46172c" stroke="#46172c" stroke-width="0.3"/>
      </g>
    </g>
  </g>
</svg>
