<svg xmlns="http://www.w3.org/2000/svg" width="390.034" height="512" viewBox="0 0 390.034 512">
  <g id="sort" transform="translate(-60.983)">
    <g id="グループ_4395" data-name="グループ 4395">
      <g id="グループ_4394" data-name="グループ 4394">
        <path id="パス_3416" data-name="パス 3416" d="M268,125.671l-90-120c-5.654-7.559-18.34-7.559-23.994,0l-90,120a15.008,15.008,0,0,0,12,23.994h45v285a14.991,14.991,0,0,0,15,15h60a14.822,14.822,0,0,0,14.8-15v-285H256A15.009,15.009,0,0,0,268,125.671Z" fill="#e8e8e8"/>
      </g>
    </g>
    <g id="グループ_4397" data-name="グループ 4397">
      <g id="グループ_4396" data-name="グループ 4396">
        <path id="パス_3417" data-name="パス 3417" d="M436,362.005H390.8V77A14.822,14.822,0,0,0,376,62H316a14.991,14.991,0,0,0-15,15V362H256A15.007,15.007,0,0,0,244,386l90,120A14.994,14.994,0,0,0,358,506l90-120A15.009,15.009,0,0,0,436,362.005Z" fill="#e8e8e8"/>
      </g>
    </g>
  </g>
</svg>
