<svg xmlns="http://www.w3.org/2000/svg" viewBox="0 0 219.06 527"><defs><style>.cls-1{fill:#d647a6;}.cls-2{fill:#fff;}</style></defs><g id="レイヤー_2" data-name="レイヤー 2"><g id="Capa_1" data-name="Capa 1"><polygon class="cls-1" points="207.36 463.85 213 518.5 92.77 523.48 201.71 334.8 207.36 463.85"/><path class="cls-2" d="M152,71.45H67.06V0H152Zm-69.93-15H137V15H82.06Z"/><path class="cls-2" d="M219.06,527H0V474.66l6.27-14.33V249.89L0,239.89v-40l69.19-39.7L66.41,154a83.06,83.06,0,0,1-2.32-62.6l1.79-4.94h87.3L155,91.39a83.05,83.05,0,0,1-2.32,62.6l-2.78,6.2,69.19,39.7v40l-6.27,10V460.33l6.27,14.33ZM15,512H204.06V477.8l-6.27-14.33V245.58l6.27-10v-27l-73.44-42.14L139,147.85a69.08,69.08,0,0,0,3.47-46.4H76.62a69.08,69.08,0,0,0,3.47,46.4l8.35,18.59L15,208.58v27l6.27,10V463.47L15,477.8Z"/><path class="cls-2" d="M78.09,431.65H91.53v21h10.79V433h12.91v19.64h12.56V430.85h13.45v38.21H78.09Z"/><path class="cls-2" d="M78.09,399.1a22.85,22.85,0,0,1,1.24-8,13.11,13.11,0,0,1,8.84-8.4,23.23,23.23,0,0,1,6.72-.93q6.38,0,10.26,2.57t4.78,8.22h.17q.54-5.93,4.16-8.13t10-2.22h8c.88,0,1.72,0,2.52-.08a20.51,20.51,0,0,0,2.16-.27,5.88,5.88,0,0,0,1.51-.44c.35-.24.69-.47,1-.71a3.32,3.32,0,0,0,.93-1.15h.89v17.51a10.55,10.55,0,0,1-2.92.93,29.72,29.72,0,0,1-3.36.44c-1.12.09-2.2.15-3.23.18s-1.87.05-2.52.05H125a30.24,30.24,0,0,0-4.42.26,7.13,7.13,0,0,0-2.79.93,3.51,3.51,0,0,0-1.41,1.68,6.87,6.87,0,0,0-.4,2.52v4.33h25.3v16.46H78.09Zm26.71,6a6.33,6.33,0,0,0-2.08-5.22,8.4,8.4,0,0,0-5.44-1.68q-4,0-5.66,1.64t-1.68,5.35v3.18H104.8Z"/><path class="cls-2" d="M78.09,348.33a22.83,22.83,0,0,1,1.24-8,13.1,13.1,0,0,1,8.84-8.41,23.23,23.23,0,0,1,6.72-.93q6.38,0,10.26,2.57t4.78,8.23h.17q.54-5.93,4.16-8.14t10-2.21h8q1.32,0,2.52-.09a20.51,20.51,0,0,0,2.16-.27,5.5,5.5,0,0,0,1.51-.44c.35-.23.69-.47,1-.71a3.32,3.32,0,0,0,.93-1.15h.89V346.3a11.26,11.26,0,0,1-2.92.93c-1.12.2-2.24.35-3.36.44s-2.2.14-3.23.17-1.87.05-2.52.05H125a31.71,31.71,0,0,0-4.42.26,7.13,7.13,0,0,0-2.79.93,3.56,3.56,0,0,0-1.41,1.68,6.87,6.87,0,0,0-.4,2.52v4.34h25.3v16.45H78.09Zm26.71,6a6.32,6.32,0,0,0-2.08-5.21,8.4,8.4,0,0,0-5.44-1.68q-4,0-5.66,1.63c-1.12,1.09-1.68,2.88-1.68,5.35v3.19H104.8Z"/><path class="cls-2" d="M94.58,324a26.92,26.92,0,0,1-10.17-3.8,15.5,15.5,0,0,1-5.75-7,32,32,0,0,1,0-21.23,15.5,15.5,0,0,1,5.75-7,26.92,26.92,0,0,1,10.17-3.8,85.31,85.31,0,0,1,15.08-1.15,85.23,85.23,0,0,1,15.08,1.15,26.92,26.92,0,0,1,10.17,3.8,14.63,14.63,0,0,1,5.62,7,34.38,34.38,0,0,1,0,21.23,14.63,14.63,0,0,1-5.62,7,26.92,26.92,0,0,1-10.17,3.8,84.29,84.29,0,0,1-15.08,1.15A84.37,84.37,0,0,1,94.58,324Zm25.65-16a38.42,38.42,0,0,0,6.68-.75,6.46,6.46,0,0,0,3.45-1.68,5,5,0,0,0,0-5.93,6.61,6.61,0,0,0-3.45-1.68,38.42,38.42,0,0,0-6.68-.75Q116,297,109.66,297c-4.24,0-7.77.06-10.57.18a38.55,38.55,0,0,0-6.68.75A6.57,6.57,0,0,0,89,299.64a5,5,0,0,0,0,5.93,6.42,6.42,0,0,0,3.44,1.68,38.55,38.55,0,0,0,6.68.75c2.8.12,6.33.18,10.57.18S117.43,308.12,120.23,308Z"/><path class="cls-2" d="M78.09,248.39a22.85,22.85,0,0,1,1.24-8,13.11,13.11,0,0,1,8.84-8.4,23.23,23.23,0,0,1,6.72-.93q6.38,0,10.26,2.57t4.78,8.22h.17q.54-5.93,4.16-8.13t10-2.22h8c.88,0,1.72,0,2.52-.08a20.51,20.51,0,0,0,2.16-.27,5.88,5.88,0,0,0,1.51-.44c.35-.24.69-.47,1-.71a3.32,3.32,0,0,0,.93-1.15h.89v17.51a10.55,10.55,0,0,1-2.92.93,29.72,29.72,0,0,1-3.36.44c-1.12.09-2.2.15-3.23.18s-1.87,0-2.52,0H125a30.24,30.24,0,0,0-4.42.26,7.13,7.13,0,0,0-2.79.93,3.51,3.51,0,0,0-1.41,1.68,6.87,6.87,0,0,0-.4,2.52v4.33h25.3v16.46H78.09Zm26.71,6a6.33,6.33,0,0,0-2.08-5.22,8.4,8.4,0,0,0-5.44-1.68q-4,0-5.66,1.64t-1.68,5.35v3.18H104.8Z"/></g></g></svg>