<svg xmlns="http://www.w3.org/2000/svg" width="30" height="30" viewBox="0 0 30 30">
  <g id="ico_ttl_coupon" transform="translate(2827 -1497)">
    <g id="長方形_12402" data-name="長方形 12402" transform="translate(-2827 1497)" opacity="0">
      <rect id="長方形_12617" data-name="長方形 12617" width="30" height="30"/>
    </g>
    <g id="グループ_4391" data-name="グループ 4391" transform="translate(-2825 1498)">
      <path id="パス_3414" data-name="パス 3414" d="M-2689.536,1551.21l15.635-15.635,2.639,2.161s-1.172,2.089.155,3.416a4.446,4.446,0,0,0,4.045.89c.366-.212,2.11,2.169,2.11,2.169l-16.078,15.626-2.273-2.27s.635-2.457-.418-3.633-3-.6-3.509-.327S-2689.536,1551.21-2689.536,1551.21Z" transform="translate(2690.784 -1534.205)" fill="#a2adc1"/>
      <path id="パス_3415" data-name="パス 3415" d="M-2689.845,1552.054l11.7-11.7,8.765,8.843L-2681,1560.856l-2.459-2.391s1.078-2.684-.467-4.043-4.026-.14-4.026-.14Z" transform="translate(2690.83 -1534.909)" fill="#e33f62"/>
      <path id="coupon_2_" data-name="coupon (2)" d="M25.023,7.446a.718.718,0,0,0-.912-.086,1.875,1.875,0,0,1-2.6-2.607.718.718,0,0,0-.09-.906L18.674,1.1a.717.717,0,0,0-1.015,0L13.129,5.638l-.011.009-.009.011L1.133,17.666a.718.718,0,0,0,0,1.015L3.68,21.228a.718.718,0,0,0,.964.047,1.853,1.853,0,0,1,2.616,2.6.718.718,0,0,0,.042.97l2.887,2.887a.718.718,0,0,0,1.015,0l12-12,4.546-4.546a.718.718,0,0,0,0-1.015ZM10.7,26.213,8.734,24.251a3.313,3.313,0,0,0-.574-3.879A3.28,3.28,0,0,0,4.283,19.8L2.657,18.172l10.972-11,8.056,8.055Zm12-12L14.642,6.154,18.167,2.62,20.03,4.484a3.276,3.276,0,0,0,.7,3.66,3.31,3.31,0,0,0,3.662.7l1.841,1.841Z" transform="translate(-0.923 -0.886)" fill="#46172c"/>
    </g>
  </g>
</svg>
