<svg xmlns="http://www.w3.org/2000/svg" width="30" height="30" viewBox="0 0 30 30">
  <g id="ico_ttl_shop" transform="translate(2741.6 -1497)">
    <g id="長方形_12402" data-name="長方形 12402" transform="translate(-2741.6 1497)" opacity="0.004">
      <rect id="長方形_12617" data-name="長方形 12617" width="30" height="30"/>
    </g>
    <g id="グループ_4390" data-name="グループ 4390" transform="translate(14 -0.226)">
      <path id="パス_3409" data-name="パス 3409" d="M-2754,1506.332a36.771,36.771,0,0,0,2.011-5h18.028l1.853,5a3.281,3.281,0,0,1-1.222,3.677c-.047.4,0,12.362,0,12.362l-1.588.8h-16.631l-.44-1.511v-11.654S-2754.753,1507.524-2754,1506.332Z" transform="translate(2.13)" fill="#e8edf4"/>
      <rect id="長方形_12622" data-name="長方形 12622" width="5" height="9" transform="translate(-2743 1515)" fill="#e33f62"/>
      <path id="パス_3410" data-name="パス 3410" d="M-2752.118,1501.544h18.263l1.767,4.234h-21.635Z" transform="translate(1.723)" fill="#a2adc1"/>
      <path id="パス_3411" data-name="パス 3411" d="M-2754.13,1507.187s.7,2.893,2.9,2.991a4.251,4.251,0,0,0,3.386-1.407s.873,1.671,2.265,1.636,2.942-1.636,2.942-1.636a2.9,2.9,0,0,0,2.485,1.636,4.346,4.346,0,0,0,2.754-1.4s2.088,2.882,3.844,1.168a5.53,5.53,0,0,0,1.759-3.625h-22.331Z" transform="translate(2.13)" fill="#e33f62"/>
      <g id="shop_1_" data-name="shop (1)" transform="translate(-2753 1500.226)">
        <g id="グループ_4389" data-name="グループ 4389" transform="translate(0 0)">
          <path id="パス_3373" data-name="パス 3373" d="M24.326,5.818,22.585.6A.87.87,0,0,0,21.76,0H2.611a.87.87,0,0,0-.826.6L.044,5.818A.887.887,0,0,0,0,6.069v.894a4.334,4.334,0,0,0,1.741,3.462V21.76a2.611,2.611,0,0,0,2.611,2.611H20.019A2.611,2.611,0,0,0,22.63,21.76V10.425a4.334,4.334,0,0,0,1.741-3.462V6.069A.885.885,0,0,0,24.326,5.818ZM18.278,1.741h2.854l1.161,3.482H18.278Zm-5.222,0h3.482V5.222H13.056Zm-5.222,0h3.482V5.222H7.833Zm-4.595,0H6.093V5.222H2.078ZM13.926,22.63H10.445V15.667h3.482V22.63Zm6.963-.87a.87.87,0,0,1-.87.87H15.667V14.8a.87.87,0,0,0-.87-.87H9.574a.87.87,0,0,0-.87.87V22.63H4.352a.87.87,0,0,1-.87-.87V11.228a4.3,4.3,0,0,0,3.482-.8,4.411,4.411,0,0,0,5.222,0,4.411,4.411,0,0,0,5.222,0,4.3,4.3,0,0,0,3.482.8V21.76Zm-.87-12.185a2.572,2.572,0,0,1-1.956-.9.87.87,0,0,0-1.311,0,2.626,2.626,0,0,1-3.912,0,.9.9,0,0,0-1.272-.039l-.039.039a2.626,2.626,0,0,1-3.912,0,.9.9,0,0,0-1.272-.039l-.039.039a2.572,2.572,0,0,1-1.956.9A2.611,2.611,0,0,1,1.741,6.963H22.63A2.611,2.611,0,0,1,20.019,9.574Z" transform="translate(0 0)" fill="#46172c"/>
        </g>
      </g>
    </g>
  </g>
</svg>
