<svg id="レイヤー_2" data-name="レイヤー 2" xmlns="http://www.w3.org/2000/svg" width="30" height="30" viewBox="0 0 30 30">
  <g id="レイヤー_1" data-name="レイヤー 1">
    <g id="長方形_12402" data-name="長方形 12402" opacity="0">
      <rect id="長方形_12617" data-name="長方形 12617" width="30" height="30"/>
    </g>
    <circle id="楕円形_10" data-name="楕円形 10" cx="5.93" cy="5.93" r="5.93" transform="translate(9.24 4.21)" fill="#e8edf4"/>
    <path id="パス_3288" data-name="パス 3288" d="M3.9,27.4c5,.08,22.6,0,22.6,0S24.86,15.79,15.41,16.13,3.61,25.56,3.9,27.4Z" fill="#e33f62"/>
    <path id="パス_3282" data-name="パス 3282" d="M18.91,15.6a6.913,6.913,0,1,0-7.81,0A12.08,12.08,0,0,0,2.92,27a.94.94,0,0,0,.94.94H26.14a.94.94,0,0,0,.94-.94,12.08,12.08,0,0,0-8.17-11.4ZM10,9.9a5,5,0,1,1,5,5,5,5,0,0,1-5-5ZM4.84,26.08a10.2,10.2,0,0,1,20.32,0Z" fill="#46172c"/>
  </g>
</svg>
