<svg xmlns="http://www.w3.org/2000/svg" viewBox="0 0 30 30"><defs><style>.cls-1{opacity:0;}.cls-2{fill:#E8EDF4;}.cls-3{fill:#E33F62;}.cls-4{fill:#A2ADC1;}.cls-5{fill:#46172C;}</style></defs><title>ico_ttl_alert</title><g id="レイヤー_2" data-name="レイヤー 2"><g id="レイヤー_1-2" data-name="レイヤー 1"><g id="長方形_12575-3" data-name="長方形 12575-3" class="cls-1"><rect width="30" height="30"/></g><ellipse id="楕円形_13" data-name="楕円形 13" class="cls-2" cx="14.99" cy="5.87" rx="2.41" ry="2.32"/><ellipse id="楕円形_12" data-name="楕円形 12" class="cls-3" cx="14.99" cy="24.45" rx="2.41" ry="2.32"/><path id="パス_3344" data-name="パス 3344" class="cls-4" d="M4.52,23.19H26.15l-2.77-3s3-13-8.15-12.78S6.67,20.24,6.67,20.24Z"/><g id="notification"><path id="パス_3343" data-name="パス 3343" class="cls-5" d="M26.3,22.37l-2.42-2.55V15a8.87,8.87,0,0,0-5.32-8.12V6.13a3.55,3.55,0,0,0-7.1,0v.75A8.87,8.87,0,0,0,6.14,15v4.89L3.73,22.36a.9.9,0,0,0,0,1.26.91.91,0,0,0,.63.25h7.09a3.55,3.55,0,1,0,7.1,0h7.09a.88.88,0,0,0,.65-1.5ZM13.23,6.13a1.78,1.78,0,0,1,3.55,0ZM15,25.65a1.78,1.78,0,0,1-1.78-1.77h3.55A1.78,1.78,0,0,1,15,25.65Zm2.66-3.55H6.47l1.19-1.23a.81.81,0,0,0,.25-.62V15a7.1,7.1,0,1,1,14.2,0v5.17a.81.81,0,0,0,.24.61L23.6,22.1Z"/></g></g></g></svg>