<svg xmlns="http://www.w3.org/2000/svg" width="30" height="30.15" viewBox="0 0 30 30.15">
  <g id="グループ_4403" data-name="グループ 4403" transform="translate(2045 -17652.85)">
    <g id="長方形_12575-3" data-name="長方形 12575-3" transform="translate(-2045 17653)" opacity="0">
      <rect id="長方形_12638" data-name="長方形 12638" width="30" height="30"/>
    </g>
    <g id="グループ_4402" data-name="グループ 4402" transform="translate(-2042.273 17653)">
      <g id="長方形_12643" data-name="長方形 12643" transform="translate(8 1)" fill="#a2adc1" stroke="#a2adc1" stroke-width="1">
        <rect width="9" height="9" rx="2" stroke="none"/>
        <rect x="0.5" y="0.5" width="8" height="8" rx="1.5" fill="none"/>
      </g>
      <g id="グループ_4401" data-name="グループ 4401">
        <g id="stamp">
          <g id="グループ_4399" data-name="グループ 4399">
            <path id="パス_3422" data-name="パス 3422" d="M51.82,17.853H47.654v-.809A2.432,2.432,0,0,0,46.106,14.8a17.123,17.123,0,0,1,2.452-6.336,5.539,5.539,0,0,0,.763-2.8A5.853,5.853,0,0,0,37.762,4.555a5.542,5.542,0,0,0,.927,4.33A14.292,14.292,0,0,1,40.868,14.8a2.432,2.432,0,0,0-1.548,2.244v.809H35.154A4.112,4.112,0,0,0,30.987,21.9v1.672a.822.822,0,0,0,.833.809h.833v.809a2.467,2.467,0,0,0,2.5,2.427H51.82a2.467,2.467,0,0,0,2.5-2.427V24.38h.833a.822.822,0,0,0,.833-.809V21.9A4.112,4.112,0,0,0,51.82,17.853ZM40.059,7.963a3.974,3.974,0,0,1-.66-3.105,4.182,4.182,0,0,1,8.254.8,3.954,3.954,0,0,1-.544,2,18.681,18.681,0,0,0-2.662,6.954H42.526A15.88,15.88,0,0,0,40.059,7.963Zm5.928,9.081v.809h-5v-.809a.822.822,0,0,1,.833-.809h3.333A.822.822,0,0,1,45.987,17.044Zm6.667,8.145A.822.822,0,0,1,51.82,26H35.154a.822.822,0,0,1-.833-.809V24.38H52.654Zm1.667-2.427H32.654V21.9a2.467,2.467,0,0,1,2.5-2.427H51.82a2.467,2.467,0,0,1,2.5,2.427Z" transform="translate(-30.987 0)" fill="#46172c" stroke="#46172c" stroke-width="0.3"/>
          </g>
        </g>
        <g id="長方形_12639" data-name="長方形 12639" transform="translate(2 24)" fill="#fff" stroke="#e33f62" stroke-width="1">
          <rect width="21" height="2" stroke="none"/>
          <rect x="0.5" y="0.5" width="20" height="1" fill="none"/>
        </g>
        <g id="長方形_12640" data-name="長方形 12640" transform="translate(1 18.834)" fill="#a2adc1" stroke="#a2adc1" stroke-width="1">
          <rect width="23" height="4" stroke="none"/>
          <rect x="0.5" y="0.5" width="22" height="3" fill="none"/>
        </g>
        <g id="長方形_12641" data-name="長方形 12641" transform="translate(10 15.868)" fill="#a2adc1" stroke="#a2adc1" stroke-width="1">
          <rect width="5" height="3" stroke="none"/>
          <rect x="0.5" y="0.5" width="4" height="2" fill="none"/>
        </g>
        <g id="長方形_12642" data-name="長方形 12642" transform="translate(10 1)" fill="#a2adc1" stroke="#a2adc1" stroke-width="1">
          <rect width="5" height="15" rx="1" stroke="none"/>
          <rect x="0.5" y="0.5" width="4" height="14" rx="0.5" fill="none"/>
        </g>
        <g id="stamp-2" data-name="stamp">
          <g id="グループ_4399-2" data-name="グループ 4399">
            <path id="パス_3422-2" data-name="パス 3422" d="M51.82,17.853H47.654v-.809A2.432,2.432,0,0,0,46.106,14.8a17.123,17.123,0,0,1,2.452-6.336,5.539,5.539,0,0,0,.763-2.8A5.853,5.853,0,0,0,37.762,4.555a5.542,5.542,0,0,0,.927,4.33A14.292,14.292,0,0,1,40.868,14.8a2.432,2.432,0,0,0-1.548,2.244v.809H35.154A4.112,4.112,0,0,0,30.987,21.9v1.672a.822.822,0,0,0,.833.809h.833v.809a2.467,2.467,0,0,0,2.5,2.427H51.82a2.467,2.467,0,0,0,2.5-2.427V24.38h.833a.822.822,0,0,0,.833-.809V21.9A4.112,4.112,0,0,0,51.82,17.853ZM40.059,7.963a3.974,3.974,0,0,1-.66-3.105,4.182,4.182,0,0,1,8.254.8,3.954,3.954,0,0,1-.544,2,18.681,18.681,0,0,0-2.662,6.954H42.526A15.88,15.88,0,0,0,40.059,7.963Zm5.928,9.081v.809h-5v-.809a.822.822,0,0,1,.833-.809h3.333A.822.822,0,0,1,45.987,17.044Zm6.667,8.145A.822.822,0,0,1,51.82,26H35.154a.822.822,0,0,1-.833-.809V24.38H52.654Zm1.667-2.427H32.654V21.9a2.467,2.467,0,0,1,2.5-2.427H51.82a2.467,2.467,0,0,1,2.5,2.427Z" transform="translate(-30.987 0)" fill="#46172c" stroke="#46172c" stroke-width="0.3"/>
          </g>
        </g>
      </g>
    </g>
  </g>
</svg>
