<svg xmlns="http://www.w3.org/2000/svg" width="30" height="30" viewBox="0 0 30 30">
  <g id="グループ_4415" data-name="グループ 4415" transform="translate(2045 -17653)">
    <g id="長方形_12575-3" data-name="長方形 12575-3" transform="translate(-2045 17653)" opacity="0">
      <rect id="長方形_12638" data-name="長方形 12638" width="30" height="30"/>
    </g>
    <g id="グループ_4402" data-name="グループ 4402" transform="translate(-2042.273 17654)">
      <g id="グループ_4401" data-name="グループ 4401">
        <g id="stamp">
          <g id="グループ_4399" data-name="グループ 4399">
            <path id="パス_3422" data-name="パス 3422" d="M51.82,17.853H47.654v-.809A2.432,2.432,0,0,0,46.106,14.8a17.123,17.123,0,0,1,2.452-6.336,5.539,5.539,0,0,0,.763-2.8A5.853,5.853,0,0,0,37.762,4.555a5.542,5.542,0,0,0,.927,4.33A14.292,14.292,0,0,1,40.868,14.8a2.432,2.432,0,0,0-1.548,2.244v.809H35.154A4.112,4.112,0,0,0,30.987,21.9v1.672a.822.822,0,0,0,.833.809h.833v.809a2.467,2.467,0,0,0,2.5,2.427H51.82a2.467,2.467,0,0,0,2.5-2.427V24.38h.833a.822.822,0,0,0,.833-.809V21.9A4.112,4.112,0,0,0,51.82,17.853ZM40.059,7.963a3.974,3.974,0,0,1-.66-3.105,4.182,4.182,0,0,1,8.254.8,3.954,3.954,0,0,1-.544,2,18.681,18.681,0,0,0-2.662,6.954H42.526A15.88,15.88,0,0,0,40.059,7.963Zm5.928,9.081v.809h-5v-.809a.822.822,0,0,1,.833-.809h3.333A.822.822,0,0,1,45.987,17.044Zm6.667,8.145A.822.822,0,0,1,51.82,26H35.154a.822.822,0,0,1-.833-.809V24.38H52.654Zm1.667-2.427H32.654V21.9a2.467,2.467,0,0,1,2.5-2.427H51.82a2.467,2.467,0,0,1,2.5,2.427Z" transform="translate(-30.987 0)" fill="#a2adc1" stroke="#a2adc1" stroke-width="0.1"/>
          </g>
        </g>
      </g>
    </g>
  </g>
</svg>
