<svg xmlns="http://www.w3.org/2000/svg" viewBox="0 0 30 30"><defs><style>.cls-1{opacity:0;}.cls-2{fill:#e8edf4;}.cls-3{fill:#00a199;}.cls-4{fill:#a2adc1;}.cls-5{fill:#311905;}</style></defs><title>ico_ttl_sale</title><g id="レイヤー_2" data-name="レイヤー 2"><g id="レイヤー_1-2" data-name="レイヤー 1"><g id="長方形_12403-2" data-name="長方形 12403-2" class="cls-1"><rect width="30" height="30"/></g><path id="パス_3290" data-name="パス 3290" class="cls-2" d="M8.66,8.22C8.28,6.36,7.56,3.6,7.56,3.6h3.16S11.55,1.67,12,1.83A10.73,10.73,0,0,1,13.71,3.6h3L15.09,8.22l1.64,1.26L15.9,12l3.38,2.48V25.66s-4.47,1.83-8,1.41-8.77-.77-8.8-5.25.72-7.34,6.17-10.33C7.34,10.14,6.43,9.18,8.66,8.22Z"/><rect id="長方形_12601" data-name="長方形 12601" class="cls-3" x="7.64" y="8.19" width="9.02" height="3.28"/><rect class="cls-4" x="18.62" y="15" width="8.85" height="12.4"/><g id="money-bag"><path id="パス_16" data-name="パス 16" class="cls-5" d="M11.92,22.09a.79.79,0,0,1-.79-.79.79.79,0,1,0-1.57,0h0a2.37,2.37,0,0,0,1.58,2.24v.69a.79.79,0,0,0,1.58,0h0v-.7a2.37,2.37,0,0,0-.8-4.6.79.79,0,1,1,.79-.78h0a.79.79,0,0,0,1.58,0h0a2.37,2.37,0,0,0-1.57-2.23V14.76a.79.79,0,0,0-.79-.79.8.8,0,0,0-.79.79v1.15a2.37,2.37,0,0,0,.78,4.6.79.79,0,0,1,0,1.58Z"/><path id="パス_17" data-name="パス 17" class="cls-5" d="M4.84,26.88a15.14,15.14,0,0,0,7.09,1.28A17.41,17.41,0,0,0,18,27.32a2.37,2.37,0,0,0,1.81.84h6.36a2.36,2.36,0,0,0,2.36-2.36,2.31,2.31,0,0,0-.6-1.58,2.36,2.36,0,0,0,0-3.16,2.35,2.35,0,0,0,0-3.15A2.37,2.37,0,0,0,26.18,14H19.82a.86.86,0,0,0-.23,0,10.76,10.76,0,0,0-2.74-2.38,2.36,2.36,0,0,0-.19-3.34,2.27,2.27,0,0,0-.56-.37l1.31-4a.79.79,0,0,0-.5-1,1,1,0,0,0-.25,0h-2.5a2.37,2.37,0,0,0-4.46,0H7.2a.8.8,0,0,0-.79.79,1.09,1.09,0,0,0,0,.25l1.31,4A2.36,2.36,0,0,0,6.64,11a2.15,2.15,0,0,0,.37.57,11.25,11.25,0,0,0-5.39,9.46A6.09,6.09,0,0,0,4.84,26.88ZM27,19.49a.8.8,0,0,1-.79.79H19.82a.79.79,0,0,1,0-1.58h6.36a.79.79,0,0,1,.79.79h0Zm0,3.15a.8.8,0,0,1-.79.79H19.82a.79.79,0,0,1,0-1.58h6.36a.8.8,0,0,1,.79.79h0Zm-.79,3.95H19.82a.79.79,0,0,1,0-1.58h6.36a.79.79,0,0,1,0,1.58ZM27,16.34a.81.81,0,0,1-.79.79H19.82a.79.79,0,0,1,0-1.58h6.36a.79.79,0,0,1,.79.79ZM15.06,10.82H8.77a.79.79,0,0,1,0-1.58h6.32a.79.79,0,0,1,0,1.58ZM10.35,4.4a.78.78,0,0,0,.79-.78h0a.79.79,0,1,1,1.58,0V5.19a.79.79,0,0,0,1.58,0V4.4h1.27L14.51,7.66H9.35L8.28,4.4Zm-1.42,8h6a9,9,0,0,1,3.19,2.29,2.38,2.38,0,0,0-.07,3.23,2.37,2.37,0,0,0,0,3.15,2.38,2.38,0,0,0,0,3.16,2.38,2.38,0,0,0-.6,1.57v.05a15.88,15.88,0,0,1-5.52.74,13.58,13.58,0,0,1-6.35-1.1A4.49,4.49,0,0,1,3.2,21.07,9.58,9.58,0,0,1,8.93,12.4Z"/></g></g></g></svg>