<svg xmlns="http://www.w3.org/2000/svg" viewBox="0 0 30 30"><defs><style>.cls-1{opacity:0;}.cls-2{fill:#a2adc1;}</style></defs><title>ico_ttl_user_gray</title><g id="レイヤー_2" data-name="レイヤー 2"><g id="レイヤー_1-2" data-name="レイヤー 1"><g id="長方形_12402" data-name="長方形 12402" class="cls-1"><rect width="30" height="30"/></g><path id="パス_3282" data-name="パス 3282" class="cls-2" d="M18.91,15.6A6.91,6.91,0,1,0,9.3,13.8a6.85,6.85,0,0,0,1.8,1.8A12.08,12.08,0,0,0,2.92,27a.94.94,0,0,0,.94.94H26.14a.94.94,0,0,0,.94-.94A12.08,12.08,0,0,0,18.91,15.6ZM10,9.9a5,5,0,1,1,5,5A5,5,0,0,1,10,9.9ZM4.84,26.08a10.2,10.2,0,0,1,20.32,0Z"/></g></g></svg>