<svg xmlns="http://www.w3.org/2000/svg" width="30" height="30" viewBox="0 0 30 30">
  <g id="ico_ttl_product_gray" transform="translate(2790 -1436)">
    <g id="長方形_12402" data-name="長方形 12402" transform="translate(-2790 1436)" opacity="0">
      <rect id="長方形_12617" data-name="長方形 12617" width="30" height="30"/>
    </g>
    <g id="food-and-restaurant" transform="translate(-2834.171 1438)">
      <g id="グループ_4330" data-name="グループ 4330" transform="translate(48.171)">
        <path id="パス_3404" data-name="パス 3404" d="M68.08,8.167A8.613,8.613,0,0,0,65.311,5.89a3.774,3.774,0,0,0-2.717-2.362,2.624,2.624,0,0,1,.125-.462A2.62,2.62,0,0,1,64.6,1.49L64.175,0a4.11,4.11,0,0,0-2.908,2.521,4.222,4.222,0,0,0-.239.995,3.766,3.766,0,0,0-3,3.6l-9.858,5.336V26.449H69.643V12.918A7.531,7.531,0,0,0,68.08,8.167ZM61.786,4.989a2.21,2.21,0,1,1-2.21,2.21A2.212,2.212,0,0,1,61.786,4.989ZM58.345,8.711a3.759,3.759,0,0,0,7.148-.887,5.97,5.97,0,0,1,2.559,4.318H52.007ZM68.093,24.9H49.721V22.009H68.093Zm0-4.441H49.721V18.064H68.093Zm0-3.945H49.721V13.693H68.093Z" transform="translate(-48.171)" fill="#a2adc1"/>
      </g>
    </g>
  </g>
</svg>
