<svg xmlns="http://www.w3.org/2000/svg" width="40" height="40" viewBox="0 0 40 40">
  <g id="size" transform="translate(0 -0.001)">
    <path id="パス_1136" data-name="パス 1136" d="M7.5,5a.837.837,0,0,1-.59-.243L4.166,2.011,1.423,4.756A.833.833,0,1,1,.245,3.578L3.578.245a.834.834,0,0,1,1.178,0L8.09,3.578A.833.833,0,0,1,7.5,5Z" transform="translate(0.001 0)" fill="#91a6be"/>
    <path id="パス_1137" data-name="パス 1137" d="M21.834,27.332a.833.833,0,0,1-.59-1.422l2.743-2.743-2.743-2.743a.833.833,0,0,1,1.178-1.178l3.333,3.333a.834.834,0,0,1,0,1.178l-3.333,3.333A.836.836,0,0,1,21.834,27.332Z" transform="translate(14.001 12.668)" fill="#91a6be"/>
    <path id="パス_1138" data-name="パス 1138" d="M2.833,39.835A.834.834,0,0,1,2,39V1.083a.833.833,0,1,1,1.667,0V39A.834.834,0,0,1,2.833,39.835Z" transform="translate(1.333 0.166)" fill="#91a6be"/>
    <path id="パス_1139" data-name="パス 1139" d="M38.751,22.667H.833A.833.833,0,1,1,.833,21H38.751a.833.833,0,1,1,0,1.667Z" transform="translate(0 14.001)" fill="#91a6be"/>
    <path id="パス_1140" data-name="パス 1140" d="M17.667,14a.846.846,0,0,1-.3-.055L6.533,9.779a.835.835,0,0,1,0-1.557L17.367,4.055a.841.841,0,0,1,.6,0L28.8,8.222a.834.834,0,0,1,0,1.557L17.967,13.945A.846.846,0,0,1,17.667,14ZM9.155,9l8.512,3.273L26.179,9,17.667,5.727Z" transform="translate(4 2.666)" fill="#91a6be"/>
    <path id="パス_1141" data-name="パス 1141" d="M17.667,25.667a.846.846,0,0,1-.3-.055L6.533,21.445A.833.833,0,0,1,6,20.667V7.333a.833.833,0,1,1,1.667,0V20.1l10,3.847,10-3.847V7.333a.833.833,0,1,1,1.667,0V20.667a.833.833,0,0,1-.533.778L17.967,25.612A.846.846,0,0,1,17.667,25.667Z" transform="translate(4 4.333)" fill="#91a6be"/>
    <path id="パス_1142" data-name="パス 1142" d="M13.333,24a.834.834,0,0,1-.833-.833V9.833a.833.833,0,0,1,1.667,0V23.167A.834.834,0,0,1,13.333,24Z" transform="translate(8.334 6)" fill="#91a6be"/>
  </g>
</svg>
