<svg xmlns="http://www.w3.org/2000/svg" width="320" height="320" viewBox="0 0 320 320">
  <g id="グループ_7" data-name="グループ 7" transform="translate(-600 -2801)">
    <g id="グループ_5" data-name="グループ 5" transform="translate(600 2801)">
      <rect id="長方形_2" data-name="長方形 2" width="320" height="320" fill="#e6e9f1"/>
      <g id="グループ_4" data-name="グループ 4" transform="translate(60 141)">
        <g id="レイヤー_2" data-name="レイヤー 2">
          <g id="レイヤー_2-2" data-name="レイヤー 2">
            <path id="パス_4" data-name="パス 4" d="M27.236,8.46a2.4,2.4,0,0,0-1.775.74,2.521,2.521,0,0,0,0,3.542h0a2.366,2.366,0,0,0,1.775.735,2.47,2.47,0,0,0,1.758-.74,2.611,2.611,0,0,0,0-3.542A2.47,2.47,0,0,0,27.236,8.46Z" transform="translate(-6.447 -2.205)" fill="#fff"/>
            <path id="パス_5" data-name="パス 5" d="M17.007,23.979c0,6.174-1.917,9.294-5.76,9.294a4.488,4.488,0,0,1-3.32-1.118c-1.6-1.48-2.411-4.282-2.411-8.2V0H0V23.943c0,5.346,1.331,9.267,4.007,11.734a10.352,10.352,0,0,0,7.24,2.625,10.529,10.529,0,0,0,7.3-2.625c2.676-2.462,4.06-6.345,4.06-11.734V23.2H17.748Z" fill="#fff"/>
            <path id="パス_6" data-name="パス 6" d="M18.6,13.464A2.507,2.507,0,1,0,16.847,9.19a2.611,2.611,0,0,0,0,3.542,2.47,2.47,0,0,0,1.758.732Z" transform="translate(-4.209 -2.201)" fill="#fff"/>
            <path id="パス_7" data-name="パス 7" d="M48.435,12.861l-.864-.081v4.961l.6.089a7.669,7.669,0,0,1,5.693,3.49A12.273,12.273,0,0,1,55.2,27.671a8.716,8.716,0,0,1-2.285,6.463A8.546,8.546,0,0,1,46.575,36.3H45.84v4.865h.735a14.553,14.553,0,0,0,9.617-3.108,12.648,12.648,0,0,0,4.3-10.4c0-5.472-1.48-9.406-4.362-11.772a13.741,13.741,0,0,0-7.7-3.025Z" transform="translate(-11.945 -3.331)" fill="#fff"/>
            <path id="パス_8" data-name="パス 8" d="M71.582,16.23a2.3,2.3,0,0,0,1.767-.74,2.5,2.5,0,1,0-3.5-3.571h-.045a2.625,2.625,0,0,0,0,3.542A2.3,2.3,0,0,0,71.582,16.23Z" transform="translate(-18.012 -2.919)" fill="#fff"/>
            <rect id="長方形_13" data-name="長方形 13" width="15.054" height="5.043" transform="translate(32.601 0.909)" fill="#fff"/>
            <rect id="長方形_14" data-name="長方形 14" width="5.56" height="17.17" transform="translate(51.627 16.045)" fill="#fff"/>
            <rect id="長方形_15" data-name="長方形 15" width="5.524" height="17.17" transform="translate(25.791 16.045)" fill="#fff"/>
            <path id="パス_9" data-name="パス 9" d="M71.582,7.651h0a2.454,2.454,0,0,0,1.767-.74,2.6,2.6,0,0,0,.74-1.812,2.5,2.5,0,0,0-.74-1.767A2.454,2.454,0,0,0,69.12,5.107a2.5,2.5,0,0,0,2.462,2.544Z" transform="translate(-18.01 -0.671)" fill="#fff"/>
            <path id="パス_10" data-name="パス 10" d="M87.75,18.079H92.4a2.751,2.751,0,0,1,1.679.6,2.026,2.026,0,0,1,.7,1.6V37.532h10.937v-5h-5.385V20.276A6.655,6.655,0,0,0,98.035,15.1,8.037,8.037,0,0,0,92.4,13.073H87.744V0H82.19V37.533h5.56Z" transform="translate(-21.417)" fill="#fff"/>
            <path id="パス_11" data-name="パス 11" d="M122.862,35.189a7.017,7.017,0,0,0,4.437-1.612v1.382H132V7.52h-4.7v9.117a6.87,6.87,0,0,0-4.437-1.694,6.567,6.567,0,0,0-5.383,2.633c-1.168,1.48-1.48,2.9-1.48,7.476s.267,6,1.438,7.51a6.551,6.551,0,0,0,5.424,2.627Zm1.162-15.527c3.025,0,3.275,2.556,3.275,5.413s-.251,5.432-3.275,5.432-3.312-2.358-3.312-5.432.236-5.432,3.312-5.432Z" transform="translate(-30.227 -1.96)" fill="#fff"/>
            <path id="パス_12" data-name="パス 12" d="M148.725,37.819A9.206,9.206,0,0,0,155.9,34.6l.3-.332-3.424-2.913-.3.3a5.405,5.405,0,0,1-3.815,1.694,3.7,3.7,0,0,1-4.03-3.416,2.655,2.655,0,0,1,0-.34h11.76V26.032A8.134,8.134,0,0,0,148.5,17.61H148.1c-3.978,0-8.237,2.684-8.237,10.183C139.89,36.51,145.434,37.819,148.725,37.819ZM148.1,22.047h0a3.453,3.453,0,0,1,3.515,3.506h-6.992a3.414,3.414,0,0,1,3.475-3.506Z" transform="translate(-36.443 -4.588)" fill="#fff"/>
            <path id="パス_13" data-name="パス 13" d="M190.871,32.866h-9.107V10.179h9.107V3.788H167.01v6.391h9.058V32.868H167.01v6.391h23.861Z" transform="translate(-43.518 -0.989)" fill="#fff"/>
            <path id="パス_14" data-name="パス 14" d="M202.816,36.138,206.97,39.1a.54.54,0,0,0,.281.081.5.5,0,0,0,.289-.1A45.344,45.344,0,0,0,217.575,27.7a100.91,100.91,0,0,1,5.912,11.039.479.479,0,0,0,.622.208l5.079-2.285a.428.428,0,0,0,.222-.244.363.363,0,0,0,0-.32c-2.218-4.066-5.383-9.2-8.717-14.131,2.433-5,4.074-11.927,5.833-18.656.045-.177-22.62-.1-22.62-.1a.436.436,0,0,0-.451.422V7.774a.436.436,0,0,0,.451.422h15.158c-2.181,11.151-8.526,21.821-16.267,27.269a.407.407,0,0,0-.118.562.555.555,0,0,0,.137.11Z" transform="translate(-52.794 -0.831)" fill="#fff"/>
            <path id="パス_15" data-name="パス 15" d="M249.056,30.253a7.113,7.113,0,0,1-1.849,4.828,5.776,5.776,0,0,1-4.437,2.026h-2.218V43.5h2.218a10.921,10.921,0,0,0,8.412-3.887,13.421,13.421,0,0,0,3.483-9.353V26.423h7.395V20.07H238.4v6.345h10.656Z" transform="translate(-62.121 -5.23)" fill="#fff"/>
            <rect id="長方形_16" data-name="長方形 16" width="23.721" height="6.382" transform="translate(176.279 2.802)" fill="#fff"/>
          </g>
        </g>
      </g>
    </g>
  </g>
</svg>
