<svg id="グループ_9" data-name="グループ 9" xmlns="http://www.w3.org/2000/svg" width="320" height="180" viewBox="0 0 320 180">
  <rect id="長方形_2" data-name="長方形 2" width="320" height="180" fill="#eadadb"/>
  <rect id="長方形_20" data-name="長方形 20" width="160" height="180" transform="translate(160)" fill="#dadee3"/>
  <g id="レイヤー_2" data-name="レイヤー 2" transform="translate(187.844 64)">
    <g id="レイヤー_2-2" data-name="レイヤー 2">
      <path id="パス_4" data-name="パス 4" d="M26.042,8.46a1.25,1.25,0,0,0-.926.386,1.315,1.315,0,0,0,0,1.847h0a1.234,1.234,0,0,0,.926.386,1.288,1.288,0,0,0,.918-.386,1.361,1.361,0,0,0,0-1.847A1.288,1.288,0,0,0,26.042,8.46Z" transform="translate(-15.197 -5.197)" fill="#fff"/>
      <path id="パス_5" data-name="パス 5" d="M8.87,12.507c0,3.22-1,4.848-3,4.848a2.341,2.341,0,0,1-1.732-.582C3.3,16,2.877,14.539,2.877,12.5V0H0V12.487c0,2.788.694,4.836,2.09,6.12a5.4,5.4,0,0,0,3.776,1.369,5.492,5.492,0,0,0,3.806-1.369c1.4-1.284,2.117-3.309,2.117-6.12V12.1H9.256Z" fill="#fff"/>
      <path id="パス_6" data-name="パス 6" d="M17.432,11.065a1.307,1.307,0,1,0-.918-2.229,1.361,1.361,0,0,0,0,1.847A1.288,1.288,0,0,0,17.432,11.065Z" transform="translate(-9.924 -5.191)" fill="#fff"/>
      <path id="パス_7" data-name="パス 7" d="M47.194,12.822l-.451-.042v2.588l.312.046a4,4,0,0,1,2.97,1.82,6.4,6.4,0,0,1,.7,3.309,4.546,4.546,0,0,1-1.192,3.371,4.457,4.457,0,0,1-3.305,1.13H45.84v2.538h.386a7.59,7.59,0,0,0,5.014-1.62,6.6,6.6,0,0,0,2.245-5.422c0-2.854-.771-4.906-2.275-6.14a7.169,7.169,0,0,0-4.015-1.577Z" transform="translate(-28.162 -7.851)" fill="#fff"/>
      <path id="パス_8" data-name="パス 8" d="M70.4,13.825a1.2,1.2,0,0,0,.922-.386A1.3,1.3,0,1,0,69.5,11.577h-.023a1.369,1.369,0,0,0,0,1.847A1.2,1.2,0,0,0,70.4,13.825Z" transform="translate(-42.464 -6.884)" fill="#fff"/>
      <rect id="長方形_13" data-name="長方形 13" width="7.852" height="2.63" transform="translate(17.003 0.474)" fill="#fff"/>
      <rect id="長方形_14" data-name="長方形 14" width="2.9" height="8.955" transform="translate(26.926 8.369)" fill="#fff"/>
      <rect id="長方形_15" data-name="長方形 15" width="2.881" height="8.955" transform="translate(13.452 8.369)" fill="#fff"/>
      <path id="パス_9" data-name="パス 9" d="M70.4,5.221h0a1.28,1.28,0,0,0,.922-.386,1.358,1.358,0,0,0,.386-.945,1.3,1.3,0,0,0-.386-.922,1.28,1.28,0,0,0-2.206.926A1.3,1.3,0,0,0,70.4,5.221Z" transform="translate(-42.463 -1.58)" fill="#fff"/>
      <path id="パス_10" data-name="パス 10" d="M85.09,9.429h2.426a1.435,1.435,0,0,1,.875.312,1.057,1.057,0,0,1,.363.833v9h5.7V16.969H91.65V10.575a3.471,3.471,0,0,0-1.2-2.7,4.192,4.192,0,0,0-2.939-1.057h-2.43V0h-2.9V19.576h2.9Z" transform="translate(-50.493)" fill="#fff"/>
      <path id="パス_11" data-name="パス 11" d="M119.579,21.951a3.66,3.66,0,0,0,2.314-.841v.721h2.453V7.52h-2.453v4.755a3.587,3.587,0,0,0-2.314-.883,3.425,3.425,0,0,0-2.808,1.373c-.609.771-.771,1.512-.771,3.9s.139,3.132.748,3.914A3.417,3.417,0,0,0,119.579,21.951Zm.605-8.1c1.577,0,1.708,1.334,1.708,2.823s-.131,2.835-1.708,2.835-1.728-1.23-1.728-2.835.123-2.835,1.728-2.835Z" transform="translate(-71.264 -4.62)" fill="#fff"/>
      <path id="パス_12" data-name="パス 12" d="M144.484,28.15a4.8,4.8,0,0,0,3.741-1.678l.154-.174-1.786-1.519-.158.154a2.819,2.819,0,0,1-1.99.883,1.928,1.928,0,0,1-2.1-1.782,1.388,1.388,0,0,1,0-.177h6.132V22a4.242,4.242,0,0,0-4.107-4.393h-.212c-2.075,0-4.3,1.4-4.3,5.31C139.875,27.467,142.768,28.15,144.484,28.15Zm-.328-8.226h0a1.8,1.8,0,0,1,1.832,1.828h-3.644A1.781,1.781,0,0,1,144.156,19.924Z" transform="translate(-85.923 -10.819)" fill="#fff"/>
      <path id="パス_13" data-name="パス 13" d="M179.455,18.954H174.7V7.122h4.751V3.79H167.01V7.122h4.724V18.954H167.01v3.332h12.445Z" transform="translate(-102.602 -2.328)" fill="#fff"/>
      <path id="パス_14" data-name="パス 14" d="M202.719,20.378l2.163,1.543a.282.282,0,0,0,.147.042.258.258,0,0,0,.15-.054,23.649,23.649,0,0,0,5.233-5.931,52.63,52.63,0,0,1,3.085,5.758.247.247,0,0,0,.324.108l2.649-1.192a.224.224,0,0,0,.116-.127.189.189,0,0,0,0-.17c-1.157-2.121-2.808-4.8-4.547-7.37a57.263,57.263,0,0,0,3.043-9.73c.023-.093-11.8-.05-11.8-.05a.228.228,0,0,0-.235.22v2.16a.228.228,0,0,0,.235.22h7.906c-1.138,5.816-4.447,11.381-8.484,14.223a.212.212,0,0,0-.062.293A.289.289,0,0,0,202.719,20.378Z" transform="translate(-124.473 -1.963)" fill="#fff"/>
      <path id="パス_15" data-name="パス 15" d="M243.957,25.38a3.71,3.71,0,0,1-.964,2.518,3.012,3.012,0,0,1-2.314,1.057h-1.157v3.332h1.157a5.7,5.7,0,0,0,4.389-2.029,7,7,0,0,0,1.816-4.879v-2h3.857V20.07H238.4v3.309h5.557Z" transform="translate(-146.46 -12.33)" fill="#fff"/>
      <rect id="長方形_16" data-name="長方形 16" width="12.372" height="3.328" transform="translate(91.94 1.462)" fill="#fff"/>
    </g>
  </g>
  <g id="レイヤー_2-3" data-name="レイヤー 2" transform="translate(27.788 64)">
    <g id="レイヤー_2-4" data-name="レイヤー 2">
      <path id="パス_4-2" data-name="パス 4" d="M26.042,8.46a1.25,1.25,0,0,0-.926.386,1.315,1.315,0,0,0,0,1.847h0a1.234,1.234,0,0,0,.926.386,1.288,1.288,0,0,0,.918-.386,1.361,1.361,0,0,0,0-1.847A1.288,1.288,0,0,0,26.042,8.46Z" transform="translate(-15.197 -5.197)" fill="#fff"/>
      <path id="パス_5-2" data-name="パス 5" d="M8.87,12.507c0,3.22-1,4.848-3,4.848a2.341,2.341,0,0,1-1.732-.582C3.3,16,2.877,14.539,2.877,12.5V0H0V12.487c0,2.788.694,4.836,2.09,6.12a5.4,5.4,0,0,0,3.776,1.369,5.492,5.492,0,0,0,3.806-1.369c1.4-1.284,2.117-3.309,2.117-6.12V12.1H9.256Z" fill="#fff"/>
      <path id="パス_6-2" data-name="パス 6" d="M17.432,11.065a1.307,1.307,0,1,0-.918-2.229,1.361,1.361,0,0,0,0,1.847A1.288,1.288,0,0,0,17.432,11.065Z" transform="translate(-9.924 -5.191)" fill="#fff"/>
      <path id="パス_7-2" data-name="パス 7" d="M47.194,12.822l-.451-.042v2.588l.312.046a4,4,0,0,1,2.97,1.82,6.4,6.4,0,0,1,.7,3.309,4.546,4.546,0,0,1-1.192,3.371,4.457,4.457,0,0,1-3.305,1.13H45.84v2.538h.386a7.59,7.59,0,0,0,5.014-1.62,6.6,6.6,0,0,0,2.245-5.422c0-2.854-.771-4.906-2.275-6.14a7.169,7.169,0,0,0-4.015-1.577Z" transform="translate(-28.162 -7.851)" fill="#fff"/>
      <path id="パス_8-2" data-name="パス 8" d="M70.4,13.825a1.2,1.2,0,0,0,.922-.386A1.3,1.3,0,1,0,69.5,11.577h-.023a1.369,1.369,0,0,0,0,1.847A1.2,1.2,0,0,0,70.4,13.825Z" transform="translate(-42.464 -6.884)" fill="#fff"/>
      <rect id="長方形_13-2" data-name="長方形 13" width="7.852" height="2.63" transform="translate(17.003 0.474)" fill="#fff"/>
      <rect id="長方形_14-2" data-name="長方形 14" width="2.9" height="8.955" transform="translate(26.926 8.369)" fill="#fff"/>
      <rect id="長方形_15-2" data-name="長方形 15" width="2.881" height="8.955" transform="translate(13.452 8.369)" fill="#fff"/>
      <path id="パス_9-2" data-name="パス 9" d="M70.4,5.221h0a1.28,1.28,0,0,0,.922-.386,1.358,1.358,0,0,0,.386-.945,1.3,1.3,0,0,0-.386-.922,1.28,1.28,0,0,0-2.206.926A1.3,1.3,0,0,0,70.4,5.221Z" transform="translate(-42.463 -1.58)" fill="#fff"/>
      <path id="パス_10-2" data-name="パス 10" d="M85.09,9.429h2.426a1.435,1.435,0,0,1,.875.312,1.057,1.057,0,0,1,.363.833v9h5.7V16.969H91.65V10.575a3.471,3.471,0,0,0-1.2-2.7,4.192,4.192,0,0,0-2.939-1.057h-2.43V0h-2.9V19.576h2.9Z" transform="translate(-50.493)" fill="#fff"/>
      <path id="パス_11-2" data-name="パス 11" d="M119.579,21.951a3.66,3.66,0,0,0,2.314-.841v.721h2.453V7.52h-2.453v4.755a3.587,3.587,0,0,0-2.314-.883,3.425,3.425,0,0,0-2.808,1.373c-.609.771-.771,1.512-.771,3.9s.139,3.132.748,3.914A3.417,3.417,0,0,0,119.579,21.951Zm.605-8.1c1.577,0,1.708,1.334,1.708,2.823s-.131,2.835-1.708,2.835-1.728-1.23-1.728-2.835.123-2.835,1.728-2.835Z" transform="translate(-71.264 -4.62)" fill="#fff"/>
      <path id="パス_12-2" data-name="パス 12" d="M144.484,28.15a4.8,4.8,0,0,0,3.741-1.678l.154-.174-1.786-1.519-.158.154a2.819,2.819,0,0,1-1.99.883,1.928,1.928,0,0,1-2.1-1.782,1.388,1.388,0,0,1,0-.177h6.132V22a4.242,4.242,0,0,0-4.107-4.393h-.212c-2.075,0-4.3,1.4-4.3,5.31C139.875,27.467,142.768,28.15,144.484,28.15Zm-.328-8.226h0a1.8,1.8,0,0,1,1.832,1.828h-3.644A1.781,1.781,0,0,1,144.156,19.924Z" transform="translate(-85.923 -10.819)" fill="#fff"/>
      <path id="パス_13-2" data-name="パス 13" d="M179.455,18.954H174.7V7.122h4.751V3.79H167.01V7.122h4.724V18.954H167.01v3.332h12.445Z" transform="translate(-102.602 -2.328)" fill="#fff"/>
      <path id="パス_14-2" data-name="パス 14" d="M202.719,20.378l2.163,1.543a.282.282,0,0,0,.147.042.258.258,0,0,0,.15-.054,23.649,23.649,0,0,0,5.233-5.931,52.63,52.63,0,0,1,3.085,5.758.247.247,0,0,0,.324.108l2.649-1.192a.224.224,0,0,0,.116-.127.189.189,0,0,0,0-.17c-1.157-2.121-2.808-4.8-4.547-7.37a57.263,57.263,0,0,0,3.043-9.73c.023-.093-11.8-.05-11.8-.05a.228.228,0,0,0-.235.22v2.16a.228.228,0,0,0,.235.22h7.906c-1.138,5.816-4.447,11.381-8.484,14.223a.212.212,0,0,0-.062.293A.289.289,0,0,0,202.719,20.378Z" transform="translate(-124.473 -1.963)" fill="#fff"/>
      <path id="パス_15-2" data-name="パス 15" d="M243.957,25.38a3.71,3.71,0,0,1-.964,2.518,3.012,3.012,0,0,1-2.314,1.057h-1.157v3.332h1.157a5.7,5.7,0,0,0,4.389-2.029,7,7,0,0,0,1.816-4.879v-2h3.857V20.07H238.4v3.309h5.557Z" transform="translate(-146.46 -12.33)" fill="#fff"/>
      <rect id="長方形_16-2" data-name="長方形 16" width="12.372" height="3.328" transform="translate(91.94 1.462)" fill="#fff"/>
    </g>
  </g>
  <path id="パス_18" data-name="パス 18" d="M-24.4-11.2h2.08v9.44h5.856V0H-24.4Zm12.736,2.56a4.166,4.166,0,0,1,2.888.9,3.494,3.494,0,0,1,1,2.728V0H-9.664V-1.04a2.327,2.327,0,0,1-1.048.856,4.1,4.1,0,0,1-1.64.3,4.018,4.018,0,0,1-1.68-.328,2.6,2.6,0,0,1-1.112-.912,2.314,2.314,0,0,1-.392-1.32A2.262,2.262,0,0,1-14.68-4.3a4.251,4.251,0,0,1,2.7-.7h2.208V-5.12A1.751,1.751,0,0,0-10.312-6.5a2.319,2.319,0,0,0-1.592-.48,4.6,4.6,0,0,0-1.416.224,3.479,3.479,0,0,0-1.176.624l-.784-1.456a4.855,4.855,0,0,1,1.616-.784A7.19,7.19,0,0,1-11.664-8.64Zm-.272,7.3A2.582,2.582,0,0,0-10.6-1.688a1.872,1.872,0,0,0,.824-.984v-.992H-11.84q-1.728,0-1.728,1.136a1.02,1.02,0,0,0,.432.864A1.98,1.98,0,0,0-11.936-1.344ZM3.232-11.872V0H1.312V-1.1A3.094,3.094,0,0,1,.088-.192a4.133,4.133,0,0,1-1.608.3A4.5,4.5,0,0,1-3.736-.432,3.909,3.909,0,0,1-5.28-1.976a4.619,4.619,0,0,1-.56-2.3A4.574,4.574,0,0,1-5.28-6.56,3.923,3.923,0,0,1-3.736-8.1,4.5,4.5,0,0,1-1.52-8.64a4.062,4.062,0,0,1,1.552.288,3.122,3.122,0,0,1,1.2.864v-4.384ZM-1.28-1.6a2.572,2.572,0,0,0,1.3-.328,2.37,2.37,0,0,0,.912-.936,2.864,2.864,0,0,0,.336-1.408A2.864,2.864,0,0,0,.928-5.68a2.37,2.37,0,0,0-.912-.936,2.572,2.572,0,0,0-1.3-.328,2.572,2.572,0,0,0-1.3.328,2.37,2.37,0,0,0-.912.936,2.864,2.864,0,0,0-.336,1.408,2.864,2.864,0,0,0,.336,1.408,2.37,2.37,0,0,0,.912.936A2.572,2.572,0,0,0-1.28-1.6ZM13.856-8.544l-4,9.232A4.3,4.3,0,0,1,8.5,2.648a3.257,3.257,0,0,1-1.936.568A3.973,3.973,0,0,1,5.3,3.008a2.793,2.793,0,0,1-1.024-.576L5.072.96a2.177,2.177,0,0,0,.68.432,2.08,2.08,0,0,0,.792.16,1.363,1.363,0,0,0,.872-.272A2.4,2.4,0,0,0,8.048.368L8.192.032,4.464-8.544h2.08l2.688,6.32,2.7-6.32ZM16-11.984a1.258,1.258,0,0,1,.928.368,1.278,1.278,0,0,1,.368.944,2.179,2.179,0,0,1-.072.56q-.072.272-.28.816l-.832,2.272h-1.3l.64-2.464a1.074,1.074,0,0,1-.552-.44,1.349,1.349,0,0,1-.2-.744,1.278,1.278,0,0,1,.368-.944A1.258,1.258,0,0,1,16-11.984ZM21.616.112A7.65,7.65,0,0,1,19.584-.16,5.113,5.113,0,0,1,18-.848l.768-1.52a4.938,4.938,0,0,0,1.384.616,5.75,5.75,0,0,0,1.592.232q1.792,0,1.792-.944a.631.631,0,0,0-.456-.624,7.873,7.873,0,0,0-1.464-.336,11.878,11.878,0,0,1-1.72-.368,2.64,2.64,0,0,1-1.152-.728,2.033,2.033,0,0,1-.488-1.448,2.276,2.276,0,0,1,1.016-1.944,4.624,4.624,0,0,1,2.744-.728,7.919,7.919,0,0,1,1.76.2,4.934,4.934,0,0,1,1.44.536l-.768,1.52A4.737,4.737,0,0,0,22-7.024a2.713,2.713,0,0,0-1.336.264.788.788,0,0,0-.456.7.7.7,0,0,0,.488.68,7.755,7.755,0,0,0,1.512.376,11.667,11.667,0,0,1,1.68.368,2.629,2.629,0,0,1,1.128.7,1.962,1.962,0,0,1,.472,1.408,2.228,2.228,0,0,1-1.04,1.92A4.9,4.9,0,0,1,21.616.112Z" transform="translate(79.4 119)" fill="#fff"/>
  <g id="グループ_3" data-name="グループ 3" transform="translate(80 15)">
    <path id="パス_19" data-name="パス 19" d="M-31.763-3.938h1.353V-.869A4.3,4.3,0,0,1-31.8-.143,5.318,5.318,0,0,1-33.424.11,4.391,4.391,0,0,1-35.547-.4a3.8,3.8,0,0,1-1.485-1.414A3.89,3.89,0,0,1-37.57-3.85a3.89,3.89,0,0,1,.539-2.035A3.79,3.79,0,0,1-35.541-7.3,4.446,4.446,0,0,1-33.4-7.81a4.671,4.671,0,0,1,1.76.319,3.454,3.454,0,0,1,1.331.935l-.9.88a2.893,2.893,0,0,0-2.123-.88,3,3,0,0,0-1.446.341,2.486,2.486,0,0,0-.99.957A2.753,2.753,0,0,0-36.13-3.85a2.71,2.71,0,0,0,.358,1.386,2.563,2.563,0,0,0,.99.968,2.9,2.9,0,0,0,1.436.352,3.1,3.1,0,0,0,1.584-.4ZM-21.708-2.9q0,.143-.022.407H-26.34a1.6,1.6,0,0,0,.633,1.029,2.073,2.073,0,0,0,1.27.379,2.141,2.141,0,0,0,1.6-.638l.737.847a2.483,2.483,0,0,1-1,.715,3.646,3.646,0,0,1-1.364.242,3.63,3.63,0,0,1-1.7-.385A2.773,2.773,0,0,1-27.313-1.38a3.029,3.029,0,0,1-.4-1.556,3.074,3.074,0,0,1,.391-1.546A2.77,2.77,0,0,1-26.24-5.555a3.161,3.161,0,0,1,1.562-.385,3.082,3.082,0,0,1,1.535.379,2.688,2.688,0,0,1,1.056,1.067A3.235,3.235,0,0,1-21.708-2.9Zm-2.97-1.936A1.659,1.659,0,0,0-25.8-4.45a1.643,1.643,0,0,0-.556,1.039h3.333a1.621,1.621,0,0,0-.539-1.034A1.639,1.639,0,0,0-24.678-4.84Zm9.053-1.1a2.455,2.455,0,0,1,1.782.649,2.56,2.56,0,0,1,.671,1.925V0h-1.375V-3.19a1.649,1.649,0,0,0-.363-1.161,1.342,1.342,0,0,0-1.034-.391,1.587,1.587,0,0,0-1.2.457,1.82,1.82,0,0,0-.44,1.315V0h-1.375V-5.874h1.309v.759a2.15,2.15,0,0,1,.858-.616A3.088,3.088,0,0,1-15.626-5.94Zm11.44-2.222V0h-1.32V-.759a2.127,2.127,0,0,1-.842.627A2.842,2.842,0,0,1-7.452.077,3.1,3.1,0,0,1-8.976-.3a2.687,2.687,0,0,1-1.062-1.061,3.175,3.175,0,0,1-.385-1.578,3.145,3.145,0,0,1,.385-1.573A2.7,2.7,0,0,1-8.976-5.566,3.1,3.1,0,0,1-7.452-5.94a2.792,2.792,0,0,1,1.067.2,2.146,2.146,0,0,1,.825.594V-8.162ZM-7.287-1.1A1.768,1.768,0,0,0-6.4-1.326a1.63,1.63,0,0,0,.627-.644,1.969,1.969,0,0,0,.231-.968A1.969,1.969,0,0,0-5.769-3.9,1.63,1.63,0,0,0-6.4-4.549a1.768,1.768,0,0,0-.891-.225,1.768,1.768,0,0,0-.891.225,1.63,1.63,0,0,0-.627.644,1.969,1.969,0,0,0-.231.968,1.969,1.969,0,0,0,.231.968,1.63,1.63,0,0,0,.627.644A1.768,1.768,0,0,0-7.287-1.1ZM4.57-2.9q0,.143-.022.407H-.061A1.6,1.6,0,0,0,.572-1.468a2.073,2.073,0,0,0,1.27.379,2.141,2.141,0,0,0,1.6-.638l.737.847a2.483,2.483,0,0,1-1,.715A3.646,3.646,0,0,1,1.809.077,3.63,3.63,0,0,1,.1-.308,2.773,2.773,0,0,1-1.034-1.38a3.029,3.029,0,0,1-.4-1.556,3.074,3.074,0,0,1,.391-1.546A2.77,2.77,0,0,1,.038-5.555,3.161,3.161,0,0,1,1.6-5.94a3.082,3.082,0,0,1,1.535.379A2.688,2.688,0,0,1,4.191-4.493,3.235,3.235,0,0,1,4.57-2.9ZM1.6-4.84A1.659,1.659,0,0,0,.484-4.45,1.643,1.643,0,0,0-.072-3.41H3.261a1.621,1.621,0,0,0-.539-1.034A1.639,1.639,0,0,0,1.6-4.84Zm7.029-.176a2.291,2.291,0,0,1,2.09-.924v1.309a1.746,1.746,0,0,0-.319-.033A1.661,1.661,0,0,0,9.146-4.2,1.864,1.864,0,0,0,8.7-2.849V0H7.32V-5.874H8.629Zm4.686-3.146H14.69V0H13.315ZM23.446-2.9q0,.143-.022.407H18.815a1.6,1.6,0,0,0,.633,1.029,2.073,2.073,0,0,0,1.27.379,2.141,2.141,0,0,0,1.6-.638l.737.847a2.483,2.483,0,0,1-1,.715,3.646,3.646,0,0,1-1.364.242,3.63,3.63,0,0,1-1.7-.385A2.773,2.773,0,0,1,17.842-1.38a3.029,3.029,0,0,1-.4-1.556,3.074,3.074,0,0,1,.391-1.546,2.77,2.77,0,0,1,1.083-1.072,3.161,3.161,0,0,1,1.562-.385,3.082,3.082,0,0,1,1.535.379,2.688,2.688,0,0,1,1.056,1.067A3.235,3.235,0,0,1,23.446-2.9ZM20.476-4.84a1.659,1.659,0,0,0-1.117.391A1.643,1.643,0,0,0,18.8-3.41h3.333A1.621,1.621,0,0,0,21.6-4.444,1.639,1.639,0,0,0,20.476-4.84ZM28.011.077a5.259,5.259,0,0,1-1.4-.187,3.515,3.515,0,0,1-1.089-.473l.528-1.045A3.4,3.4,0,0,0,27-1.2a3.953,3.953,0,0,0,1.094.16q1.232,0,1.232-.649a.434.434,0,0,0-.314-.429,5.413,5.413,0,0,0-1.007-.231,8.166,8.166,0,0,1-1.182-.253,1.815,1.815,0,0,1-.792-.5,1.4,1.4,0,0,1-.336-1,1.565,1.565,0,0,1,.7-1.337,3.179,3.179,0,0,1,1.887-.5A5.444,5.444,0,0,1,29.5-5.8a3.392,3.392,0,0,1,.99.368l-.528,1.045a3.257,3.257,0,0,0-1.683-.44,1.865,1.865,0,0,0-.918.181.541.541,0,0,0-.313.478.478.478,0,0,0,.335.468,5.332,5.332,0,0,0,1.04.259,8.021,8.021,0,0,1,1.155.253,1.808,1.808,0,0,1,.776.484,1.349,1.349,0,0,1,.324.968,1.532,1.532,0,0,1-.715,1.32A3.371,3.371,0,0,1,28.011.077Zm7.1,0a5.259,5.259,0,0,1-1.4-.187A3.515,3.515,0,0,1,32.62-.583l.528-1.045A3.4,3.4,0,0,0,34.1-1.2a3.953,3.953,0,0,0,1.095.16q1.232,0,1.232-.649a.434.434,0,0,0-.313-.429,5.413,5.413,0,0,0-1.007-.231,8.166,8.166,0,0,1-1.182-.253,1.815,1.815,0,0,1-.792-.5,1.4,1.4,0,0,1-.335-1,1.565,1.565,0,0,1,.7-1.337,3.179,3.179,0,0,1,1.887-.5,5.444,5.444,0,0,1,1.21.138,3.392,3.392,0,0,1,.99.368l-.528,1.045a3.257,3.257,0,0,0-1.683-.44,1.865,1.865,0,0,0-.918.181.541.541,0,0,0-.313.478.478.478,0,0,0,.335.468,5.332,5.332,0,0,0,1.04.259,8.021,8.021,0,0,1,1.155.253,1.808,1.808,0,0,1,.776.484,1.349,1.349,0,0,1,.325.968,1.532,1.532,0,0,1-.715,1.32A3.371,3.371,0,0,1,35.106.077Z" transform="translate(160 119)" fill="#fff"/>
    <path id="パス_20" data-name="パス 20" d="M-12.2,0l-.016-7.424L-15.9-1.28h-.928L-20.5-7.328V0h-1.984V-11.2h1.712l4.448,7.424L-11.96-11.2h1.712L-10.232,0ZM.632-4.224q0,.208-.032.592H-6.1a2.324,2.324,0,0,0,.92,1.5,3.016,3.016,0,0,0,1.848.552,3.114,3.114,0,0,0,2.32-.928L.056-1.28A3.612,3.612,0,0,1-1.4-.24,5.3,5.3,0,0,1-3.384.112a5.28,5.28,0,0,1-2.48-.56A4.033,4.033,0,0,1-7.52-2.008,4.405,4.405,0,0,1-8.1-4.272,4.471,4.471,0,0,1-7.536-6.52,4.029,4.029,0,0,1-5.96-8.08a4.6,4.6,0,0,1,2.272-.56,4.483,4.483,0,0,1,2.232.552A3.909,3.909,0,0,1,.08-6.536,4.706,4.706,0,0,1,.632-4.224ZM-3.688-7.04a2.413,2.413,0,0,0-1.624.568A2.389,2.389,0,0,0-6.12-4.96h4.848a2.358,2.358,0,0,0-.784-1.5A2.384,2.384,0,0,0-3.688-7.04ZM7.4-8.64A3.57,3.57,0,0,1,9.992-7.7a3.724,3.724,0,0,1,.976,2.8V0h-2V-4.64A2.4,2.4,0,0,0,8.44-6.328a1.952,1.952,0,0,0-1.5-.568,2.309,2.309,0,0,0-1.744.664,2.647,2.647,0,0,0-.64,1.912V0h-2V-8.544h1.9v1.1a3.127,3.127,0,0,1,1.248-.9A4.491,4.491,0,0,1,7.4-8.64Zm6.688-3.344a1.258,1.258,0,0,1,.928.368,1.278,1.278,0,0,1,.368.944,2.179,2.179,0,0,1-.072.56q-.072.272-.28.816L14.2-7.024H12.9l.64-2.464a1.074,1.074,0,0,1-.552-.44,1.349,1.349,0,0,1-.2-.744,1.278,1.278,0,0,1,.368-.944A1.258,1.258,0,0,1,14.088-11.984ZM19.7.112A7.65,7.65,0,0,1,17.672-.16a5.113,5.113,0,0,1-1.584-.688l.768-1.52a4.938,4.938,0,0,0,1.384.616,5.75,5.75,0,0,0,1.592.232q1.792,0,1.792-.944a.631.631,0,0,0-.456-.624A7.873,7.873,0,0,0,19.7-3.424a11.878,11.878,0,0,1-1.72-.368,2.64,2.64,0,0,1-1.152-.728,2.033,2.033,0,0,1-.488-1.448A2.276,2.276,0,0,1,17.36-7.912,4.624,4.624,0,0,1,20.1-8.64a7.919,7.919,0,0,1,1.76.2A4.934,4.934,0,0,1,23.3-7.9l-.768,1.52a4.737,4.737,0,0,0-2.448-.64,2.713,2.713,0,0,0-1.336.264.788.788,0,0,0-.456.7.7.7,0,0,0,.488.68,7.755,7.755,0,0,0,1.512.376,11.667,11.667,0,0,1,1.68.368,2.629,2.629,0,0,1,1.128.7,1.962,1.962,0,0,1,.472,1.408,2.228,2.228,0,0,1-1.04,1.92A4.9,4.9,0,0,1,19.7.112Z" transform="translate(160 104)" fill="#fff"/>
  </g>
</svg>
