<svg xmlns="http://www.w3.org/2000/svg" width="320" height="180" viewBox="0 0 320 180">
  <g id="グループ_7" data-name="グループ 7" transform="translate(-600 -2801)">
    <g id="グループ_5" data-name="グループ 5" transform="translate(600 2801)">
      <rect id="長方形_2" data-name="長方形 2" width="320" height="180" fill="#eadadb"/>
      <g id="グループ_4" data-name="グループ 4" transform="translate(0 4)">
        <g id="レイヤー_2" data-name="レイヤー 2" transform="translate(97 60)">
          <g id="レイヤー_2-2" data-name="レイヤー 2">
            <path id="パス_4" data-name="パス 4" d="M26.3,8.46a1.5,1.5,0,0,0-1.111.463,1.578,1.578,0,0,0,0,2.217h0A1.481,1.481,0,0,0,26.3,11.6a1.546,1.546,0,0,0,1.1-.463,1.634,1.634,0,0,0,0-2.217A1.546,1.546,0,0,0,26.3,8.46Z" transform="translate(-13.289 -4.545)" fill="#fff"/>
            <path id="パス_5" data-name="パス 5" d="M10.644,15.008c0,3.864-1.2,5.817-3.605,5.817a2.809,2.809,0,0,1-2.078-.7c-1-.926-1.509-2.68-1.509-5.132V0H0V14.985c0,3.346.833,5.8,2.508,7.344a6.479,6.479,0,0,0,4.531,1.643,6.59,6.59,0,0,0,4.568-1.643c1.675-1.541,2.541-3.971,2.541-7.344v-.463h-3.04Z" fill="#fff"/>
            <path id="パス_6" data-name="パス 6" d="M17.688,11.588a1.569,1.569,0,1,0-1.1-2.675,1.634,1.634,0,0,0,0,2.217A1.546,1.546,0,0,0,17.688,11.588Z" transform="translate(-8.678 -4.539)" fill="#fff"/>
            <path id="パス_7" data-name="パス 7" d="M47.464,12.831l-.541-.051v3.105l.375.056a4.8,4.8,0,0,1,3.563,2.184A7.681,7.681,0,0,1,51.7,22.1a5.455,5.455,0,0,1-1.43,4.045A5.349,5.349,0,0,1,46.3,27.5H45.84v3.045H46.3A9.108,9.108,0,0,0,52.319,28.6a7.916,7.916,0,0,0,2.693-6.507c0-3.425-.926-5.887-2.73-7.368a8.6,8.6,0,0,0-4.818-1.893Z" transform="translate(-24.626 -6.866)" fill="#fff"/>
            <path id="パス_8" data-name="パス 8" d="M70.661,14.35a1.439,1.439,0,0,0,1.106-.463,1.564,1.564,0,1,0-2.189-2.235h-.028a1.643,1.643,0,0,0,0,2.217A1.439,1.439,0,0,0,70.661,14.35Z" transform="translate(-37.133 -6.019)" fill="#fff"/>
            <rect id="長方形_13" data-name="長方形 13" width="9.422" height="3.156" transform="translate(20.404 0.569)" fill="#fff"/>
            <rect id="長方形_14" data-name="長方形 14" width="3.48" height="10.746" transform="translate(32.312 10.042)" fill="#fff"/>
            <rect id="長方形_15" data-name="長方形 15" width="3.457" height="10.746" transform="translate(16.142 10.042)" fill="#fff"/>
            <path id="パス_9" data-name="パス 9" d="M70.66,5.75h0a1.536,1.536,0,0,0,1.106-.463,1.629,1.629,0,0,0,.463-1.134,1.564,1.564,0,0,0-.463-1.106,1.536,1.536,0,0,0-2.647,1.111A1.564,1.564,0,0,0,70.66,5.75Z" transform="translate(-37.131 -1.382)" fill="#fff"/>
            <path id="パス_10" data-name="パス 10" d="M85.67,11.315h2.911a1.722,1.722,0,0,1,1.051.375,1.268,1.268,0,0,1,.435,1v10.8h6.845V20.363H93.542V12.69A4.165,4.165,0,0,0,92.107,9.45a5.03,5.03,0,0,0-3.526-1.268H85.666V0H82.19V23.491h3.48Z" transform="translate(-44.154)" fill="#fff"/>
            <path id="パス_11" data-name="パス 11" d="M120.295,24.837a4.392,4.392,0,0,0,2.777-1.009v.865h2.943V7.52h-2.943v5.706a4.3,4.3,0,0,0-2.777-1.06,4.11,4.11,0,0,0-3.369,1.648c-.731.926-.926,1.814-.926,4.679s.167,3.758.9,4.7A4.1,4.1,0,0,0,120.295,24.837Zm.727-9.718c1.893,0,2.05,1.6,2.05,3.388s-.157,3.4-2.05,3.4-2.073-1.476-2.073-3.4.148-3.4,2.073-3.4Z" transform="translate(-62.317 -4.04)" fill="#fff"/>
            <path id="パス_12" data-name="パス 12" d="M145.409,30.258a5.762,5.762,0,0,0,4.489-2.013l.185-.208-2.143-1.823-.19.185a3.383,3.383,0,0,1-2.388,1.06,2.314,2.314,0,0,1-2.522-2.138,1.663,1.663,0,0,1,0-.213H150.2V22.881a5.091,5.091,0,0,0-4.929-5.271h-.255c-2.49,0-5.155,1.68-5.155,6.373C139.879,29.439,143.349,30.258,145.409,30.258Zm-.393-9.871h0a2.161,2.161,0,0,1,2.2,2.194H142.84A2.137,2.137,0,0,1,145.015,20.387Z" transform="translate(-75.135 -9.46)" fill="#fff"/>
            <path id="パス_13" data-name="パス 13" d="M181.944,21.987h-5.7V7.788h5.7v-4H167.01v4h5.669v14.2H167.01v4h14.934Z" transform="translate(-89.72 -2.036)" fill="#fff"/>
            <path id="パス_14" data-name="パス 14" d="M202.74,23.814l2.6,1.851a.338.338,0,0,0,.176.051.31.31,0,0,0,.181-.065,28.379,28.379,0,0,0,6.28-7.118,63.152,63.152,0,0,1,3.7,6.909.3.3,0,0,0,.389.13l3.179-1.43a.268.268,0,0,0,.139-.153.227.227,0,0,0,0-.2c-1.388-2.545-3.369-5.757-5.456-8.844,1.523-3.128,2.55-7.465,3.651-11.676.028-.111-14.157-.06-14.157-.06a.273.273,0,0,0-.282.264V6.062a.273.273,0,0,0,.282.264h9.487c-1.365,6.979-5.336,13.657-10.181,17.067a.255.255,0,0,0-.074.352A.347.347,0,0,0,202.74,23.814Z" transform="translate(-108.846 -1.716)" fill="#fff"/>
            <path id="パス_15" data-name="パス 15" d="M245.069,26.443a4.452,4.452,0,0,1-1.157,3.022,3.615,3.615,0,0,1-2.777,1.268h-1.388v4h1.388A6.835,6.835,0,0,0,246.4,32.3a8.4,8.4,0,0,0,2.18-5.854v-2.4h4.628V20.07H238.4v3.971h6.669Z" transform="translate(-128.072 -10.782)" fill="#fff"/>
            <rect id="長方形_16" data-name="長方形 16" width="14.846" height="3.994" transform="translate(110.328 1.754)" fill="#fff"/>
          </g>
        </g>
        <path id="パス_18" data-name="パス 18" d="M-24.4-11.2h2.08v9.44h5.856V0H-24.4Zm12.736,2.56a4.166,4.166,0,0,1,2.888.9,3.494,3.494,0,0,1,1,2.728V0H-9.664V-1.04a2.327,2.327,0,0,1-1.048.856,4.1,4.1,0,0,1-1.64.3,4.018,4.018,0,0,1-1.68-.328,2.6,2.6,0,0,1-1.112-.912,2.314,2.314,0,0,1-.392-1.32A2.262,2.262,0,0,1-14.68-4.3a4.251,4.251,0,0,1,2.7-.7h2.208V-5.12A1.751,1.751,0,0,0-10.312-6.5a2.319,2.319,0,0,0-1.592-.48,4.6,4.6,0,0,0-1.416.224,3.479,3.479,0,0,0-1.176.624l-.784-1.456a4.855,4.855,0,0,1,1.616-.784A7.19,7.19,0,0,1-11.664-8.64Zm-.272,7.3A2.582,2.582,0,0,0-10.6-1.688a1.872,1.872,0,0,0,.824-.984v-.992H-11.84q-1.728,0-1.728,1.136a1.02,1.02,0,0,0,.432.864A1.98,1.98,0,0,0-11.936-1.344ZM3.232-11.872V0H1.312V-1.1A3.094,3.094,0,0,1,.088-.192a4.133,4.133,0,0,1-1.608.3A4.5,4.5,0,0,1-3.736-.432,3.909,3.909,0,0,1-5.28-1.976a4.619,4.619,0,0,1-.56-2.3A4.574,4.574,0,0,1-5.28-6.56,3.923,3.923,0,0,1-3.736-8.1,4.5,4.5,0,0,1-1.52-8.64a4.062,4.062,0,0,1,1.552.288,3.122,3.122,0,0,1,1.2.864v-4.384ZM-1.28-1.6a2.572,2.572,0,0,0,1.3-.328,2.37,2.37,0,0,0,.912-.936,2.864,2.864,0,0,0,.336-1.408A2.864,2.864,0,0,0,.928-5.68a2.37,2.37,0,0,0-.912-.936,2.572,2.572,0,0,0-1.3-.328,2.572,2.572,0,0,0-1.3.328,2.37,2.37,0,0,0-.912.936,2.864,2.864,0,0,0-.336,1.408,2.864,2.864,0,0,0,.336,1.408,2.37,2.37,0,0,0,.912.936A2.572,2.572,0,0,0-1.28-1.6ZM13.856-8.544l-4,9.232A4.3,4.3,0,0,1,8.5,2.648a3.257,3.257,0,0,1-1.936.568A3.973,3.973,0,0,1,5.3,3.008a2.793,2.793,0,0,1-1.024-.576L5.072.96a2.177,2.177,0,0,0,.68.432,2.08,2.08,0,0,0,.792.16,1.363,1.363,0,0,0,.872-.272A2.4,2.4,0,0,0,8.048.368L8.192.032,4.464-8.544h2.08l2.688,6.32,2.7-6.32ZM16-11.984a1.258,1.258,0,0,1,.928.368,1.278,1.278,0,0,1,.368.944,2.179,2.179,0,0,1-.072.56q-.072.272-.28.816l-.832,2.272h-1.3l.64-2.464a1.074,1.074,0,0,1-.552-.44,1.349,1.349,0,0,1-.2-.744,1.278,1.278,0,0,1,.368-.944A1.258,1.258,0,0,1,16-11.984ZM21.616.112A7.65,7.65,0,0,1,19.584-.16,5.113,5.113,0,0,1,18-.848l.768-1.52a4.938,4.938,0,0,0,1.384.616,5.75,5.75,0,0,0,1.592.232q1.792,0,1.792-.944a.631.631,0,0,0-.456-.624,7.873,7.873,0,0,0-1.464-.336,11.878,11.878,0,0,1-1.72-.368,2.64,2.64,0,0,1-1.152-.728,2.033,2.033,0,0,1-.488-1.448,2.276,2.276,0,0,1,1.016-1.944,4.624,4.624,0,0,1,2.744-.728,7.919,7.919,0,0,1,1.76.2,4.934,4.934,0,0,1,1.44.536l-.768,1.52A4.737,4.737,0,0,0,22-7.024a2.713,2.713,0,0,0-1.336.264.788.788,0,0,0-.456.7.7.7,0,0,0,.488.68,7.755,7.755,0,0,0,1.512.376,11.667,11.667,0,0,1,1.68.368,2.629,2.629,0,0,1,1.128.7,1.962,1.962,0,0,1,.472,1.408,2.228,2.228,0,0,1-1.04,1.92A4.9,4.9,0,0,1,21.616.112Z" transform="translate(160 115)" fill="#fff"/>
      </g>
    </g>
  </g>
</svg>
