<svg xmlns="http://www.w3.org/2000/svg" width="320" height="180" viewBox="0 0 320 180">
  <g id="グループ_8" data-name="グループ 8" transform="translate(-960 -2801)">
    <rect id="長方形_19" data-name="長方形 19" width="320" height="180" transform="translate(960 2801)" fill="#dadee3"/>
    <g id="グループ_6" data-name="グループ 6" transform="translate(960 2805)">
      <g id="レイヤー_2" data-name="レイヤー 2" transform="translate(97 60)">
        <g id="レイヤー_2-2" data-name="レイヤー 2">
          <path id="パス_4" data-name="パス 4" d="M26.3,8.46a1.5,1.5,0,0,0-1.111.463,1.578,1.578,0,0,0,0,2.217h0A1.481,1.481,0,0,0,26.3,11.6a1.546,1.546,0,0,0,1.1-.463,1.634,1.634,0,0,0,0-2.217A1.546,1.546,0,0,0,26.3,8.46Z" transform="translate(-13.289 -4.545)" fill="#fff"/>
          <path id="パス_5" data-name="パス 5" d="M10.644,15.008c0,3.864-1.2,5.817-3.605,5.817a2.809,2.809,0,0,1-2.078-.7c-1-.926-1.509-2.68-1.509-5.132V0H0V14.985c0,3.346.833,5.8,2.508,7.344a6.479,6.479,0,0,0,4.531,1.643,6.59,6.59,0,0,0,4.568-1.643c1.675-1.541,2.541-3.971,2.541-7.344v-.463h-3.04Z" fill="#fff"/>
          <path id="パス_6" data-name="パス 6" d="M17.688,11.588a1.569,1.569,0,1,0-1.1-2.675,1.634,1.634,0,0,0,0,2.217A1.546,1.546,0,0,0,17.688,11.588Z" transform="translate(-8.678 -4.539)" fill="#fff"/>
          <path id="パス_7" data-name="パス 7" d="M47.464,12.831l-.541-.051v3.105l.375.056a4.8,4.8,0,0,1,3.563,2.184A7.681,7.681,0,0,1,51.7,22.1a5.455,5.455,0,0,1-1.43,4.045A5.349,5.349,0,0,1,46.3,27.5H45.84v3.045H46.3A9.108,9.108,0,0,0,52.319,28.6a7.916,7.916,0,0,0,2.693-6.507c0-3.425-.926-5.887-2.73-7.368a8.6,8.6,0,0,0-4.818-1.893Z" transform="translate(-24.626 -6.866)" fill="#fff"/>
          <path id="パス_8" data-name="パス 8" d="M70.661,14.35a1.439,1.439,0,0,0,1.106-.463,1.564,1.564,0,1,0-2.189-2.235h-.028a1.643,1.643,0,0,0,0,2.217A1.439,1.439,0,0,0,70.661,14.35Z" transform="translate(-37.133 -6.019)" fill="#fff"/>
          <rect id="長方形_13" data-name="長方形 13" width="9.422" height="3.156" transform="translate(20.404 0.569)" fill="#fff"/>
          <rect id="長方形_14" data-name="長方形 14" width="3.48" height="10.746" transform="translate(32.312 10.042)" fill="#fff"/>
          <rect id="長方形_15" data-name="長方形 15" width="3.457" height="10.746" transform="translate(16.142 10.042)" fill="#fff"/>
          <path id="パス_9" data-name="パス 9" d="M70.66,5.75h0a1.536,1.536,0,0,0,1.106-.463,1.629,1.629,0,0,0,.463-1.134,1.564,1.564,0,0,0-.463-1.106,1.536,1.536,0,0,0-2.647,1.111A1.564,1.564,0,0,0,70.66,5.75Z" transform="translate(-37.131 -1.382)" fill="#fff"/>
          <path id="パス_10" data-name="パス 10" d="M85.67,11.315h2.911a1.722,1.722,0,0,1,1.051.375,1.268,1.268,0,0,1,.435,1v10.8h6.845V20.363H93.542V12.69A4.165,4.165,0,0,0,92.107,9.45a5.03,5.03,0,0,0-3.526-1.268H85.666V0H82.19V23.491h3.48Z" transform="translate(-44.154)" fill="#fff"/>
          <path id="パス_11" data-name="パス 11" d="M120.295,24.837a4.392,4.392,0,0,0,2.777-1.009v.865h2.943V7.52h-2.943v5.706a4.3,4.3,0,0,0-2.777-1.06,4.11,4.11,0,0,0-3.369,1.648c-.731.926-.926,1.814-.926,4.679s.167,3.758.9,4.7A4.1,4.1,0,0,0,120.295,24.837Zm.727-9.718c1.893,0,2.05,1.6,2.05,3.388s-.157,3.4-2.05,3.4-2.073-1.476-2.073-3.4.148-3.4,2.073-3.4Z" transform="translate(-62.317 -4.04)" fill="#fff"/>
          <path id="パス_12" data-name="パス 12" d="M145.409,30.258a5.762,5.762,0,0,0,4.489-2.013l.185-.208-2.143-1.823-.19.185a3.383,3.383,0,0,1-2.388,1.06,2.314,2.314,0,0,1-2.522-2.138,1.663,1.663,0,0,1,0-.213H150.2V22.881a5.091,5.091,0,0,0-4.929-5.271h-.255c-2.49,0-5.155,1.68-5.155,6.373C139.879,29.439,143.349,30.258,145.409,30.258Zm-.393-9.871h0a2.161,2.161,0,0,1,2.2,2.194H142.84A2.137,2.137,0,0,1,145.015,20.387Z" transform="translate(-75.135 -9.46)" fill="#fff"/>
          <path id="パス_13" data-name="パス 13" d="M181.944,21.987h-5.7V7.788h5.7v-4H167.01v4h5.669v14.2H167.01v4h14.934Z" transform="translate(-89.72 -2.036)" fill="#fff"/>
          <path id="パス_14" data-name="パス 14" d="M202.74,23.814l2.6,1.851a.338.338,0,0,0,.176.051.31.31,0,0,0,.181-.065,28.379,28.379,0,0,0,6.28-7.118,63.152,63.152,0,0,1,3.7,6.909.3.3,0,0,0,.389.13l3.179-1.43a.268.268,0,0,0,.139-.153.227.227,0,0,0,0-.2c-1.388-2.545-3.369-5.757-5.456-8.844,1.523-3.128,2.55-7.465,3.651-11.676.028-.111-14.157-.06-14.157-.06a.273.273,0,0,0-.282.264V6.062a.273.273,0,0,0,.282.264h9.487c-1.365,6.979-5.336,13.657-10.181,17.067a.255.255,0,0,0-.074.352A.347.347,0,0,0,202.74,23.814Z" transform="translate(-108.846 -1.716)" fill="#fff"/>
          <path id="パス_15" data-name="パス 15" d="M245.069,26.443a4.452,4.452,0,0,1-1.157,3.022,3.615,3.615,0,0,1-2.777,1.268h-1.388v4h1.388A6.835,6.835,0,0,0,246.4,32.3a8.4,8.4,0,0,0,2.18-5.854v-2.4h4.628V20.07H238.4v3.971h6.669Z" transform="translate(-128.072 -10.782)" fill="#fff"/>
          <rect id="長方形_16" data-name="長方形 16" width="14.846" height="3.994" transform="translate(110.328 1.754)" fill="#fff"/>
        </g>
      </g>
      <path id="パス_16" data-name="パス 16" d="M-31.763-3.938h1.353V-.869A4.3,4.3,0,0,1-31.8-.143,5.318,5.318,0,0,1-33.424.11,4.391,4.391,0,0,1-35.547-.4a3.8,3.8,0,0,1-1.485-1.414A3.89,3.89,0,0,1-37.57-3.85a3.89,3.89,0,0,1,.539-2.035A3.79,3.79,0,0,1-35.541-7.3,4.446,4.446,0,0,1-33.4-7.81a4.671,4.671,0,0,1,1.76.319,3.454,3.454,0,0,1,1.331.935l-.9.88a2.893,2.893,0,0,0-2.123-.88,3,3,0,0,0-1.446.341,2.486,2.486,0,0,0-.99.957A2.753,2.753,0,0,0-36.13-3.85a2.71,2.71,0,0,0,.358,1.386,2.563,2.563,0,0,0,.99.968,2.9,2.9,0,0,0,1.436.352,3.1,3.1,0,0,0,1.584-.4ZM-21.708-2.9q0,.143-.022.407H-26.34a1.6,1.6,0,0,0,.633,1.029,2.073,2.073,0,0,0,1.27.379,2.141,2.141,0,0,0,1.6-.638l.737.847a2.483,2.483,0,0,1-1,.715,3.646,3.646,0,0,1-1.364.242,3.63,3.63,0,0,1-1.7-.385A2.773,2.773,0,0,1-27.313-1.38a3.029,3.029,0,0,1-.4-1.556,3.074,3.074,0,0,1,.391-1.546A2.77,2.77,0,0,1-26.24-5.555a3.161,3.161,0,0,1,1.562-.385,3.082,3.082,0,0,1,1.535.379,2.688,2.688,0,0,1,1.056,1.067A3.235,3.235,0,0,1-21.708-2.9Zm-2.97-1.936A1.659,1.659,0,0,0-25.8-4.45a1.643,1.643,0,0,0-.556,1.039h3.333a1.621,1.621,0,0,0-.539-1.034A1.639,1.639,0,0,0-24.678-4.84Zm9.053-1.1a2.455,2.455,0,0,1,1.782.649,2.56,2.56,0,0,1,.671,1.925V0h-1.375V-3.19a1.649,1.649,0,0,0-.363-1.161,1.342,1.342,0,0,0-1.034-.391,1.587,1.587,0,0,0-1.2.457,1.82,1.82,0,0,0-.44,1.315V0h-1.375V-5.874h1.309v.759a2.15,2.15,0,0,1,.858-.616A3.088,3.088,0,0,1-15.626-5.94Zm11.44-2.222V0h-1.32V-.759a2.127,2.127,0,0,1-.842.627A2.842,2.842,0,0,1-7.452.077,3.1,3.1,0,0,1-8.976-.3a2.687,2.687,0,0,1-1.062-1.061,3.175,3.175,0,0,1-.385-1.578,3.145,3.145,0,0,1,.385-1.573A2.7,2.7,0,0,1-8.976-5.566,3.1,3.1,0,0,1-7.452-5.94a2.792,2.792,0,0,1,1.067.2,2.146,2.146,0,0,1,.825.594V-8.162ZM-7.287-1.1A1.768,1.768,0,0,0-6.4-1.326a1.63,1.63,0,0,0,.627-.644,1.969,1.969,0,0,0,.231-.968A1.969,1.969,0,0,0-5.769-3.9,1.63,1.63,0,0,0-6.4-4.549a1.768,1.768,0,0,0-.891-.225,1.768,1.768,0,0,0-.891.225,1.63,1.63,0,0,0-.627.644,1.969,1.969,0,0,0-.231.968,1.969,1.969,0,0,0,.231.968,1.63,1.63,0,0,0,.627.644A1.768,1.768,0,0,0-7.287-1.1ZM4.57-2.9q0,.143-.022.407H-.061A1.6,1.6,0,0,0,.572-1.468a2.073,2.073,0,0,0,1.27.379,2.141,2.141,0,0,0,1.6-.638l.737.847a2.483,2.483,0,0,1-1,.715A3.646,3.646,0,0,1,1.809.077,3.63,3.63,0,0,1,.1-.308,2.773,2.773,0,0,1-1.034-1.38a3.029,3.029,0,0,1-.4-1.556,3.074,3.074,0,0,1,.391-1.546A2.77,2.77,0,0,1,.038-5.555,3.161,3.161,0,0,1,1.6-5.94a3.082,3.082,0,0,1,1.535.379A2.688,2.688,0,0,1,4.191-4.493,3.235,3.235,0,0,1,4.57-2.9ZM1.6-4.84A1.659,1.659,0,0,0,.484-4.45,1.643,1.643,0,0,0-.072-3.41H3.261a1.621,1.621,0,0,0-.539-1.034A1.639,1.639,0,0,0,1.6-4.84Zm7.029-.176a2.291,2.291,0,0,1,2.09-.924v1.309a1.746,1.746,0,0,0-.319-.033A1.661,1.661,0,0,0,9.146-4.2,1.864,1.864,0,0,0,8.7-2.849V0H7.32V-5.874H8.629Zm4.686-3.146H14.69V0H13.315ZM23.446-2.9q0,.143-.022.407H18.815a1.6,1.6,0,0,0,.633,1.029,2.073,2.073,0,0,0,1.27.379,2.141,2.141,0,0,0,1.6-.638l.737.847a2.483,2.483,0,0,1-1,.715,3.646,3.646,0,0,1-1.364.242,3.63,3.63,0,0,1-1.7-.385A2.773,2.773,0,0,1,17.842-1.38a3.029,3.029,0,0,1-.4-1.556,3.074,3.074,0,0,1,.391-1.546,2.77,2.77,0,0,1,1.083-1.072,3.161,3.161,0,0,1,1.562-.385,3.082,3.082,0,0,1,1.535.379,2.688,2.688,0,0,1,1.056,1.067A3.235,3.235,0,0,1,23.446-2.9ZM20.476-4.84a1.659,1.659,0,0,0-1.117.391A1.643,1.643,0,0,0,18.8-3.41h3.333A1.621,1.621,0,0,0,21.6-4.444,1.639,1.639,0,0,0,20.476-4.84ZM28.011.077a5.259,5.259,0,0,1-1.4-.187,3.515,3.515,0,0,1-1.089-.473l.528-1.045A3.4,3.4,0,0,0,27-1.2a3.953,3.953,0,0,0,1.094.16q1.232,0,1.232-.649a.434.434,0,0,0-.314-.429,5.413,5.413,0,0,0-1.007-.231,8.166,8.166,0,0,1-1.182-.253,1.815,1.815,0,0,1-.792-.5,1.4,1.4,0,0,1-.336-1,1.565,1.565,0,0,1,.7-1.337,3.179,3.179,0,0,1,1.887-.5A5.444,5.444,0,0,1,29.5-5.8a3.392,3.392,0,0,1,.99.368l-.528,1.045a3.257,3.257,0,0,0-1.683-.44,1.865,1.865,0,0,0-.918.181.541.541,0,0,0-.313.478.478.478,0,0,0,.335.468,5.332,5.332,0,0,0,1.04.259,8.021,8.021,0,0,1,1.155.253,1.808,1.808,0,0,1,.776.484,1.349,1.349,0,0,1,.324.968,1.532,1.532,0,0,1-.715,1.32A3.371,3.371,0,0,1,28.011.077Zm7.1,0a5.259,5.259,0,0,1-1.4-.187A3.515,3.515,0,0,1,32.62-.583l.528-1.045A3.4,3.4,0,0,0,34.1-1.2a3.953,3.953,0,0,0,1.095.16q1.232,0,1.232-.649a.434.434,0,0,0-.313-.429,5.413,5.413,0,0,0-1.007-.231,8.166,8.166,0,0,1-1.182-.253,1.815,1.815,0,0,1-.792-.5,1.4,1.4,0,0,1-.335-1,1.565,1.565,0,0,1,.7-1.337,3.179,3.179,0,0,1,1.887-.5,5.444,5.444,0,0,1,1.21.138,3.392,3.392,0,0,1,.99.368l-.528,1.045a3.257,3.257,0,0,0-1.683-.44,1.865,1.865,0,0,0-.918.181.541.541,0,0,0-.313.478.478.478,0,0,0,.335.468,5.332,5.332,0,0,0,1.04.259,8.021,8.021,0,0,1,1.155.253,1.808,1.808,0,0,1,.776.484,1.349,1.349,0,0,1,.325.968,1.532,1.532,0,0,1-.715,1.32A3.371,3.371,0,0,1,35.106.077Z" transform="translate(160 130)" fill="#fff"/>
      <path id="パス_17" data-name="パス 17" d="M-12.2,0l-.016-7.424L-15.9-1.28h-.928L-20.5-7.328V0h-1.984V-11.2h1.712l4.448,7.424L-11.96-11.2h1.712L-10.232,0ZM.632-4.224q0,.208-.032.592H-6.1a2.324,2.324,0,0,0,.92,1.5,3.016,3.016,0,0,0,1.848.552,3.114,3.114,0,0,0,2.32-.928L.056-1.28A3.612,3.612,0,0,1-1.4-.24,5.3,5.3,0,0,1-3.384.112a5.28,5.28,0,0,1-2.48-.56A4.033,4.033,0,0,1-7.52-2.008,4.405,4.405,0,0,1-8.1-4.272,4.471,4.471,0,0,1-7.536-6.52,4.029,4.029,0,0,1-5.96-8.08a4.6,4.6,0,0,1,2.272-.56,4.483,4.483,0,0,1,2.232.552A3.909,3.909,0,0,1,.08-6.536,4.706,4.706,0,0,1,.632-4.224ZM-3.688-7.04a2.413,2.413,0,0,0-1.624.568A2.389,2.389,0,0,0-6.12-4.96h4.848a2.358,2.358,0,0,0-.784-1.5A2.384,2.384,0,0,0-3.688-7.04ZM7.4-8.64A3.57,3.57,0,0,1,9.992-7.7a3.724,3.724,0,0,1,.976,2.8V0h-2V-4.64A2.4,2.4,0,0,0,8.44-6.328a1.952,1.952,0,0,0-1.5-.568,2.309,2.309,0,0,0-1.744.664,2.647,2.647,0,0,0-.64,1.912V0h-2V-8.544h1.9v1.1a3.127,3.127,0,0,1,1.248-.9A4.491,4.491,0,0,1,7.4-8.64Zm6.688-3.344a1.258,1.258,0,0,1,.928.368,1.278,1.278,0,0,1,.368.944,2.179,2.179,0,0,1-.072.56q-.072.272-.28.816L14.2-7.024H12.9l.64-2.464a1.074,1.074,0,0,1-.552-.44,1.349,1.349,0,0,1-.2-.744,1.278,1.278,0,0,1,.368-.944A1.258,1.258,0,0,1,14.088-11.984ZM19.7.112A7.65,7.65,0,0,1,17.672-.16a5.113,5.113,0,0,1-1.584-.688l.768-1.52a4.938,4.938,0,0,0,1.384.616,5.75,5.75,0,0,0,1.592.232q1.792,0,1.792-.944a.631.631,0,0,0-.456-.624A7.873,7.873,0,0,0,19.7-3.424a11.878,11.878,0,0,1-1.72-.368,2.64,2.64,0,0,1-1.152-.728,2.033,2.033,0,0,1-.488-1.448A2.276,2.276,0,0,1,17.36-7.912,4.624,4.624,0,0,1,20.1-8.64a7.919,7.919,0,0,1,1.76.2A4.934,4.934,0,0,1,23.3-7.9l-.768,1.52a4.737,4.737,0,0,0-2.448-.64,2.713,2.713,0,0,0-1.336.264.788.788,0,0,0-.456.7.7.7,0,0,0,.488.68,7.755,7.755,0,0,0,1.512.376,11.667,11.667,0,0,1,1.68.368,2.629,2.629,0,0,1,1.128.7,1.962,1.962,0,0,1,.472,1.408,2.228,2.228,0,0,1-1.04,1.92A4.9,4.9,0,0,1,19.7.112Z" transform="translate(160 115)" fill="#fff"/>
    </g>
  </g>
</svg>
