<svg xmlns="http://www.w3.org/2000/svg" width="24" height="24" viewBox="0 0 24 24">
  <g id="グループ_1951" data-name="グループ 1951" transform="translate(-1415 -3211)">
    <rect id="長方形_1811" data-name="長方形 1811" width="24" height="24" transform="translate(1415 3211)" fill="#f00075"/>
    <g id="グループ_1947" data-name="グループ 1947" transform="translate(1005.425 3182.285)">
      <g id="グループ_1035" data-name="グループ 1035" transform="translate(415.575 34.715)">
        <path id="パス_1010" data-name="パス 1010" d="M437.034,50.174c-1.63,0-1.834.007-2.474.036a4.405,4.405,0,0,0-1.456.279,3.068,3.068,0,0,0-1.755,1.754,4.4,4.4,0,0,0-.279,1.457c-.029.64-.036.844-.036,2.473s.007,1.834.036,2.474a4.4,4.4,0,0,0,.279,1.456,3.068,3.068,0,0,0,1.755,1.755,4.4,4.4,0,0,0,1.456.279c.64.029.844.036,2.474.036s1.834-.007,2.474-.036a4.407,4.407,0,0,0,1.457-.279,3.068,3.068,0,0,0,1.754-1.755A4.4,4.4,0,0,0,443,58.648c.029-.64.036-.844.036-2.474S443.027,54.34,443,53.7a4.407,4.407,0,0,0-.279-1.457,3.069,3.069,0,0,0-1.754-1.754,4.4,4.4,0,0,0-1.457-.279C438.868,50.181,438.664,50.174,437.034,50.174Zm0,1.081c1.6,0,1.792.006,2.425.035a3.307,3.307,0,0,1,1.114.207,1.982,1.982,0,0,1,1.139,1.139,3.306,3.306,0,0,1,.207,1.114c.029.633.035.823.035,2.425s-.006,1.792-.035,2.425a3.307,3.307,0,0,1-.207,1.114,1.984,1.984,0,0,1-1.139,1.139,3.307,3.307,0,0,1-1.114.207c-.633.029-.823.035-2.425.035s-1.792-.006-2.425-.035a3.308,3.308,0,0,1-1.114-.207,1.987,1.987,0,0,1-1.138-1.139,3.307,3.307,0,0,1-.207-1.114c-.029-.632-.035-.823-.035-2.425s.006-1.792.035-2.425a3.306,3.306,0,0,1,.207-1.114A1.984,1.984,0,0,1,433.5,51.5a3.307,3.307,0,0,1,1.114-.207C435.242,51.261,435.432,51.255,437.034,51.255Z" transform="translate(-431.034 -50.174)" fill="#fff" fill-rule="evenodd"/>
        <path id="パス_1011" data-name="パス 1011" d="M444.545,63.667a2,2,0,0,1,0-4h0a2,2,0,0,1,0,4Zm0-5.086a3.084,3.084,0,0,0,0,6.168h0a3.084,3.084,0,0,0,0-6.168Zm3.981-.056a.729.729,0,1,1-.729-.729.729.729,0,0,1,.729.729" transform="translate(-438.545 -55.665)" fill="#fff" fill-rule="evenodd"/>
      </g>
    </g>
  </g>
</svg>
