<svg xmlns="http://www.w3.org/2000/svg" width="24" height="24" viewBox="0 0 24 24">
  <g id="グループ_1948" data-name="グループ 1948" transform="translate(-1415 -3052)">
    <rect id="長方形_1809" data-name="長方形 1809" width="24" height="24" transform="translate(1415 3052)" fill="#01b923"/>
    <g id="グループ_1944" data-name="グループ 1944" transform="translate(1054.055 2814.362)">
      <g id="TYPE_A" data-name="TYPE A" transform="translate(364.963 242.44)">
        <g id="グループ_1029" data-name="グループ 1029" transform="translate(0)">
          <path id="パス_1002" data-name="パス 1002" d="M397,268.125c0-3.572-3.581-6.477-7.982-6.477s-7.982,2.906-7.982,6.477c0,3.2,2.84,5.884,6.675,6.391.26.056.614.171.7.394a1.639,1.639,0,0,1,.026.722s-.094.563-.114.683c-.035.2-.16.789.691.43a25.776,25.776,0,0,0,6.272-4.634h0A5.763,5.763,0,0,0,397,268.125" transform="translate(-381.035 -261.648)" fill="#fff"/>
          <g id="グループ_1028" data-name="グループ 1028" transform="translate(2.618 4.751)">
            <path id="パス_1003" data-name="パス 1003" d="M409.974,285.4h-.56a.155.155,0,0,0-.155.155v3.478a.155.155,0,0,0,.155.155h.56a.155.155,0,0,0,.155-.155V285.56a.155.155,0,0,0-.155-.155" transform="translate(-406.233 -285.405)" fill="#00b900"/>
            <path id="パス_1004" data-name="パス 1004" d="M419.489,285.4h-.56a.155.155,0,0,0-.155.155v2.066l-1.594-2.152-.012-.016h0l-.009-.01,0,0-.008-.007,0,0-.008-.005,0,0-.008,0-.005,0-.009,0-.005,0-.009,0h-.005l-.009,0h-.588a.155.155,0,0,0-.155.155v3.478a.155.155,0,0,0,.155.155h.56a.155.155,0,0,0,.156-.155v-2.066l1.6,2.155a.155.155,0,0,0,.039.038h0l.01.006,0,0,.008,0,.007,0,0,0,.011,0h0a.153.153,0,0,0,.04.005h.56a.155.155,0,0,0,.155-.155V285.56a.155.155,0,0,0-.155-.155" transform="translate(-411.893 -285.405)" fill="#00b900"/>
            <path id="パス_1005" data-name="パス 1005" d="M396.519,288.322H395V285.56a.155.155,0,0,0-.155-.155h-.56a.156.156,0,0,0-.156.155v3.478h0a.155.155,0,0,0,.044.107l0,0,0,0a.154.154,0,0,0,.107.043h2.237a.155.155,0,0,0,.155-.155v-.56a.155.155,0,0,0-.155-.156" transform="translate(-394.127 -285.405)" fill="#00b900"/>
            <path id="パス_1006" data-name="パス 1006" d="M437.995,286.276a.155.155,0,0,0,.155-.156v-.56a.155.155,0,0,0-.155-.156h-2.237a.155.155,0,0,0-.108.044l0,0,0,0a.156.156,0,0,0-.043.107h0v3.477h0a.155.155,0,0,0,.043.107l0,0,0,0a.155.155,0,0,0,.107.043h2.237a.155.155,0,0,0,.155-.155v-.56a.155.155,0,0,0-.155-.155h-1.521v-.588h1.521a.155.155,0,0,0,.155-.155v-.56a.155.155,0,0,0-.155-.156h-1.521v-.588Z" transform="translate(-427.308 -285.405)" fill="#00b900"/>
          </g>
        </g>
      </g>
    </g>
  </g>
</svg>
