<svg xmlns="http://www.w3.org/2000/svg" width="64" height="24" viewBox="0 0 64 24">
  <g id="グループ_2223" data-name="グループ 2223" transform="translate(-421 -5741)">
    <rect id="長方形_1281" data-name="長方形 1281" width="64" height="24" transform="translate(421 5741)" fill="#f5669d"/>
    <path id="パス_847" data-name="パス 847" d="M-26.63-3.284v-12.96h2.864V-5.22h2.976v1.936Zm6.464,0,2.448-12.96h3.264l2.416,12.96h-2.64L-15.11-6.02h-1.9l-.448,2.736Zm3.408-4.448h1.376l-.688-5.056Zm5.9,4.448v-12.96h3.28a6.609,6.609,0,0,1,2.64.424,2.49,2.49,0,0,1,1.328,1.328,6.059,6.059,0,0,1,.384,2.344v4.7a6.235,6.235,0,0,1-.384,2.376,2.518,2.518,0,0,1-1.32,1.352,6.391,6.391,0,0,1-2.616.432ZM-7.99-5.268h.448A1.759,1.759,0,0,0-6.6-5.46a.844.844,0,0,0,.36-.576A5.339,5.339,0,0,0-6.166-7v-5.648a3.956,3.956,0,0,0-.088-.928.768.768,0,0,0-.376-.512,2.009,2.009,0,0,0-.928-.16H-7.99ZM-.1-3.284v-5.3l-2.464-7.664h2.7l1.232,4.1,1.1-4.1H5.066L2.65-8.58v5.3ZM6.378-11.7l-.192-.816a.8.8,0,0,0,.8-.416,2.559,2.559,0,0,0,.176-1.024h-1.1v-2.288H8.346q0,.48-.008.928t-.024.848a4.609,4.609,0,0,1-.44,2.064A1.6,1.6,0,0,1,6.378-11.7Zm6.736,8.608a4.308,4.308,0,0,1-2.032-.432A2.765,2.765,0,0,1,9.85-4.86,6.142,6.142,0,0,1,9.386-7.2l2.448-.368a5.839,5.839,0,0,0,.152,1.344,1.49,1.49,0,0,0,.384.736.864.864,0,0,0,.6.224.571.571,0,0,0,.584-.3,1.55,1.55,0,0,0,.136-.64,2.309,2.309,0,0,0-.384-1.352,6,6,0,0,0-1.04-1.112l-1.12-.976a6.246,6.246,0,0,1-1.24-1.416,3.581,3.581,0,0,1-.5-1.96,3.2,3.2,0,0,1,.976-2.52,3.842,3.842,0,0,1,2.656-.872,3.43,3.43,0,0,1,1.672.352,2.458,2.458,0,0,1,.96.92,3.8,3.8,0,0,1,.448,1.2,7.617,7.617,0,0,1,.136,1.208l-2.464.3a9.843,9.843,0,0,0-.072-1,1.375,1.375,0,0,0-.232-.656.639.639,0,0,0-.544-.232.619.619,0,0,0-.584.336,1.388,1.388,0,0,0-.184.672,1.9,1.9,0,0,0,.344,1.176,6.661,6.661,0,0,0,.9.952l1.072.944a7.291,7.291,0,0,1,1.432,1.632,4.1,4.1,0,0,1,.584,2.256A3.335,3.335,0,0,1,16.09-4.7a3.039,3.039,0,0,1-1.176,1.176A3.583,3.583,0,0,1,13.114-3.092Z" transform="translate(458.326 5763.02)" fill="#fff"/>
  </g>
</svg>
