<svg xmlns="http://www.w3.org/2000/svg" width="64" height="24" viewBox="0 0 64 24">
  <g id="グループ_2224" data-name="グループ 2224" transform="translate(-489 -5741)">
    <rect id="長方形_1280" data-name="長方形 1280" width="64" height="24" transform="translate(489 5741)" fill="#3454dd"/>
    <path id="パス_846" data-name="パス 846" d="M-23.28-3.284l.224-12.96h3.072l1.424,7.536,1.536-7.536h2.96l.224,12.96h-2.032l-.24-8.624-1.5,8.624h-1.808l-1.6-8.688-.192,8.688Zm11.12,0v-12.96h5.824v1.952H-9.3v3.216H-7.04v1.984H-9.3V-5.22H-6.3v1.936Zm7.152,0v-12.96h2.016L-.336-10v-6.24H2.032v12.96H.1L-2.56-10v6.72ZM4.32-11.7l-.192-.816a.8.8,0,0,0,.8-.416A2.559,2.559,0,0,0,5.1-13.956H4v-2.288H6.288q0,.48-.008.928t-.024.848a4.609,4.609,0,0,1-.44,2.064A1.6,1.6,0,0,1,4.32-11.7Zm6.736,8.608a4.308,4.308,0,0,1-2.032-.432A2.765,2.765,0,0,1,7.792-4.86,6.142,6.142,0,0,1,7.328-7.2l2.448-.368a5.839,5.839,0,0,0,.152,1.344,1.49,1.49,0,0,0,.384.736.864.864,0,0,0,.6.224.571.571,0,0,0,.584-.3,1.55,1.55,0,0,0,.136-.64,2.309,2.309,0,0,0-.384-1.352,6,6,0,0,0-1.04-1.112l-1.12-.976a6.246,6.246,0,0,1-1.24-1.416,3.581,3.581,0,0,1-.5-1.96,3.2,3.2,0,0,1,.976-2.52,3.842,3.842,0,0,1,2.656-.872,3.43,3.43,0,0,1,1.672.352,2.458,2.458,0,0,1,.96.92,3.8,3.8,0,0,1,.448,1.2,7.617,7.617,0,0,1,.136,1.208l-2.464.3a9.843,9.843,0,0,0-.072-1,1.375,1.375,0,0,0-.232-.656.639.639,0,0,0-.544-.232.619.619,0,0,0-.584.336,1.388,1.388,0,0,0-.184.672,1.9,1.9,0,0,0,.344,1.176,6.662,6.662,0,0,0,.9.952l1.072.944a7.291,7.291,0,0,1,1.432,1.632,4.1,4.1,0,0,1,.584,2.256A3.335,3.335,0,0,1,14.032-4.7a3.039,3.039,0,0,1-1.176,1.176A3.583,3.583,0,0,1,11.056-3.092Z" transform="translate(525.656 5763.02)" fill="#fff"/>
  </g>
</svg>
