<svg xmlns="http://www.w3.org/2000/svg" xmlns:xlink="http://www.w3.org/1999/xlink" width="28" height="28" viewBox="0 0 28 28">
  <defs>
    <clipPath id="clip-path">
      <rect id="長方形_1464" data-name="長方形 1464" width="28" height="28" transform="translate(2046 8651)" fill="#fff" stroke="#707070" stroke-width="1" opacity="0.5"/>
    </clipPath>
  </defs>
  <g id="マスクグループ_94" data-name="マスクグループ 94" transform="translate(-2046 -8651)" clip-path="url(#clip-path)">
    <path id="hand-phone" d="M14.062,22h9.625a2.063,2.063,0,0,0,2.063-2.062V2.063A2.062,2.062,0,0,0,23.687,0H14.062A2.062,2.062,0,0,0,12,2.063V19.938A2.063,2.063,0,0,0,14.062,22ZM16.84,1.375h4.07v.344H16.84Zm-3.465.687a.687.687,0,0,1,.687-.687h1.4V2.406a.687.687,0,0,0,.687.687H21.6a.687.687,0,0,0,.687-.687V1.375h1.4a.688.688,0,0,1,.688.687V19.938a.688.688,0,0,1-.687.688H14.062a.688.688,0,0,1-.687-.687Z" transform="translate(2041 8654)" fill="#91a6be"/>
  </g>
</svg>
