<svg xmlns="http://www.w3.org/2000/svg" xmlns:xlink="http://www.w3.org/1999/xlink" width="28" height="28" viewBox="0 0 28 28">
  <defs>
    <clipPath id="clip-path">
      <rect id="長方形_1465" data-name="長方形 1465" width="28" height="28" transform="translate(2012 8651)" fill="#fff" stroke="#707070" stroke-width="1" opacity="0.5"/>
    </clipPath>
  </defs>
  <g id="マスクグループ_95" data-name="マスクグループ 95" transform="translate(-2012 -8651)" clip-path="url(#clip-path)">
    <path id="user_4_" data-name="user (4)" d="M14.449,10.738a5.452,5.452,0,1,0-6.717,0A9.094,9.094,0,0,0,2,19.173v.909a.909.909,0,0,0,.909.909H19.265a.909.909,0,0,0,.909-.909v-.909a9.094,9.094,0,0,0-5.725-8.435Zm-7-4.286a3.635,3.635,0,1,1,3.635,3.635A3.635,3.635,0,0,1,7.452,6.451ZM3.817,19.173a7.27,7.27,0,1,1,14.539,0Z" transform="translate(2015 8654.01)" fill="#91a6be"/>
  </g>
</svg>
