<svg id="レイヤー_2" data-name="レイヤー 2" xmlns="http://www.w3.org/2000/svg" width="104.312" height="20" viewBox="0 0 104.312 20">
  <g id="レイヤー_2-2" data-name="レイヤー 2">
    <path id="パス_4" data-name="パス 4" d="M26.042,8.46a1.25,1.25,0,0,0-.926.386,1.315,1.315,0,0,0,0,1.847h0a1.234,1.234,0,0,0,.926.386,1.288,1.288,0,0,0,.918-.386,1.361,1.361,0,0,0,0-1.847A1.288,1.288,0,0,0,26.042,8.46Z" transform="translate(-15.197 -5.197)" fill="#444"/>
    <path id="パス_5" data-name="パス 5" d="M8.87,12.507c0,3.22-1,4.848-3,4.848a2.341,2.341,0,0,1-1.732-.582C3.3,16,2.877,14.539,2.877,12.5V0H0V12.487c0,2.788.694,4.836,2.09,6.12a5.4,5.4,0,0,0,3.776,1.369,5.492,5.492,0,0,0,3.806-1.369c1.4-1.284,2.117-3.309,2.117-6.12V12.1H9.256Z" fill="#444"/>
    <path id="パス_6" data-name="パス 6" d="M17.432,11.065a1.307,1.307,0,1,0-.918-2.229,1.361,1.361,0,0,0,0,1.847A1.288,1.288,0,0,0,17.432,11.065Z" transform="translate(-9.924 -5.191)" fill="#444"/>
    <path id="パス_7" data-name="パス 7" d="M47.194,12.822l-.451-.042v2.588l.312.046a4,4,0,0,1,2.97,1.82,6.4,6.4,0,0,1,.7,3.309,4.546,4.546,0,0,1-1.192,3.371,4.457,4.457,0,0,1-3.305,1.13H45.84v2.538h.386a7.59,7.59,0,0,0,5.013-1.62,6.6,6.6,0,0,0,2.245-5.422c0-2.854-.771-4.906-2.275-6.14a7.169,7.169,0,0,0-4.015-1.577Z" transform="translate(-28.162 -7.851)" fill="#444"/>
    <path id="パス_8" data-name="パス 8" d="M70.4,13.825a1.2,1.2,0,0,0,.922-.386A1.3,1.3,0,1,0,69.5,11.577h-.023a1.369,1.369,0,0,0,0,1.847A1.2,1.2,0,0,0,70.4,13.825Z" transform="translate(-42.464 -6.884)" fill="#444"/>
    <rect id="長方形_13" data-name="長方形 13" width="7.852" height="2.63" transform="translate(17.003 0.474)" fill="#444"/>
    <rect id="長方形_14" data-name="長方形 14" width="2.9" height="8.955" transform="translate(26.926 8.369)" fill="#444"/>
    <rect id="長方形_15" data-name="長方形 15" width="2.881" height="8.955" transform="translate(13.452 8.369)" fill="#444"/>
    <path id="パス_9" data-name="パス 9" d="M70.4,5.221h0a1.28,1.28,0,0,0,.922-.386,1.358,1.358,0,0,0,.386-.945,1.3,1.3,0,0,0-.386-.922,1.28,1.28,0,0,0-2.206.926A1.3,1.3,0,0,0,70.4,5.221Z" transform="translate(-42.463 -1.58)" fill="#444"/>
    <path id="パス_10" data-name="パス 10" d="M85.09,9.429h2.426a1.435,1.435,0,0,1,.875.312,1.057,1.057,0,0,1,.363.833v9h5.7V16.969H91.65V10.575a3.471,3.471,0,0,0-1.2-2.7,4.192,4.192,0,0,0-2.939-1.057h-2.43V0h-2.9V19.576h2.9Z" transform="translate(-50.493)" fill="#444"/>
    <path id="パス_11" data-name="パス 11" d="M119.579,21.951a3.66,3.66,0,0,0,2.314-.841v.721h2.453V7.52h-2.453v4.755a3.587,3.587,0,0,0-2.314-.883,3.425,3.425,0,0,0-2.808,1.373c-.609.771-.771,1.512-.771,3.9s.139,3.132.748,3.914A3.417,3.417,0,0,0,119.579,21.951Zm.605-8.1c1.577,0,1.708,1.334,1.708,2.823s-.131,2.835-1.708,2.835-1.728-1.23-1.728-2.835.123-2.835,1.728-2.835Z" transform="translate(-71.264 -4.62)" fill="#444"/>
    <path id="パス_12" data-name="パス 12" d="M144.484,28.15a4.8,4.8,0,0,0,3.741-1.678l.154-.174-1.786-1.519-.158.154a2.819,2.819,0,0,1-1.99.883,1.928,1.928,0,0,1-2.1-1.782,1.39,1.39,0,0,1,0-.177h6.132V22a4.242,4.242,0,0,0-4.107-4.393h-.212c-2.075,0-4.3,1.4-4.3,5.31C139.875,27.467,142.768,28.15,144.484,28.15Zm-.328-8.226h0a1.8,1.8,0,0,1,1.832,1.828h-3.644A1.781,1.781,0,0,1,144.156,19.924Z" transform="translate(-85.922 -10.819)" fill="#444"/>
    <path id="パス_13" data-name="パス 13" d="M179.455,18.954H174.7V7.122h4.751V3.79H167.01V7.122h4.724V18.954H167.01v3.332h12.445Z" transform="translate(-102.602 -2.328)" fill="#444"/>
    <path id="パス_14" data-name="パス 14" d="M202.719,20.378l2.163,1.543a.282.282,0,0,0,.147.042.258.258,0,0,0,.15-.054,23.649,23.649,0,0,0,5.233-5.931,52.623,52.623,0,0,1,3.085,5.758.247.247,0,0,0,.324.108l2.649-1.192a.224.224,0,0,0,.116-.127.189.189,0,0,0,0-.17c-1.157-2.121-2.808-4.8-4.547-7.37a57.267,57.267,0,0,0,3.043-9.73c.023-.093-11.8-.05-11.8-.05a.228.228,0,0,0-.235.22v2.16a.228.228,0,0,0,.235.22h7.906c-1.138,5.816-4.447,11.381-8.484,14.223a.212.212,0,0,0-.062.293A.289.289,0,0,0,202.719,20.378Z" transform="translate(-124.473 -1.963)" fill="#444"/>
    <path id="パス_15" data-name="パス 15" d="M243.957,25.38a3.71,3.71,0,0,1-.964,2.518,3.012,3.012,0,0,1-2.314,1.057h-1.157v3.332h1.157a5.7,5.7,0,0,0,4.389-2.029,7,7,0,0,0,1.816-4.879v-2h3.857V20.07H238.4v3.309h5.557Z" transform="translate(-146.46 -12.33)" fill="#444"/>
    <rect id="長方形_16" data-name="長方形 16" width="12.372" height="3.328" transform="translate(91.94 1.462)" fill="#444"/>
  </g>
</svg>
