<?xml version="1.0" encoding="utf-8"?>
<!-- Generator: Adobe Illustrator 25.2.0, SVG Export Plug-In . SVG Version: 6.00 Build 0)  -->
<svg version="1.1" id="レイヤー_2_1_" xmlns="http://www.w3.org/2000/svg" xmlns:xlink="http://www.w3.org/1999/xlink" x="0px"
	 y="0px" viewBox="0 0 104.3 20" style="enable-background:new 0 0 104.3 20;" xml:space="preserve">
<style type="text/css">
	.st0{fill:#FFFFFF;}
</style>
<path id="パス_4" class="st0" d="M10.8,3.3c-0.3,0-0.7,0.1-0.9,0.4C9.4,4.2,9.4,5,9.9,5.5l0,0c0.2,0.3,0.6,0.4,0.9,0.4
	c0.3,0,0.7-0.1,0.9-0.4c0.5-0.5,0.5-1.3,0-1.8C11.5,3.4,11.2,3.3,10.8,3.3z"/>
<path id="パス_5" class="st0" d="M8.9,12.5c0,3.2-1,4.8-3,4.8c-0.6,0-1.3-0.2-1.7-0.6c-0.8-0.8-1.3-2.2-1.3-4.3V0H0v12.5
	c0,2.8,0.7,4.8,2.1,6.1c1,0.9,2.4,1.4,3.8,1.4c1.4,0,2.8-0.4,3.8-1.4c1.4-1.3,2.1-3.3,2.1-6.1v-0.4H9.3L8.9,12.5z"/>
<path id="パス_6" class="st0" d="M7.5,5.9c0.7,0,1.3-0.6,1.3-1.3c0-0.7-0.6-1.3-1.3-1.3c-0.4,0-0.7,0.1-0.9,0.4
	C6.1,4.2,6.1,5,6.6,5.5C6.8,5.7,7.2,5.9,7.5,5.9z"/>
<path id="パス_7" class="st0" d="M19,5l-0.5,0v2.6l0.3,0c1.2,0.1,2.3,0.8,3,1.8c0.5,1,0.8,2.2,0.7,3.3c0.1,1.2-0.4,2.5-1.2,3.4
	c-0.9,0.8-2.1,1.2-3.3,1.1h-0.4v2.5h0.4c1.8,0.1,3.6-0.5,5-1.6c1.6-1.4,2.4-3.4,2.2-5.4c0-2.9-0.8-4.9-2.3-6.1
	C21.9,5.6,20.5,5.1,19,5L19,5z"/>
<path id="パス_8" class="st0" d="M27.9,6.9c0.3,0,0.7-0.1,0.9-0.4c0.5-0.5,0.5-1.3,0-1.8c-0.5-0.5-1.3-0.5-1.8,0h0
	c-0.5,0.5-0.5,1.3,0,1.8C27.2,6.8,27.6,6.9,27.9,6.9z"/>
<rect id="長方形_13" x="17" y="0.5" class="st0" width="7.9" height="2.6"/>
<rect id="長方形_14" x="26.9" y="8.4" class="st0" width="2.9" height="9"/>
<rect id="長方形_15" x="13.5" y="8.4" class="st0" width="2.9" height="9"/>
<path id="パス_9" class="st0" d="M27.9,3.6L27.9,3.6c0.3,0,0.7-0.1,0.9-0.4c0.2-0.3,0.4-0.6,0.4-0.9c0-0.3-0.1-0.7-0.4-0.9
	c-0.5-0.5-1.3-0.5-1.8,0c-0.3,0.3-0.4,0.6-0.4,1C26.6,3,27.2,3.6,27.9,3.6C27.9,3.6,27.9,3.6,27.9,3.6z"/>
<path id="パス_10" class="st0" d="M34.6,9.4H37c0.3,0,0.6,0.1,0.9,0.3c0.2,0.2,0.4,0.5,0.4,0.8v9H44V17h-2.8v-6.4
	c0-1-0.4-2-1.2-2.7c-0.8-0.7-1.9-1.1-2.9-1.1h-2.4V0h-2.9v19.6h2.9L34.6,9.4z"/>
<path id="パス_11" class="st0" d="M48.3,17.3c0.8,0,1.7-0.3,2.3-0.8v0.7h2.5V2.9h-2.5v4.8c-0.6-0.6-1.5-0.9-2.3-0.9
	c-1.1,0-2.1,0.5-2.8,1.4c-0.6,0.8-0.8,1.5-0.8,3.9s0.1,3.1,0.7,3.9C46.1,16.8,47.2,17.4,48.3,17.3z M48.9,9.2c1.6,0,1.7,1.3,1.7,2.8
	s-0.1,2.8-1.7,2.8s-1.7-1.2-1.7-2.8S47.3,9.2,48.9,9.2L48.9,9.2z"/>
<path id="パス_12" class="st0" d="M58.6,17.3c1.4,0,2.8-0.6,3.7-1.7l0.2-0.2L60.7,14l-0.2,0.2c-0.5,0.5-1.2,0.9-2,0.9
	c-1.1,0.1-2-0.7-2.1-1.7c0,0,0,0,0,0c0-0.1,0-0.1,0-0.2h6.1v-1.9c0.1-2.3-1.7-4.3-4.1-4.4c0,0,0,0,0,0h-0.2c-2.1,0-4.3,1.4-4.3,5.3
	C54,16.6,56.8,17.3,58.6,17.3z M58.2,9.1L58.2,9.1c1,0,1.8,0.8,1.8,1.8c0,0,0,0,0,0.1h-3.6C56.4,9.9,57.2,9.1,58.2,9.1
	C58.2,9.1,58.2,9.1,58.2,9.1z"/>
<path id="パス_13" class="st0" d="M76.9,16.6h-4.8V4.8h4.8V1.5H64.4v3.3h4.7v11.8h-4.7V20h12.4L76.9,16.6z"/>
<path id="パス_14" class="st0" d="M78.2,18.4l2.2,1.5c0,0,0.1,0,0.1,0c0.1,0,0.1,0,0.1-0.1c2.1-1.7,3.8-3.7,5.2-5.9
	c1.1,1.9,2.2,3.8,3.1,5.8c0.1,0.1,0.2,0.2,0.3,0.1l2.6-1.2c0.1,0,0.1-0.1,0.1-0.1c0-0.1,0-0.1,0-0.2c-1.2-2.1-2.8-4.8-4.5-7.4
	c1.3-3.1,2.3-6.4,3-9.7c0-0.1-11.8,0-11.8,0c-0.1,0-0.2,0.1-0.2,0.2v2.2c0,0.1,0.1,0.2,0.2,0.2h7.9c-1.1,5.8-4.4,11.4-8.5,14.2
	C78.1,18.1,78.1,18.3,78.2,18.4C78.2,18.4,78.2,18.4,78.2,18.4L78.2,18.4z"/>
<path id="パス_15" class="st0" d="M97.5,13c0,0.9-0.3,1.8-1,2.5c-0.6,0.7-1.4,1.1-2.3,1.1h-1.2V20h1.2c1.7,0,3.3-0.7,4.4-2
	c1.2-1.3,1.9-3.1,1.8-4.9v-2h3.9V7.7H91.9V11h5.6V13z"/>
<rect id="長方形_16" x="91.9" y="1.5" class="st0" width="12.4" height="3.3"/>
</svg>
