<?xml version="1.0" encoding="utf-8"?>
<!-- Generator: Adobe Illustrator 24.1.2, SVG Export Plug-In . SVG Version: 6.00 Build 0)  -->
<svg version="1.1" id="レイヤー_1" xmlns="http://www.w3.org/2000/svg" xmlns:xlink="http://www.w3.org/1999/xlink" x="0px"
	 y="0px" viewBox="0 0 82.6 45" style="enable-background:new 0 0 82.6 45;" xml:space="preserve">
<style type="text/css">
	.st0{fill:#FFFFFF;}
</style>
<g>
	<path class="st0" d="M67.3,8.9l-10-8.4c-0.8-0.7-2.1-0.7-2.9,0l-10,8.4c-0.9,0.8-0.9,2.1,0,2.8l10.1,8.4c0.8,0.7,2.1,0.7,2.9,0
		l10.1-8.4C68.3,10.9,68.3,9.7,67.3,8.9z M60.4,14.9c-2.5,2.5-6.6,2.5-9.1,0s-2.5-6.6,0-9.1s6.6-2.5,9.1,0S62.9,12.4,60.4,14.9z"/>
	<path class="st0" d="M81.9,21l-10.1-8.4C71,12,69.7,12,69,12.6L58.9,21c-0.9,0.7-0.9,2.1,0,2.8L69,32.2c0.8,0.7,2.1,0.7,2.9,0
		L82,23.8C82.8,23.1,82.8,21.8,81.9,21z M74.9,27c-2.5,2.5-6.6,2.5-9.1,0s-2.5-6.6,0-9.1s6.6-2.5,9.1,0S77.4,24.4,74.9,27z"/>
	<path class="st0" d="M38.2,8.9l-10-8.4c-0.8-0.7-2.1-0.7-2.9,0l-10,8.4c-0.9,0.8-0.9,2.1,0,2.8l10.1,8.4c0.8,0.7,2.1,0.7,2.9,0
		l10.1-8.4C39.2,10.9,39.2,9.7,38.2,8.9z M31.3,14.9c-2.5,2.5-6.6,2.5-9.1,0s-2.5-6.6,0-9.1s6.6-2.5,9.1,0S33.8,12.4,31.3,14.9z"/>
	<path class="st0" d="M52.8,21l-10.1-8.4c-0.8-0.7-2.1-0.7-2.9,0l-10,8.4c-0.9,0.8-0.9,2.1,0,2.8l10.1,8.4c0.8,0.7,2.1,0.7,2.9,0
		l10.1-8.4C53.7,23.1,53.7,21.8,52.8,21z M45.8,27c-2.5,2.5-6.6,2.5-9.1,0c-2.5-2.5-2.5-6.6,0-9.1s6.6-2.5,9.1,0
		C48.3,20.4,48.3,24.4,45.8,27z"/>
	<path class="st0" d="M67.3,33.1L57,24.5c-0.6-0.5-1.7-0.5-2.4,0l-10.3,8.6c-0.9,0.8-0.9,2.1,0,2.8l10.3,8.6c0.6,0.5,1.7,0.5,2.4,0
		L67.3,36C68.3,35.2,68.3,33.9,67.3,33.1z M60.4,39c-2.5,2.5-6.6,2.5-9.1,0s-2.5-6.6,0-9.1s6.6-2.5,9.1,0
		C62.9,32.5,62.9,36.5,60.4,39z"/>
	<path class="st0" d="M23.7,21l-10.1-8.4c-0.8-0.7-2.1-0.7-2.9,0L0.7,21c-0.9,0.8-0.9,2.1,0,2.8l10.1,8.4c0.8,0.7,2.1,0.7,2.9,0
		l10.1-8.4C24.6,23.1,24.6,21.8,23.7,21z M16.7,27c-2.5,2.5-6.6,2.5-9.1,0s-2.5-6.6,0-9.1s6.6-2.5,9.1,0S19.2,24.4,16.7,27z"/>
	<path class="st0" d="M38.2,33.1l-10.1-8.4c-0.8-0.7-2.1-0.7-2.9,0l-10.1,8.4c-0.9,0.8-0.9,2.1,0,2.8l10.1,8.4
		c0.8,0.7,2.1,0.7,2.9,0L38.2,36C39.2,35.2,39.2,33.9,38.2,33.1z M31.3,39c-2.5,2.5-6.6,2.5-9.1,0s-2.5-6.6,0-9.1s6.6-2.5,9.1,0
		C33.8,32.5,33.8,36.5,31.3,39z"/>
</g>
</svg>
