<svg xmlns="http://www.w3.org/2000/svg" width="35.926" height="39.162" viewBox="0 0 35.926 39.162">
  <path id="logo_min" d="M243.153,227.107a9.274,9.274,0,0,0-5.6-1.952,10.72,10.72,0,0,0-8.891,4.881,18.325,18.325,0,0,0-2.93,10.589,22.29,22.29,0,0,0,2.62,10.434,10.644,10.644,0,0,0,9.458,4.983,12.644,12.644,0,0,0,8.89-4.006c.822-.826,1.852-2.16,3.137-2.16a1.821,1.821,0,0,1,1.8,1.8c0,2.466-3.445,5.09-5.345,6.222a20.669,20.669,0,0,1-10.33,2.669c-10.9,0-20.251-7.5-20.251-18.911,0-11.512,10.073-20.251,21.226-20.251a22.147,22.147,0,0,1,11.922,3.394,3.408,3.408,0,0,1,1.7,1.7,33.6,33.6,0,0,1,.462,5.655,1.959,1.959,0,0,1-2.16,2c-1.386,0-2-1.59-2.515-2.62a10.129,10.129,0,0,0-3.189-4.419" transform="translate(-215.709 -221.401)" fill="#47172d"/>
</svg>
