<svg xmlns="http://www.w3.org/2000/svg" width="268.545" height="39.676" viewBox="0 0 268.545 39.676">
  <g id="logo" transform="translate(-215.709 -220.615)">
    <path id="パス_546" data-name="パス 546" d="M243.153,227.107a9.274,9.274,0,0,0-5.6-1.952,10.72,10.72,0,0,0-8.891,4.881,18.325,18.325,0,0,0-2.93,10.589,22.29,22.29,0,0,0,2.62,10.434,10.644,10.644,0,0,0,9.458,4.983,12.644,12.644,0,0,0,8.89-4.006c.822-.826,1.852-2.16,3.137-2.16a1.821,1.821,0,0,1,1.8,1.8c0,2.466-3.445,5.09-5.345,6.222a20.669,20.669,0,0,1-10.33,2.669c-10.9,0-20.251-7.5-20.251-18.911,0-11.512,10.073-20.251,21.226-20.251a22.147,22.147,0,0,1,11.922,3.394,3.408,3.408,0,0,1,1.7,1.7,33.6,33.6,0,0,1,.462,5.655,1.959,1.959,0,0,1-2.16,2c-1.386,0-2-1.59-2.515-2.62a10.129,10.129,0,0,0-3.189-4.419" transform="translate(0 -0.272)" fill="#47172d"/>
    <path id="パス_547" data-name="パス 547" d="M301.949,253a9.766,9.766,0,0,0,.2,2.726,3.312,3.312,0,0,0,.974.873,1.512,1.512,0,0,1,.927,1.333c0,1.183-.927,1.6-1.953,1.6h-8.686c-1.027,0-1.954-.412-1.954-1.6a1.515,1.515,0,0,1,.926-1.333,3.306,3.306,0,0,0,.975-.873,9.867,9.867,0,0,0,.208-2.726v-8.531c0-2.928-.464-5.912-4.165-5.912a4.624,4.624,0,0,0-3.443,1.492,4.756,4.756,0,0,0-1.13,3.6V253a9.814,9.814,0,0,0,.2,2.726,3.287,3.287,0,0,0,.978.873,1.517,1.517,0,0,1,.924,1.333c0,1.183-.924,1.6-1.951,1.6H276.3c-1.029,0-1.954-.412-1.954-1.6a1.523,1.523,0,0,1,.925-1.333,3.213,3.213,0,0,0,.975-.873,9.671,9.671,0,0,0,.209-2.726V231.2a32.038,32.038,0,0,0-.155-3.854c-.205-1.079-.618-1.337-1.49-1.85-.617-.36-1.286-.617-1.286-1.438,0-1.389,2.158-1.7,3.138-1.954a25.481,25.481,0,0,1,6.063-1.492c2.415,0,2.108,3.5,2.108,5.037v11.2a13.1,13.1,0,0,1,7.5-2.465,10.067,10.067,0,0,1,7.3,2.774c2,2.105,2.315,4.832,2.315,7.658Z" transform="translate(-19.991)" fill="#47172d"/>
    <path id="パス_548" data-name="パス 548" d="M348.807,252.942a8.689,8.689,0,0,0,.256,2.827,2.079,2.079,0,0,0,1.131.977c.72.359,1.284.718,1.284,1.594,0,1.645-1.543,1.645-2.775,1.645h-5.141c-2.619,0-2.619-.875-2.775-3.189-1.745,2.879-4.831,3.957-7.967,3.957-4.832,0-9.251-2.668-9.251-7.964,0-7.3,9.251-9.1,14.906-9.1h1.748c0-3.087-1.491-5.4-4.781-5.4-3.136,0-3.6,3.291-6.835,3.291-1.492,0-3.185-.669-3.185-2.468,0-3.6,8.119-4.264,10.638-4.264a17.645,17.645,0,0,1,8.584,1.9c3.187,1.85,4.164,4.472,4.164,8.071Zm-9.255-6.012c-3.647,0-7.345,1.8-7.345,5.91,0,1.952,1.128,3.7,3.235,3.7a4.875,4.875,0,0,0,3.957-2.466c1.132-1.8,1.079-3.444,1.079-5.5v-1.644Zm-8.992-15.369a4.344,4.344,0,0,1-2.006.875,1.05,1.05,0,0,1-.974-.977,2.845,2.845,0,0,1,1.129-1.851l5.243-5.447c.773-.823,2-2.211,3.185-2.211s2.469,1.44,3.188,2.16l5.293,5.4a3.13,3.13,0,0,1,1.182,1.954,1.1,1.1,0,0,1-.975,1.026,5.034,5.034,0,0,1-2-.925L337.19,227.4Z" transform="translate(-37.294 -0.462)" fill="#47172d"/>
    <path id="パス_549" data-name="パス 549" d="M379.581,254.9c0,2.313.258,3.595,2.93,3.595,1.543,0,3.494-.2,3.494,2.009,0,1.848-2.1,1.953-3.443,1.953h-7.04c-3.238,0-4.317-.465-4.317-3.961v-16.7h-1.028c-1.49,0-3.085,0-3.085-2,0-1.336.924-1.643,2.056-1.848,1.388-.206,2.621-.362,3.445-1.594a15.9,15.9,0,0,0,1.437-4.677c.362-1.9.771-2.57,2.828-2.57,2.362,0,2.571.308,2.571,2.468v6.167h3.03c1.543,0,3.189.05,3.189,2.054,0,1.8-1.647,2-3.086,2h-2.98Z" transform="translate(-52.343 -2.934)" fill="#47172d"/>
    <path id="パス_550" data-name="パス 550" d="M414.657,263.461c2.777,0,4.884-1.231,6.938-3.081.72-.62,1.078-1.133,2.107-1.133a1.51,1.51,0,0,1,1.489,1.39c0,1.851-2.773,4.005-4.16,4.78a15.766,15.766,0,0,1-8.531,2.156c-6.992,0-13.827-4.571-13.827-12.126,0-8.637,7.452-13.774,15.469-13.774,4.573,0,10.535,2.107,10.535,7.5,0,3.807-3.906,5.96-7.039,6.992a67.314,67.314,0,0,1-9.613,1.795,6.72,6.72,0,0,0,6.631,5.5m2.007-14.852c0-1.954-1.031-3.339-3.085-3.339-4.318,0-6.271,5.653-6.016,9.249,3.393-.256,9.1-1.644,9.1-5.91" transform="translate(-63.263 -7.281)" fill="#47172d"/>
    <path id="パス_551" data-name="パス 551" d="M454.586,259.866a10.268,10.268,0,0,0,.258,2.822,2.188,2.188,0,0,0,1.128.926c.668.361,1.236.72,1.236,1.544,0,1.645-1.543,1.645-2.776,1.645h-8.07c-1.231,0-2.775,0-2.775-1.645,0-.824.567-1.183,1.234-1.544a2.207,2.207,0,0,0,1.133-.926,10.4,10.4,0,0,0,.255-2.822V250.46c0,.722,0-.359-.307-1.389-.31-1.128-.77-1.388-1.854-1.9-.769-.359-1.386-.769-1.386-1.7,0-1.282,1.543-1.9,2.519-2.315a25.732,25.732,0,0,1,5.4-1.486c2.313,0,2.671,3.648,2.93,5.344,1.231-2.519,3.749-5.344,6.731-5.344a3.713,3.713,0,0,1,3.856,3.8c0,1.594-.926,3.548-2.724,3.548-1.337,0-2.366-.67-3.444-.67a2.984,2.984,0,0,0-2.365,1.9,12,12,0,0,0-.976,5.551Z" transform="translate(-78.472 -7.281)" fill="#47172d"/>
    <path id="パス_552" data-name="パス 552" d="M502.783,259.762a8.662,8.662,0,0,0,.258,2.825,2.074,2.074,0,0,0,1.131.977c.718.361,1.286.719,1.286,1.594,0,1.645-1.543,1.645-2.777,1.645h-5.138c-2.62,0-2.62-.873-2.779-3.188-1.744,2.878-4.828,3.957-7.961,3.957-4.833,0-9.253-2.669-9.253-7.965,0-7.3,9.253-9.094,14.9-9.094H494.2c0-3.087-1.488-5.4-4.779-5.4-3.136,0-3.6,3.292-6.835,3.292-1.492,0-3.189-.67-3.189-2.47,0-3.6,8.123-4.263,10.642-4.263a17.654,17.654,0,0,1,8.583,1.9c3.185,1.851,4.161,4.472,4.161,8.071Zm-9.252-6.013c-3.647,0-7.347,1.8-7.347,5.91,0,1.951,1.129,3.7,3.237,3.7a4.866,4.866,0,0,0,3.955-2.467c1.132-1.8,1.082-3.443,1.082-5.5v-1.643Z" transform="translate(-90.535 -7.281)" fill="#47172d"/>
    <path id="パス_553" data-name="パス 553" d="M524.184,229.018c0-2.723,2.519-4.315,4.985-4.315,2.519,0,5.039,1.335,5.039,4.111,0,2.673-2.828,4.061-5.142,4.061-2.26,0-4.882-1.339-4.882-3.857m1.543,17.374a32.065,32.065,0,0,0-.155-3.856c-.206-1.078-.614-1.337-1.488-1.852-.62-.358-1.288-.616-1.288-1.439,0-1.385,2.162-1.7,3.138-1.954A25.59,25.59,0,0,1,532,235.8c2.416,0,2.108,3.495,2.108,5.037v13.567a9.733,9.733,0,0,0,.2,2.725,3.29,3.29,0,0,0,.977.874,1.517,1.517,0,0,1,.923,1.333c0,1.184-.923,1.6-1.952,1.6h-8.685c-1.027,0-1.954-.412-1.954-1.6a1.521,1.521,0,0,1,.927-1.333,3.325,3.325,0,0,0,.975-.874,9.784,9.784,0,0,0,.205-2.725Z" transform="translate(-106.18 -1.413)" fill="#47172d"/>
    <path id="パス_554" data-name="パス 554" d="M561.851,251.436c3.909,1.027,7.505,2.466,7.505,7.244a8.294,8.294,0,0,1-4.109,6.89,15.841,15.841,0,0,1-7.969,2,16.007,16.007,0,0,1-6.781-1.333c-1.749-.773-4.061-2.313-4.061-4.419a2.287,2.287,0,0,1,2.159-2.366c1.18,0,1.644.668,2.366,1.49,1.643,1.8,2.722,2.981,5.29,2.981,1.749,0,4.37-.824,4.37-3.032,0-5.243-13.361-1.234-13.361-10.484,0-6.372,6.423-8.737,11.769-8.737,2.364,0,6.114.616,8.12,1.951,1.078.669,1.078,2.312,1.078,3.444s-.049,2.519-1.541,2.519c-2.313,0-2.107-4.419-7.095-4.419-1.747,0-3.905.822-3.905,2.877,0,1.85,2.313,2.417,3.754,2.775Z" transform="translate(-114.354 -7.281)" fill="#47172d"/>
    <path id="パス_555" data-name="パス 555" d="M601.633,256.914c2.774,0,4.881-1.231,6.938-3.081.72-.618,1.078-1.132,2.1-1.132a1.51,1.51,0,0,1,1.491,1.389c0,1.851-2.775,4.005-4.162,4.78a15.787,15.787,0,0,1-8.533,2.155c-6.989,0-13.824-4.571-13.824-12.126,0-8.637,7.452-13.774,15.469-13.774,4.575,0,10.538,2.107,10.538,7.5,0,3.807-3.908,5.961-7.043,6.992A66.957,66.957,0,0,1,595,251.414a6.718,6.718,0,0,0,6.632,5.5m2-14.852c0-1.954-1.026-3.339-3.085-3.339-4.315,0-6.269,5.654-6.011,9.249,3.393-.256,9.1-1.643,9.1-5.91m-7.4-10.844c-.563.411-1.388,1.132-2.109,1.132a1.1,1.1,0,0,1-1.179-1.03,3.946,3.946,0,0,1,.769-1.694l2.672-4.679c.978-1.7,1.08-2.106,3.083-2.158h2.315c1.076-.1,2.671-.2,2.671,1.388,0,1.081-.873,1.593-1.645,2.16Z" transform="translate(-127.912 -0.734)" fill="#47172d"/>
  </g>
</svg>
