<svg xmlns="http://www.w3.org/2000/svg" width="66" height="43.857" viewBox="0 0 66 43.857">
  <g id="グループ_4179" data-name="グループ 4179" transform="translate(-472.073 -854.716)">
    <path id="パス_3291" data-name="パス 3291" d="M702.679,891.891a.42.42,0,0,0-.48-.3c-.286.011-.573,0-.86,0-.857,0-.958.077-1.127.933a10.348,10.348,0,0,1-.309,1.448c-.218.622-.378.74-1.018.745a14.393,14.393,0,0,1-1.562-.031c-.657-.067-.895-.373-.917-1.034a7.3,7.3,0,0,1,.216-1.7q1.034-5.087,1.87-10.209a5.736,5.736,0,0,1,.168-.762,1.359,1.359,0,0,1,1.483-1.112c.833-.016,1.666-.026,2.5-.039a7.563,7.563,0,0,0-1.655-5.09c-.243-.306-.46-.632-.7-.938a11.219,11.219,0,0,1-2.453-7.329c.028-3.362.01-6.725,0-10.087a1.407,1.407,0,0,0-1.485-1.624,15.748,15.748,0,0,0-2.656.026,1.367,1.367,0,0,0-1.267,1.186,4.369,4.369,0,0,0-.038.778q0,5,0,10.009a12.418,12.418,0,0,1-.1,1.793,11.368,11.368,0,0,1-2.687,5.724,8.079,8.079,0,0,0-1.961,6.154,3.419,3.419,0,0,1,2.993-.4.937.937,0,0,1,.47.767c.025.311.034.623.034.935q0,4.253,0,8.506c0,.208-.011.417.008.624.063.684.242.854.932.86.6.005,1.2-.03,1.795-.018.689.014.916.253.963.947.117,1.749-.18,2.071-1.912,2.071-1.327,0-2.654-.017-3.981.008a1.505,1.505,0,0,1-1.3-.559c-.006.754-.017,1.508-.016,2.262,0,1.424.618,2.038,2.048,2.039q5.463,0,10.926,0c1.4,0,2.027-.651,2.045-2.06.015-1.143-.054-2.287.039-3.429q0-.153,0-.306A1.84,1.84,0,0,1,702.679,891.891Z" transform="translate(-181.8 0)" fill="#fff"/>
    <path id="パス_3292" data-name="パス 3292" d="M809.721,904.959a7.522,7.522,0,0,0-1.563-4.657c-.677-.893-1.335-1.8-2.025-2.684a5.842,5.842,0,0,1-1.225-3.787c.018-2.033.007-4.067,0-6.1,0-.923-.176-1.1-1.09-1.108q-1.878-.011-3.756,0c-.891,0-1.1.212-1.1,1.114,0,2.112-.011,4.224,0,6.335a5.42,5.42,0,0,1-1.12,3.423c-.742.975-1.481,1.952-2.2,2.941a7.4,7.4,0,0,0-1.425,3.748c-.095,1.015.014,2.032-.091,3.044a30.517,30.517,0,0,1,1.017,4.864c.488,2.336.924,4.682,1.376,7.025a12.051,12.051,0,0,1,.186,1.231c.073.836-.243,1.2-1.094,1.264-.31.024-.623.015-.935.013-.211,0-.419-.008-.553.2.013.52.03,1.04.039,1.56a1.856,1.856,0,0,0,2.134,2.094q5.673.009,11.345,0a1.829,1.829,0,0,0,2.077-2.061Q809.727,914.188,809.721,904.959ZM807.1,920.7a2.39,2.39,0,0,1-1.906.916c-1.824.008-3.648.014-5.472,0-.743-.006-1.029-.275-1.129-1.013a8.375,8.375,0,0,1-.061-1.09c-.006-1.771,0-3.543,0-5.314,0-1.849,0-3.7,0-5.548,0-1.652.316-1.935,1.9-1.891,1.3.036,2.605,0,3.908.009a3.181,3.181,0,0,1,3.322,2.094c.449,1.31.458,3.413-1.035,4.492-.307.222-.512.334,0,.589a3.29,3.29,0,0,1,1.667,2.834A5.019,5.019,0,0,1,807.1,920.7Z" transform="translate(-271.651 -26.909)" fill="#fff"/>
    <path id="パス_3293" data-name="パス 3293" d="M594.7,913.737c-.4-.547-.811-1.085-1.215-1.629a10.43,10.43,0,0,1-2.06-5.319c-.165-1.716-.041-3.438-.08-5.156-.017-.762-.216-.983-.974-1-1.043-.018-2.086-.013-3.128,0-.845.009-1.055.228-1.06,1.077-.01,1.459.011,2.919-.021,4.378a10.349,10.349,0,0,1-2.058,5.959c-.413.569-.842,1.127-1.263,1.691a7.127,7.127,0,0,0-1.348,3.209c-.083.537-.091,1.087-.133,1.63a.65.65,0,0,0,.349.293,3.152,3.152,0,0,1,1.938,2.462,9.185,9.185,0,0,1,.193,2.095,57.668,57.668,0,0,1-.009,6.317,3.8,3.8,0,0,1-2.3,3.513c-.065.026-.108.108-.161.165a12.324,12.324,0,0,1,.043,1.793c.019,1.335.637,1.976,1.955,1.978q5.4.008,10.793,0a1.753,1.753,0,0,0,1.99-1.959q.009-8.561,0-17.122A7.277,7.277,0,0,0,594.7,913.737Zm.092,5.692A27.712,27.712,0,0,1,593.4,923.4c-.425,1.062-.836,2.131-1.29,3.181a8.271,8.271,0,0,0-.617,3.429c.007.729.013,1.459,0,2.188-.019.917-.324,1.22-1.221,1.242-.417.01-.835.018-1.25-.006a.952.952,0,0,1-1.04-1.02c-.038-.649-.008-1.3-.008-1.952a11.693,11.693,0,0,0-1.291-5.96c-.6-1.439-1.206-2.878-1.674-4.368-.07-.223-.145-.446-.195-.674-.141-.64.028-.855.7-.87.6-.014,1.2,0,1.8,0,.869,0,1.088.153,1.329,1,.321,1.125.617,2.257.923,3.387a2.863,2.863,0,0,0,.076.3c.055.139.059.355.236.368.261.02.227-.246.267-.4.282-1.055.544-2.116.823-3.172a6.1,6.1,0,0,1,.276-.81,1.006,1.006,0,0,1,1.032-.677c.625.017,1.251-.008,1.876.007S594.937,918.794,594.789,919.428Z" transform="translate(-92.181 -38.723)" fill="#fff"/>
    <path id="パス_3294" data-name="パス 3294" d="M482.554,909.621a10.356,10.356,0,0,1-.107-1.4c.017-2.127-.108-4.257.074-6.382.215-2.509,1.416-3.429,3.182-3.724.129-.022.257-.038.323-.174a8.449,8.449,0,0,0-1.891-4.057,10.275,10.275,0,0,1-1.853-3.147,17.119,17.119,0,0,1-1-5.586c0-2.606,0-5.213,0-7.819,0-.765-.215-.969-.978-.979s-1.512,0-2.268,0c-.992,0-1.144.149-1.145,1.12,0,2.58.023,5.161-.008,7.741a16.235,16.235,0,0,1-1.358,6.374,15.236,15.236,0,0,1-1.91,2.848,7.383,7.383,0,0,0-1.525,4.432q-.031,7.976,0,15.951a1.738,1.738,0,0,0,1.9,1.9q5.084.012,10.168,0a1.76,1.76,0,0,0,1.932-1.874c.022-.572.017-1.146.024-1.719-.255-.224-.592-.166-.887-.249A3.431,3.431,0,0,1,482.554,909.621Zm-2.03.04c-.025,2.489-1,3.435-3.488,3.436a6.142,6.142,0,0,1-1.475-.138.9.9,0,0,1-.769-.865c-.032-.519-.033-1.041-.018-1.561a.551.551,0,0,1,.592-.588,1.944,1.944,0,0,1,.234,0c1.459.134,1.365-.433,1.363-1.451-.007-2.97-.021-5.94-.013-8.911,0-1.162.336-1.462,1.514-1.469.287,0,.574-.011.86,0,.8.036,1.15.352,1.179,1.148.037.989.021,1.98.024,2.97,0,.86,0,1.72,0,2.58C480.528,906.43,480.541,908.046,480.524,909.661Z" transform="translate(0 -18.249)" fill="#fff"/>
    <path id="パス_3295" data-name="パス 3295" d="M563.265,1034.561c-.012-.717-.267-.993-.883-1.06-.8-.088-1.2.259-1.2,1.13-.013,2.237-.006,4.474,0,6.71a2.535,2.535,0,0,0,.073.617.882.882,0,0,0,.966.726.865.865,0,0,0,.968-.719,3.921,3.921,0,0,0,.082-.85c.009-1.014,0-2.029,0-3.043C563.27,1036.9,563.285,1035.731,563.265,1034.561Z" transform="translate(-75.154 -150.793)" fill="#fff"/>
    <path id="パス_3296" data-name="パス 3296" d="M772.952,1037.7c-.037-.114-.068-.272-.223-.284-.208-.015-.24.178-.279.313a5.222,5.222,0,0,0-.18.834c-.122,1.028-.229,2.058-.313,2.83-.078,1.161-.075,1.163.843,1.15a1.293,1.293,0,0,1,.155,0c.47.05.586-.2.538-.612-.138-1.209-.264-2.419-.4-3.628A3.123,3.123,0,0,0,772.952,1037.7Z" transform="translate(-252.925 -154.11)" fill="#fff"/>
    <path id="パス_3297" data-name="パス 3297" d="M846.123,1068.545a.933.933,0,0,0-1.027.943,7.365,7.365,0,0,0-.008,1.712c.078.751.348,1.017,1,1.051.671.034,1.022-.252,1.2-.962a5.072,5.072,0,0,0,.079-1.11,5.021,5.021,0,0,0-.066-.749A1.014,1.014,0,0,0,846.123,1068.545Z" transform="translate(-314.599 -180.363)" fill="#fff"/>
    <path id="パス_3298" data-name="パス 3298" d="M845.08,1035.755a.609.609,0,0,0,.424.507,1.1,1.1,0,0,0,1.565-.891,2.384,2.384,0,0,0-.049-1.076.986.986,0,0,0-1.166-.776c-.576.062-.766.27-.827.923-.014.154,0,.31,0,.465l-.036,0C845.018,1035.192,845.038,1035.475,845.08,1035.755Z" transform="translate(-314.553 -150.813)" fill="#fff"/>
  </g>
</svg>
