<svg xmlns="http://www.w3.org/2000/svg" width="124.588" height="39.203" viewBox="0 0 124.588 39.203">
  <g id="グループ_77" data-name="グループ 77" transform="translate(-51.743 -231.265)">
    <path id="パス_59" data-name="パス 59" d="M57.464,235.206c0-1.84-.02-2.161-.22-2.56-.2-.361-.64-.361-1.14-.361a3.783,3.783,0,0,0-2.381.7,6.224,6.224,0,0,0-1.44,2.141c-.04.1-.08.16-.32.12-.22-.04-.22-.1-.22-.22.16-1.02.3-2.441.38-3.461,2.28.06,4.4.08,6.581.08,2.121,0,4.321-.02,6.622-.08.08,1.02.22,2.441.36,3.461,0,.12,0,.18-.22.22-.26.04-.3-.02-.341-.12a5.526,5.526,0,0,0-1.4-2.141,3.774,3.774,0,0,0-2.441-.7c-.5,0-.9-.04-1.181.4a5.861,5.861,0,0,0-.259,2.52v7.261c0,2-.02,2.221.179,2.661.2.4.781.42,1.541.5.14.02.18.06.18.26,0,.22-.04.26-.2.26-.86-.04-1.981-.06-2.881-.06-.92,0-1.98.02-2.76.06-.14,0-.18-.04-.18-.24,0-.22.04-.26.18-.28.7-.08,1.16-.1,1.38-.5a7.583,7.583,0,0,0,.18-2.661Z" fill="#fff"/>
    <path id="パス_60" data-name="パス 60" d="M80.965,235.206a5.671,5.671,0,0,0-.38-2.381,2.054,2.054,0,0,0-1.561-.7c-.139-.02-.179-.04-.179-.28,0-.26.04-.28.179-.28.8.04,1.641.08,2.421.08.721,0,1.5-.04,2.241-.08.14,0,.18.02.18.26,0,.26-.04.28-.18.3a1.6,1.6,0,0,0-1.3.72,4.483,4.483,0,0,0-.48,2.361l-.02,2.541c-.02,1.28-.04,2.52-.04,3.7a4.75,4.75,0,0,1-1.52,3.741,5.786,5.786,0,0,1-3.921,1.32,6.635,6.635,0,0,1-4.741-1.58,3.981,3.981,0,0,1-1.22-3.18c0-1.221.04-2.641.04-3.941v-2.6c0-1.88,0-2.141-.24-2.56-.22-.421-.64-.441-1.5-.521-.14-.02-.16-.04-.16-.28s.02-.28.16-.28c.92.04,1.98.08,2.84.08.94,0,2.021-.04,2.921-.08.14,0,.18.04.18.28s-.04.26-.18.28c-.8.08-1.181.08-1.4.521a6.272,6.272,0,0,0-.261,2.56v2.641c0,.86-.02,1.78-.02,2.64,0,1.781.1,2.961,1.021,3.821a4.023,4.023,0,0,0,2.78,1.04,4.39,4.39,0,0,0,3.361-1.14A4.086,4.086,0,0,0,81,241.067c0-1,.02-2,0-3.32Z" fill="#fff"/>
    <path id="パス_61" data-name="パス 61" d="M91.344,242.467c0,2,.02,2.261.24,2.661.26.42.66.44,1.46.52.16.02.2.06.2.26s-.04.24-.2.24c-.94-.04-1.961-.06-2.86-.06-.921,0-1.921.02-2.741.06-.16,0-.22-.04-.22-.24s.04-.24.18-.26c.74-.08,1.16-.08,1.38-.52a7.055,7.055,0,0,0,.24-2.661v-7.261c0-1.92,0-2.161-.22-2.6-.2-.4-.68-.419-1.5-.5-.12-.02-.14-.04-.14-.26,0-.24.04-.28.18-.28.88.04,1.94.08,2.841.08s1.88-.04,2.74-.08c.18,0,.22.04.22.26,0,.24-.04.26-.24.28-.76.081-1.02.1-1.26.5a6.458,6.458,0,0,0-.3,2.6v3.1a17.347,17.347,0,0,0,1.5-1.441l2.24-2.34c1.261-1.3,1.361-1.661,1.261-2.061-.08-.26-.52-.3-.9-.34-.14-.02-.18-.02-.18-.28,0-.2.04-.24.18-.24.74.04,1.58.04,2.32.04.7,0,1.66-.04,2.421-.08.14,0,.16.04.16.26,0,.24-.04.26-.16.28a4.391,4.391,0,0,0-1.741.681,11.75,11.75,0,0,0-2.48,1.98l-1.9,1.9c-.32.32-.44.44-.8.78,1.2,1.481,2.741,3.421,4.781,5.942a7.523,7.523,0,0,0,1.841,1.9,2.7,2.7,0,0,0,1.3.36c.12.02.14.06.14.26s-.02.24-.16.24c-.76-.04-1.32-.06-1.94-.06-.681,0-1.541,0-2.141.02-.5-.74-.96-1.38-1.581-2.18-1.48-1.921-2.92-3.821-4.16-5.4Z" fill="#fff"/>
    <path id="パス_62" data-name="パス 62" d="M112.628,240.647c-.66-.04-1.52-.08-2.28-.08-.84,0-1.64.04-2.48.08l-.761,2.1a3,3,0,0,0-.22,2.24c.18.42.841.56,1.561.64.12,0,.179.04.179.26s-.059.26-.219.26c-.741-.04-1.761-.04-2.5-.04-.7,0-1.44,0-2.1.04-.181,0-.221-.04-.221-.26s.04-.26.221-.26a2.1,2.1,0,0,0,1.18-.62,6.711,6.711,0,0,0,1.22-2.341l2.4-6.481c.941-2.52,1.121-3.141,1.441-4.2l1.58-.72a.225.225,0,0,1,.26.18c.4,1.241.76,2.241,1.661,4.861l2.26,6.522a8.186,8.186,0,0,0,1,2.28c.339.42.54.46,1.3.52.22,0,.26.04.26.26s-.04.26-.26.26c-.86-.02-1.981-.04-2.841-.04-.78,0-1.96.02-2.821.04-.139,0-.159-.04-.159-.26s.04-.26.159-.26c.76-.04,1.261-.12,1.381-.52a3.6,3.6,0,0,0-.36-2.1Zm-1.48-4.3c-.46-1.32-.62-1.9-.84-2.62-.28.78-.44,1.3-.9,2.58l-1.281,3.541c.661.04,1.461.04,2.221.04.64,0,1.421,0,2-.04Z" fill="#fff"/>
    <path id="パス_63" data-name="パス 63" d="M130.076,232.345c-.96-.06-1.68-.06-2.721-.06-1.98,0-3.08.3-3.78.82a5.446,5.446,0,0,0-1.421,2.061c-.06.12-.1.14-.3.1-.22-.04-.26-.08-.24-.22.16-1.04.321-2.461.4-3.481,1.82.06,3.54.1,5.22.1,1.841,0,3.881-.04,5.582-.1.14,0,.16.02.24.16s.08.16-.02.3c-.78,1.161-1.4,2.041-2.381,3.541l-6.461,9.8c.7.06,1.5.08,2.54.08,2.621,0,3.941-.6,4.521-1.02a6.75,6.75,0,0,0,1.721-2.04c.06-.14.1-.18.34-.12.18.06.22.14.18.279-.3,1.081-.78,2.561-1.161,3.6-1.94-.06-3.8-.08-5.481-.08-1.82,0-3.68.02-5.46.08-.141,0-.2,0-.281-.14a.246.246,0,0,1,.04-.28c1.14-1.54,1.961-2.76,2.881-4.181Z" fill="#fff"/>
    <path id="パス_64" data-name="パス 64" d="M144.67,240.647c-.66-.04-1.52-.08-2.28-.08-.841,0-1.641.04-2.481.08l-.76,2.1a3,3,0,0,0-.22,2.24c.18.42.84.56,1.56.64.12,0,.18.04.18.26s-.06.26-.22.26c-.74-.04-1.76-.04-2.5-.04-.7,0-1.441,0-2.1.04-.18,0-.22-.04-.22-.26s.04-.26.22-.26a2.094,2.094,0,0,0,1.18-.62,6.691,6.691,0,0,0,1.221-2.341l2.4-6.481c.94-2.52,1.121-3.141,1.44-4.2l1.581-.72a.226.226,0,0,1,.26.18c.4,1.241.76,2.241,1.66,4.861l2.261,6.522a8.223,8.223,0,0,0,1,2.28c.34.42.54.46,1.3.52.22,0,.26.04.26.26s-.04.26-.26.26c-.86-.02-1.98-.04-2.84-.04-.781,0-1.961.02-2.821.04-.14,0-.16-.04-.16-.26s.04-.26.16-.26c.76-.04,1.26-.12,1.38-.52a3.6,3.6,0,0,0-.36-2.1Zm-1.481-4.3c-.46-1.32-.62-1.9-.839-2.62-.281.78-.441,1.3-.9,2.58l-1.28,3.541c.66.04,1.46.04,2.221.04.64,0,1.42,0,2-.04Z" fill="#fff"/>
    <path id="パス_65" data-name="パス 65" d="M157.445,242.467c0,2,.02,2.261.241,2.661.259.42.66.44,1.46.52.16.02.2.06.2.26s-.04.24-.2.24c-.94-.04-1.961-.06-2.861-.06-.92,0-1.92.02-2.741.06-.16,0-.22-.04-.22-.24s.04-.24.18-.26c.741-.08,1.161-.08,1.381-.52a7.055,7.055,0,0,0,.24-2.661v-7.261c0-1.92,0-2.161-.22-2.6-.2-.4-.68-.419-1.5-.5-.12-.02-.139-.04-.139-.26,0-.24.039-.28.179-.28.881.04,1.941.08,2.841.08s1.881-.04,2.74-.08c.181,0,.221.04.221.26,0,.24-.04.26-.24.28-.76.081-1.021.1-1.261.5a6.459,6.459,0,0,0-.3,2.6v3.1a17.51,17.51,0,0,0,1.5-1.441l2.24-2.34c1.26-1.3,1.36-1.661,1.26-2.061-.08-.26-.52-.3-.9-.34-.14-.02-.18-.02-.18-.28,0-.2.04-.24.18-.24.74.04,1.58.04,2.321.04.7,0,1.66-.04,2.42-.08.14,0,.16.04.16.26,0,.24-.04.26-.16.28a4.387,4.387,0,0,0-1.74.681,11.773,11.773,0,0,0-2.481,1.98l-1.9,1.9c-.32.32-.44.44-.8.78,1.2,1.481,2.74,3.421,4.78,5.942a7.54,7.54,0,0,0,1.841,1.9,2.7,2.7,0,0,0,1.3.36c.119.02.139.06.139.26s-.02.24-.159.24c-.761-.04-1.321-.06-1.941-.06-.68,0-1.54,0-2.14.02-.5-.74-.96-1.38-1.581-2.18-1.48-1.921-2.92-3.821-4.161-5.4Z" fill="#fff"/>
    <path id="パス_66" data-name="パス 66" d="M174.391,242.467c0,2-.02,2.281.2,2.681.2.4.74.42,1.56.5.14.02.18.06.18.26s-.04.24-.2.24c-.98-.02-2.021-.06-2.941-.06-.88,0-1.92.04-2.8.06-.12,0-.16-.04-.16-.24s.02-.24.14-.26c.76-.08,1.2-.08,1.44-.5a7.313,7.313,0,0,0,.22-2.681v-7.261c0-1.92,0-2.161-.2-2.6-.22-.4-.72-.419-1.56-.5-.1,0-.14-.04-.14-.28,0-.22.04-.26.16-.26.96.02,2.02.08,2.9.08.94,0,1.961-.06,2.861-.08.14,0,.18.04.18.28,0,.22-.06.24-.18.26-.76.081-1.22.1-1.44.5a7.1,7.1,0,0,0-.22,2.6Z" fill="#fff"/>
    <path id="パス_67" data-name="パス 67" d="M82.079,263.087c-2.381-1.2-3.181-2.2-3.181-4.241s1.8-3.6,4.481-3.6a7.535,7.535,0,0,1,2.02.28,5.059,5.059,0,0,0,1.98.06c0,1.02.141,2.321.221,3.381,0,.1,0,.16-.2.2-.219.04-.259-.02-.3-.12-.781-1.84-2.021-3.161-3.621-3.161a2.355,2.355,0,0,0-2.4,2.521c0,.9.54,1.74,2.221,2.56l1.08.52c2.841,1.381,3.841,2.281,3.841,4.661,0,2.7-1.981,4.321-5.341,4.321a11.517,11.517,0,0,1-3.841-.7,29.4,29.4,0,0,1-.7-3.34c-.02-.14-.02-.281.22-.321.22-.04.3.02.34.121.9,2.02,2.46,3.6,4.2,3.6a2.779,2.779,0,0,0,2.9-2.88c0-1.521-.9-2.3-2.921-3.341Z" fill="#fff"/>
    <path id="パス_68" data-name="パス 68" d="M96.875,259.206c0-1.84-.021-2.161-.22-2.56-.2-.361-.64-.361-1.141-.361a3.78,3.78,0,0,0-2.38.7,6.241,6.241,0,0,0-1.441,2.141c-.04.1-.08.16-.319.12-.221-.04-.221-.1-.221-.22.16-1.02.3-2.441.381-3.461,2.28.06,4.4.08,6.581.08,2.12,0,4.321-.02,6.621-.08.08,1.02.221,2.441.36,3.461,0,.12,0,.18-.22.22-.26.04-.3-.02-.34-.12a5.539,5.539,0,0,0-1.4-2.141,3.771,3.771,0,0,0-2.441-.7c-.5,0-.9-.04-1.18.4a5.841,5.841,0,0,0-.26,2.52v7.261c0,2-.02,2.221.18,2.661.2.4.78.42,1.541.5.14.02.18.06.18.26,0,.22-.04.26-.2.26-.861-.04-1.981-.06-2.881-.06-.92,0-1.98.02-2.761.06-.14,0-.18-.04-.18-.24,0-.22.04-.26.18-.28.7-.08,1.161-.1,1.381-.5a7.583,7.583,0,0,0,.18-2.661Z" fill="#fff"/>
    <path id="パス_69" data-name="パス 69" d="M113.2,264.347c0-.28-.02-.6-.02-.86-.3-.5-.52-.841-.82-1.341l-1.9-3.24a13.687,13.687,0,0,0-1.5-2.281,1.639,1.639,0,0,0-1.3-.52c-.141-.02-.181-.04-.181-.26,0-.24.04-.28.181-.28.94.04,1.86.08,2.78.08s1.921-.04,2.821-.08c.12,0,.16.04.16.26s-.04.26-.14.28c-.74.081-1.16.12-1.241.5-.119.46.221.861.621,1.581l1.8,3.2c.26.441.38.64.6,1.041a8.552,8.552,0,0,0,.581-.941l1.66-3.14c.44-.841.56-1.18.4-1.62-.14-.4-.641-.54-1.3-.621-.139-.02-.179-.04-.179-.26,0-.24.02-.28.219-.28.761.04,1.641.08,2.441.08s1.42-.04,2.2-.08c.161,0,.181.04.181.26,0,.24-.04.26-.2.28a2.764,2.764,0,0,0-1.4.621,7.021,7.021,0,0,0-1.58,2.06l-1.86,3.141c-.261.46-.441.719-.661,1.08,0,.28-.02,1.06-.02,1.36v2.1c0,2-.02,2.281.181,2.661.219.44.719.44,1.6.52.14.02.16.06.16.26s-.02.24-.16.24c-1.02-.02-2.041-.06-2.961-.06-.9,0-1.88.04-2.78.06-.181,0-.2-.04-.2-.24s.04-.24.18-.26c.781-.08,1.241-.1,1.441-.52a8.4,8.4,0,0,0,.2-2.661Z" fill="#fff"/>
    <path id="パス_70" data-name="パス 70" d="M128.378,266.467a6.183,6.183,0,0,0,.26,2.421c.341.54,1.061.58,1.921.58a5.2,5.2,0,0,0,3.42-1.02,7.445,7.445,0,0,0,1.561-2c.08-.139.12-.179.34-.119.22.08.22.159.2.279a27.535,27.535,0,0,1-1.04,3.541c-1.781-.04-3.621-.06-5.281-.06-1.761,0-3.661.02-5.442.06-.14,0-.18-.04-.18-.24s.04-.24.18-.26c.761-.08,1.141-.1,1.381-.52a6.541,6.541,0,0,0,.26-2.661v-7.261c0-1.92-.02-2.181-.24-2.621-.2-.38-.64-.4-1.441-.48-.16-.02-.2-.04-.2-.26,0-.24.039-.28.2-.28.861.02,1.921.08,2.841.08s1.981-.06,2.84-.08c.161,0,.221.04.221.28,0,.22-.06.24-.18.26-.761.081-1.181.081-1.4.48a7.2,7.2,0,0,0-.221,2.621Z" fill="#fff"/>
    <path id="パス_71" data-name="パス 71" d="M142.9,266.467a5.775,5.775,0,0,0,.281,2.421c.32.54,1.04.58,1.92.58a4.956,4.956,0,0,0,3.441-.96,8.113,8.113,0,0,0,1.6-2.041c.06-.139.12-.2.32-.139.26.08.24.159.22.279a24.676,24.676,0,0,1-1.04,3.541c-1.761-.04-3.6-.06-5.261-.06-1.761,0-3.681.02-5.461.06-.141,0-.181-.04-.181-.24s.04-.24.181-.26c.76-.08,1.1-.1,1.32-.52a6.929,6.929,0,0,0,.26-2.661v-7.261c0-1.92-.02-2.181-.24-2.621-.2-.38-.62-.4-1.461-.48-.139-.02-.179-.04-.179-.26,0-.24.04-.28.179-.28,1.761.06,3.6.08,5.3.08,1.64,0,3.4-.02,5.141-.08.08,1.02.22,2.361.38,3.4.02.12-.02.2-.22.24-.22.02-.3-.02-.34-.14a5.226,5.226,0,0,0-1.361-2.061c-.56-.5-1.44-.72-3-.72-.72,0-1.341.04-1.6.5a6.466,6.466,0,0,0-.2,2.42v2.92c.32.02.781.02,1.121.02a4.968,4.968,0,0,0,2.52-.439,2.152,2.152,0,0,0,.78-1.361c.02-.12.06-.18.3-.18.219,0,.239.06.239.2-.02.72-.04,1.421-.04,2.1,0,.74.02,1.6.04,2.32,0,.16-.02.22-.239.22s-.261-.06-.3-.2a2.631,2.631,0,0,0-.8-1.5,5.337,5.337,0,0,0-2.5-.48c-.34,0-.8,0-1.121.02Z" fill="#fff"/>
  </g>
</svg>
