<svg id="aod-24px" xmlns="http://www.w3.org/2000/svg" width="24" height="24" viewBox="0 0 24 24">
  <g id="グループ_917" data-name="グループ 917">
    <path id="パス_962" data-name="パス 962" d="M0,0H24V24H0Z" fill="none"/>
  </g>
  <g id="グループ_919" data-name="グループ 919">
    <g id="グループ_918" data-name="グループ 918">
      <path id="パス_963" data-name="パス 963" d="M17,1.01,7,1A2.006,2.006,0,0,0,5,3V21a2.006,2.006,0,0,0,2,2H17a2.006,2.006,0,0,0,2-2V3A2,2,0,0,0,17,1.01ZM17,21H7V20H17Zm0-3H7V6H17ZM17,4H7V3H17ZM8,10h8v1.5H8Zm1,3h6v1.5H9Z" fill="#f5669d"/>
    </g>
  </g>
</svg>
