<svg id="inventory_2-24px_1_" data-name="inventory_2-24px (1)" xmlns="http://www.w3.org/2000/svg" width="24" height="24" viewBox="0 0 24 24">
  <g id="グループ_926" data-name="グループ 926">
    <rect id="長方形_1413" data-name="長方形 1413" width="24" height="24" fill="none"/>
  </g>
  <g id="グループ_927" data-name="グループ 927">
    <path id="パス_971" data-name="パス 971" d="M20,2H4A2.074,2.074,0,0,0,2,4V7.01A2.02,2.02,0,0,0,3,8.7V20a2.149,2.149,0,0,0,2,2H19a2.149,2.149,0,0,0,2-2V8.7a2.02,2.02,0,0,0,1-1.69V4A2.074,2.074,0,0,0,20,2ZM15,14H9V12h6Zm5-7H4V4H20Z" fill="#91a6be"/>
  </g>
</svg>
