<svg id="inventory_2-24px" xmlns="http://www.w3.org/2000/svg" width="24" height="24" viewBox="0 0 24 24">
  <g id="グループ_923" data-name="グループ 923">
    <rect id="長方形_1411" data-name="長方形 1411" width="24" height="24" fill="none"/>
  </g>
  <g id="グループ_925" data-name="グループ 925">
    <g id="グループ_924" data-name="グループ 924">
      <path id="パス_970" data-name="パス 970" d="M20,2H4A2.074,2.074,0,0,0,2,4V7.01A2.02,2.02,0,0,0,3,8.7V20a2.149,2.149,0,0,0,2,2H19a2.149,2.149,0,0,0,2-2V8.7a2.02,2.02,0,0,0,1-1.69V4A2.074,2.074,0,0,0,20,2ZM19,20H5V9H19ZM20,7H4V4H20Z" fill="#91a6be"/>
      <rect id="長方形_1412" data-name="長方形 1412" width="6" height="2" transform="translate(9 12)" fill="#91a6be"/>
    </g>
  </g>
</svg>
