<svg id="local_shipping-24px_1_" data-name="local_shipping-24px (1)" xmlns="http://www.w3.org/2000/svg" width="24" height="24" viewBox="0 0 24 24">
  <path id="パス_966" data-name="パス 966" d="M0,0H24V24H0Z" fill="none"/>
  <path id="パス_967" data-name="パス 967" d="M20,8H17V4H3A2.006,2.006,0,0,0,1,6V17H3a3,3,0,0,0,6,0h6a3,3,0,0,0,6,0h2V12Zm-.5,1.5L21.46,12H17V9.5ZM6,18a1,1,0,1,1,1-1A1,1,0,0,1,6,18Zm2.22-3a2.964,2.964,0,0,0-4.44,0H3V6H15v9ZM18,18a1,1,0,1,1,1-1A1,1,0,0,1,18,18Z" fill="#91a6be"/>
</svg>
