<svg xmlns="http://www.w3.org/2000/svg" width="24" height="24" viewBox="0 0 24 24">
  <g id="グループ_1112" data-name="グループ 1112" transform="translate(-236 -6145)">
    <rect id="長方形_1424" data-name="長方形 1424" width="24" height="24" transform="translate(236 6145)" fill="#f5669d" opacity="0"/>
    <g id="グループ_1109" data-name="グループ 1109" transform="translate(-354.446 4740.412)">
      <path id="パス_1073" data-name="パス 1073" d="M599.446,1422.588h6v-6h-6Zm2-4h2v2h-2Z" fill="#f5669d"/>
      <path id="パス_1074" data-name="パス 1074" d="M612.446,1409.588h-3v-1a2,2,0,0,0-2-2h-10a2,2,0,0,0-2,2v1h-3v7h3v10h14v-10h3Zm-15-1h10v4h-10v-3h0v-1Zm-3,6v-3h1v3Zm13,10h-10v-8h0v-2h10v10Zm3-10h-1v-3h1Z" fill="#f5669d"/>
      <rect id="長方形_1595" data-name="長方形 1595" width="6.005" height="1.5" transform="translate(599.446 1409.567)" fill="#f5669d"/>
    </g>
  </g>
</svg>
