<svg xmlns="http://www.w3.org/2000/svg" width="24" height="24" viewBox="0 0 24 24">
  <g id="グループ_1642" data-name="グループ 1642" transform="translate(-236 -6145)">
    <rect id="長方形_1424" data-name="長方形 1424" width="24" height="24" transform="translate(236 6145)" fill="#fff" opacity="0"/>
    <g id="グループ_1110" data-name="グループ 1110" transform="translate(-377.273 4740.412)">
      <rect id="長方形_1596" data-name="長方形 1596" width="6.005" height="1.5" transform="translate(622.273 1409.567)" fill="#fff"/>
      <path id="パス_1075" data-name="パス 1075" d="M632.273,1409.587v-1a2,2,0,0,0-2-2h-10a2,2,0,0,0-2,2v1h-3v7h3v10h14v-10h3v-7Zm-14,3v2h-1v-3h1Zm10,10h-6v-2h6Zm0-4h-6v-2h6Zm2-9v3h-10v-3h0v-1h10Zm3,5h-1v-3h1Z" fill="#fff"/>
    </g>
  </g>
</svg>
