<svg id="paid_black_24dp_1_" data-name="paid_black_24dp (1)" xmlns="http://www.w3.org/2000/svg" width="24" height="24" viewBox="0 0 24 24">
  <g id="グループ_2242" data-name="グループ 2242">
    <rect id="長方形_1877" data-name="長方形 1877" width="24" height="24" fill="none"/>
  </g>
  <g id="グループ_2243" data-name="グループ 2243">
    <path id="前面オブジェクトで型抜き_7" data-name="前面オブジェクトで型抜き 7" d="M-261,14024a10.01,10.01,0,0,1-10-10,10.012,10.012,0,0,1,10-10,10.012,10.012,0,0,1,10,10A10.01,10.01,0,0,1-261,14024Zm-.919-5.466V14021h1.82v-2.463h2.534v-1.123H-260.1v-.816h2.534v-1.119h-2.041l3.231-6.613h-1.939l-2.7,5.814-2.685-5.814h-1.922l3.213,6.613h-2.024v1.119h2.516v.816h-2.516v1.123Z" transform="translate(273 -14002)" fill="#91a6be"/>
  </g>
</svg>
