<svg id="portrait-24px" xmlns="http://www.w3.org/2000/svg" width="24" height="24" viewBox="0 0 24 24">
  <path id="パス_983" data-name="パス 983" d="M0,0H24V24H0Z" fill="none"/>
  <path id="パス_1072" data-name="パス 1072" d="M967.189,530.757h-14a2.006,2.006,0,0,0-2,2v14a2.007,2.007,0,0,0,2,2h14a2.007,2.007,0,0,0,2-2v-14A2.006,2.006,0,0,0,967.189,530.757Zm-7,4.75a2.25,2.25,0,1,1-2.25,2.25A2.25,2.25,0,0,1,960.189,535.507Zm4.5,9.25h-9v-.75c0-1.5,3-2.25,4.5-2.25s4.5.75,4.5,2.25Z" transform="translate(-948.189 -527.757)" fill="#91a6be"/>
</svg>
