<svg xmlns="http://www.w3.org/2000/svg" width="16" height="16" viewBox="0 0 16 16">
  <g id="stock__rental" transform="translate(-387 -6397)">
    <rect id="長方形_1647" data-name="長方形 1647" width="16" height="16" transform="translate(387 6397)" fill="#fff" opacity="0"/>
    <g id="グループ_1237" data-name="グループ 1237" transform="translate(389.667 6399)">
      <path id="前面オブジェクトで型抜き_6" data-name="前面オブジェクトで型抜き 6" d="M-2320-7777h-10.667v-8l5.333-4,5.334,4v8Zm-5.334-4.889c-.853,0-2.444.42-2.444,1.224v1h4.889v-1C-2322.888-7781.469-2324.48-7781.889-2325.334-7781.889Zm0-3.11a1.112,1.112,0,0,0-1.11,1.11,1.112,1.112,0,0,0,1.11,1.11,1.111,1.111,0,0,0,1.108-1.11A1.111,1.111,0,0,0-2325.334-7785Z" transform="translate(2330.667 7789)" fill="#fff"/>
    </g>
  </g>
</svg>
