<svg xmlns="http://www.w3.org/2000/svg" width="16" height="16" viewBox="0 0 16 16">
  <g id="stock__shop" transform="translate(-372 -6179)">
    <g id="storefront-24px_1_" data-name="storefront-24px (1)" transform="translate(372 6179)">
      <g id="グループ_933" data-name="グループ 933">
        <rect id="長方形_1417" data-name="長方形 1417" width="16" height="16" fill="none"/>
      </g>
      <g id="グループ_935" data-name="グループ 935" transform="translate(1.337 2)">
        <g id="グループ_934" data-name="グループ 934">
          <path id="パス_977" data-name="パス 977" d="M15.268,6.927l-.7-2.913A1.309,1.309,0,0,0,13.3,3H4.035A1.309,1.309,0,0,0,2.768,4.013l-.7,2.913a2.25,2.25,0,0,0,.413,1.92,2.556,2.556,0,0,0,.187.193v4.627A1.337,1.337,0,0,0,4,15h9.333a1.337,1.337,0,0,0,1.333-1.333V9.04a2.466,2.466,0,0,0,.187-.187A2.242,2.242,0,0,0,15.268,6.927Zm-1.993-2.6.7,2.913a.9.9,0,0,1-.167.78.782.782,0,0,1-.627.313.833.833,0,0,1-.807-.76l-.387-3.24Zm-3.94.007h1.307L11,7.347a.9.9,0,0,1-.22.713.8.8,0,0,1-.633.273.848.848,0,0,1-.813-.873ZM6.328,7.347,6.7,4.333H8V7.46a.857.857,0,0,1-.86.873.8.8,0,0,1-.593-.273A.947.947,0,0,1,6.328,7.347ZM3.362,7.24l.673-2.907H5.348l-.387,3.24a.838.838,0,0,1-.807.76.767.767,0,0,1-.62-.313A.882.882,0,0,1,3.362,7.24ZM4,13.667V9.647a1.207,1.207,0,0,0,.153.02,2.086,2.086,0,0,0,1.493-.633,2.144,2.144,0,0,0,1.54.633,2.114,2.114,0,0,0,1.487-.62,2.185,2.185,0,0,0,1.527.62A2.117,2.117,0,0,0,11.7,9.033a2.086,2.086,0,0,0,1.493.633,1.207,1.207,0,0,0,.153-.02v4.02Z" transform="translate(-2.005 -3)" fill="#fff"/>
        </g>
      </g>
    </g>
    <path id="パス_978" data-name="パス 978" d="M1202.022,6191h10.671v5.243h-10.671Z" transform="translate(-827.341 -4)" fill="#fff"/>
  </g>
</svg>
