<svg xmlns="http://www.w3.org/2000/svg" width="16" height="16" viewBox="0 0 16 16">
  <g id="stock__block" transform="translate(5595 6581)">
    <rect id="長方形_1413" data-name="長方形 1413" width="16" height="16" transform="translate(-5595 -6581)" fill="rgba(0,0,0,0)"/>
    <g id="locked-padlock" transform="translate(-5648.309 -6579.5)">
      <path id="パス_2484" data-name="パス 2484" d="M65.6,5.25h-.253V4.064A4.042,4.042,0,0,0,61.428,0c-.059,0-.178,0-.238,0a4.042,4.042,0,0,0-3.915,4.064V5.25h-.253a.823.823,0,0,0-.709.9V12.1a.826.826,0,0,0,.709.9H65.6a.826.826,0,0,0,.709-.9V6.15A.823.823,0,0,0,65.6,5.25ZM62.112,9.117v1.8a.384.384,0,0,1-.378.38h-.85a.384.384,0,0,1-.378-.38v-1.8a1.088,1.088,0,0,1,.685-1.851c.059,0,.178,0,.238,0a1.088,1.088,0,0,1,.684,1.851ZM63.673,5.25H58.945V4.064a2.364,2.364,0,1,1,4.729,0V5.25Z" transform="translate(0 0)" fill="#fff"/>
    </g>
  </g>
</svg>
