<svg xmlns="http://www.w3.org/2000/svg" width="16" height="16" viewBox="0 0 16 16">
  <g id="stock__warehouse" transform="translate(-309 -6363)">
    <rect id="長方形_1647" data-name="長方形 1647" width="16" height="16" transform="translate(309 6363)" fill="#f6f7fa" opacity="0"/>
    <g id="グループ_1225" data-name="グループ 1225" transform="translate(311 6365)">
      <g id="前面オブジェクトで型抜き_3" data-name="前面オブジェクトで型抜き 3" transform="translate(2124.667 7800.667)" fill="#fff">
        <path d="M -2113.667724609375 -7789.666015625 L -2116.999755859375 -7789.666015625 L -2116.999755859375 -7791.666015625 L -2116.000732421875 -7791.666015625 L -2114.666748046875 -7791.666015625 L -2113.667724609375 -7791.666015625 L -2113.667724609375 -7789.666015625 Z" stroke="none"/>
        <path d="M -2112.667724609375 -7788.666015625 L -2112.668701171875 -7788.666015625 L -2117.999755859375 -7788.666015625 L -2117.999755859375 -7794 L -2116.001708984375 -7794.00048828125 L -2116.000732421875 -7792.666015625 L -2114.666748046875 -7792.666015625 L -2114.666748046875 -7793.99951171875 L -2112.667724609375 -7794 L -2112.667724609375 -7788.6669921875 L -2112.667724609375 -7788.666015625 Z" stroke="none" fill="#fff"/>
      </g>
      <g id="前面オブジェクトで型抜き_5" data-name="前面オブジェクトで型抜き 5" transform="translate(2130 7794)" fill="#fff">
        <path d="M -2125.666015625 -7782.99951171875 L -2129 -7782.99951171875 L -2129 -7786.333984375 L -2128.9990234375 -7786.333984375 L -2128.9990234375 -7786 L -2128.9990234375 -7785 L -2127.9990234375 -7785 L -2126.6669921875 -7785 L -2125.6669921875 -7785 L -2125.6669921875 -7786 L -2125.6669921875 -7786.333984375 L -2125.666015625 -7786.333984375 L -2125.666015625 -7782.99951171875 Z M -2122.3330078125 -7789.666015625 L -2125.6669921875 -7789.666015625 L -2125.6669921875 -7793.00048828125 L -2125.666259765625 -7793.00048828125 L -2125.666015625 -7792.66552734375 L -2125.665283203125 -7791.666015625 L -2124.666015625 -7791.666015625 L -2123.333984375 -7791.666015625 L -2122.333984375 -7791.666015625 L -2122.333984375 -7792.666015625 L -2122.333984375 -7792.99951171875 L -2122.3330078125 -7792.99951171875 L -2122.3330078125 -7789.666015625 Z" stroke="none"/>
        <path d="M -2126.666015625 -7783.99951171875 L -2126.666015625 -7784 L -2126.6669921875 -7784 L -2127.9990234375 -7784 L -2128 -7784 L -2128 -7783.99951171875 L -2126.666015625 -7783.99951171875 M -2124.666015625 -7781.99951171875 L -2124.6669921875 -7781.99951171875 L -2124.66796875 -7781.99951171875 L -2130 -7781.99951171875 L -2130 -7787.333984375 L -2127.9990234375 -7787.333984375 L -2127.9990234375 -7786 L -2126.6669921875 -7786 L -2126.6669921875 -7787.333984375 L -2124.666015625 -7787.333984375 L -2124.666015625 -7782.00048828125 L -2124.666015625 -7781.99951171875 Z M -2121.3330078125 -7788.666015625 L -2121.3349609375 -7788.666015625 L -2126.6669921875 -7788.666015625 L -2126.6669921875 -7794 L -2124.6669921875 -7794.00048828125 L -2124.666015625 -7792.666015625 L -2123.333984375 -7792.666015625 L -2123.333984375 -7793.99951171875 L -2121.3330078125 -7794 L -2121.3330078125 -7788.66796875 L -2121.331298828125 -7788.66650390625 L -2121.3330078125 -7788.666015625 Z" stroke="none" fill="#fff"/>
      </g>
    </g>
  </g>
</svg>
