<svg id="stock__repair" xmlns="http://www.w3.org/2000/svg" width="16" height="16" viewBox="0 0 16 16">
  <g id="グループ_1468" data-name="グループ 1468">
    <rect id="長方形_1701" data-name="長方形 1701" width="16" height="16" fill="none"/>
  </g>
  <g id="グループ_1470" data-name="グループ 1470" transform="translate(1.4 1.742)">
    <g id="グループ_1469" data-name="グループ 1469">
      <rect id="長方形_1702" data-name="長方形 1702" width="2" height="5.653" transform="translate(7.788 8.373) rotate(-45)" fill="#fff"/>
      <path id="パス_1198" data-name="パス 1198" d="M12.367,7.538A2.336,2.336,0,0,0,14.7,5.2a2.3,2.3,0,0,0-.273-1.067l-1.8,1.8-.993-.993,1.8-1.8a2.3,2.3,0,0,0-1.067-.273A2.336,2.336,0,0,0,10.033,5.2a2.274,2.274,0,0,0,.14.773L8.94,7.211,7.753,6.024l.473-.473-.94-.94L8.7,3.2a2,2,0,0,0-2.827,0l-2.36,2.36.94.94H2.573L2.1,6.971l2.36,2.36.473-.473V6.971l.94.94.473-.473L7.533,8.624l-4.94,4.94,1.413,1.413L11.593,7.4A2.274,2.274,0,0,0,12.367,7.538Z" transform="translate(-2.1 -2.613)" fill="#fff"/>
    </g>
  </g>
</svg>
